<?xml version="1.0" encoding="utf-8" standalone="no"?>
<!DOCTYPE svg PUBLIC "-//W3C//DTD SVG 1.1//EN"
  "http://www.w3.org/Graphics/SVG/1.1/DTD/svg11.dtd">
<svg xmlns:xlink="http://www.w3.org/1999/xlink" width="660.952563pt" height="305.926594pt" viewBox="0 0 660.952563 305.926594" xmlns="http://www.w3.org/2000/svg" version="1.1">
 <metadata>
  <rdf:RDF xmlns:dc="http://purl.org/dc/elements/1.1/" xmlns:cc="http://creativecommons.org/ns#" xmlns:rdf="http://www.w3.org/1999/02/22-rdf-syntax-ns#">
   <cc:Work>
    <dc:type rdf:resource="http://purl.org/dc/dcmitype/StillImage"/>
    <dc:date>2026-07-13T23:53:27.549367</dc:date>
    <dc:format>image/svg+xml</dc:format>
    <dc:creator>
     <cc:Agent>
      <dc:title>Matplotlib v3.11.0, https://matplotlib.org/</dc:title>
     </cc:Agent>
    </dc:creator>
   </cc:Work>
  </rdf:RDF>
 </metadata>
 <defs>
  <style type="text/css">*{stroke-linejoin: round; stroke-linecap: butt}</style>
 </defs>
 <g id="figure_1">
  <g id="patch_1">
   <path d="M 0 305.926594 
L 660.952563 305.926594 
L 660.952563 0 
L 0 0 
z
" style="fill: #ffffff"/>
  </g>
  <g id="axes_1">
   <g id="patch_2">
    <path d="M 94.476199 275.825891 
L 363.860927 275.825891 
L 363.860927 55.065539 
L 94.476199 55.065539 
z
" style="fill: #ffffff"/>
   </g>
   <g id="line2d_1">
    <path d="M 229.168563 275.825891 
L 229.168563 55.065539 
" clip-path="url(#p1edd21cad4)" style="fill: none; stroke: #333333; stroke-linecap: square"/>
   </g>
   <g id="matplotlib.axis_1">
    <g id="xtick_1">
     <g id="line2d_2">
      <defs>
       <path id="m4ad5c7b1c3" d="M 0 0 
L 0 3 
" style="stroke: #000000; stroke-width: 0.6"/>
      </defs>
      <g>
       <use xlink:href="#m4ad5c7b1c3" x="102.894472" y="275.825891" style="stroke: #000000; stroke-width: 0.6"/>
      </g>
     </g>
     <g id="text_1">
      <!-- −1.5 -->
      <g transform="translate(94.395488 287.64425) scale(0.07 -0.07)">
       <defs>
        <path id="DejaVuSans-c9c" d="M 678 2272 
L 4684 2272 
L 4684 1741 
L 678 1741 
L 678 2272 
z
" transform="scale(0.015625)"/>
        <path id="DejaVuSans-14" d="M 794 531 
L 1825 531 
L 1825 4091 
L 703 3866 
L 703 4441 
L 1819 4666 
L 2450 4666 
L 2450 531 
L 3481 531 
L 3481 0 
L 794 0 
L 794 531 
z
" transform="scale(0.015625)"/>
        <path id="DejaVuSans-11" d="M 684 794 
L 1344 794 
L 1344 0 
L 684 0 
L 684 794 
z
" transform="scale(0.015625)"/>
        <path id="DejaVuSans-18" d="M 691 4666 
L 3169 4666 
L 3169 4134 
L 1269 4134 
L 1269 2991 
Q 1406 3038 1543 3061 
Q 1681 3084 1819 3084 
Q 2600 3084 3056 2656 
Q 3513 2228 3513 1497 
Q 3513 744 3044 326 
Q 2575 -91 1722 -91 
Q 1428 -91 1123 -41 
Q 819 9 494 109 
L 494 744 
Q 775 591 1075 516 
Q 1375 441 1709 441 
Q 2250 441 2565 725 
Q 2881 1009 2881 1497 
Q 2881 1984 2565 2268 
Q 2250 2553 1709 2553 
Q 1456 2553 1204 2497 
Q 953 2441 691 2322 
L 691 4666 
z
" transform="scale(0.015625)"/>
       </defs>
       <use xlink:href="#DejaVuSans-c9c"/>
       <use xlink:href="#DejaVuSans-14" transform="translate(83.796875 0)"/>
       <use xlink:href="#DejaVuSans-11" transform="translate(147.421875 0)"/>
       <use xlink:href="#DejaVuSans-18" transform="translate(179.203125 0)"/>
      </g>
     </g>
    </g>
    <g id="xtick_2">
     <g id="line2d_3">
      <g>
       <use xlink:href="#m4ad5c7b1c3" x="144.985836" y="275.825891" style="stroke: #000000; stroke-width: 0.6"/>
      </g>
     </g>
     <g id="text_2">
      <!-- −1.0 -->
      <g transform="translate(136.486851 287.64425) scale(0.07 -0.07)">
       <defs>
        <path id="DejaVuSans-13" d="M 2034 4250 
Q 1547 4250 1301 3770 
Q 1056 3291 1056 2328 
Q 1056 1369 1301 889 
Q 1547 409 2034 409 
Q 2525 409 2770 889 
Q 3016 1369 3016 2328 
Q 3016 3291 2770 3770 
Q 2525 4250 2034 4250 
z
M 2034 4750 
Q 2819 4750 3233 4129 
Q 3647 3509 3647 2328 
Q 3647 1150 3233 529 
Q 2819 -91 2034 -91 
Q 1250 -91 836 529 
Q 422 1150 422 2328 
Q 422 3509 836 4129 
Q 1250 4750 2034 4750 
z
" transform="scale(0.015625)"/>
       </defs>
       <use xlink:href="#DejaVuSans-c9c"/>
       <use xlink:href="#DejaVuSans-14" transform="translate(83.796875 0)"/>
       <use xlink:href="#DejaVuSans-11" transform="translate(147.421875 0)"/>
       <use xlink:href="#DejaVuSans-13" transform="translate(179.203125 0)"/>
      </g>
     </g>
    </g>
    <g id="xtick_3">
     <g id="line2d_4">
      <g>
       <use xlink:href="#m4ad5c7b1c3" x="187.077199" y="275.825891" style="stroke: #000000; stroke-width: 0.6"/>
      </g>
     </g>
     <g id="text_3">
      <!-- −0.5 -->
      <g transform="translate(178.578215 287.64425) scale(0.07 -0.07)">
       <use xlink:href="#DejaVuSans-c9c"/>
       <use xlink:href="#DejaVuSans-13" transform="translate(83.796875 0)"/>
       <use xlink:href="#DejaVuSans-11" transform="translate(147.421875 0)"/>
       <use xlink:href="#DejaVuSans-18" transform="translate(179.203125 0)"/>
      </g>
     </g>
    </g>
    <g id="xtick_4">
     <g id="line2d_5">
      <g>
       <use xlink:href="#m4ad5c7b1c3" x="229.168563" y="275.825891" style="stroke: #000000; stroke-width: 0.6"/>
      </g>
     </g>
     <g id="text_4">
      <!-- 0.0 -->
      <g transform="translate(223.602469 287.64425) scale(0.07 -0.07)">
       <use xlink:href="#DejaVuSans-13"/>
       <use xlink:href="#DejaVuSans-11" transform="translate(63.625 0)"/>
       <use xlink:href="#DejaVuSans-13" transform="translate(95.40625 0)"/>
      </g>
     </g>
    </g>
    <g id="xtick_5">
     <g id="line2d_6">
      <g>
       <use xlink:href="#m4ad5c7b1c3" x="271.259927" y="275.825891" style="stroke: #000000; stroke-width: 0.6"/>
      </g>
     </g>
     <g id="text_5">
      <!-- 0.5 -->
      <g transform="translate(265.693833 287.64425) scale(0.07 -0.07)">
       <use xlink:href="#DejaVuSans-13"/>
       <use xlink:href="#DejaVuSans-11" transform="translate(63.625 0)"/>
       <use xlink:href="#DejaVuSans-18" transform="translate(95.40625 0)"/>
      </g>
     </g>
    </g>
    <g id="xtick_6">
     <g id="line2d_7">
      <g>
       <use xlink:href="#m4ad5c7b1c3" x="313.35129" y="275.825891" style="stroke: #000000; stroke-width: 0.6"/>
      </g>
     </g>
     <g id="text_6">
      <!-- 1.0 -->
      <g transform="translate(307.785197 287.64425) scale(0.07 -0.07)">
       <use xlink:href="#DejaVuSans-14"/>
       <use xlink:href="#DejaVuSans-11" transform="translate(63.625 0)"/>
       <use xlink:href="#DejaVuSans-13" transform="translate(95.40625 0)"/>
      </g>
     </g>
    </g>
    <g id="xtick_7">
     <g id="line2d_8">
      <g>
       <use xlink:href="#m4ad5c7b1c3" x="355.442654" y="275.825891" style="stroke: #000000; stroke-width: 0.6"/>
      </g>
     </g>
     <g id="text_7">
      <!-- 1.5 -->
      <g transform="translate(349.87656 287.64425) scale(0.07 -0.07)">
       <use xlink:href="#DejaVuSans-14"/>
       <use xlink:href="#DejaVuSans-11" transform="translate(63.625 0)"/>
       <use xlink:href="#DejaVuSans-18" transform="translate(95.40625 0)"/>
      </g>
     </g>
    </g>
    <g id="text_8">
     <!-- Δ answer quality (points on 1–5 rubric) -->
     <g transform="translate(141.815829 300.164484) scale(0.09 -0.09)">
      <defs>
       <path id="DejaVuSans-329" d="M 2188 4044 
L 906 525 
L 3472 525 
L 2188 4044 
z
M 50 0 
L 1831 4666 
L 2547 4666 
L 4325 0 
L 50 0 
z
" transform="scale(0.015625)"/>
       <path id="DejaVuSans-3" transform="scale(0.015625)"/>
       <path id="DejaVuSans-44" d="M 2194 1759 
Q 1497 1759 1228 1600 
Q 959 1441 959 1056 
Q 959 750 1161 570 
Q 1363 391 1709 391 
Q 2188 391 2477 730 
Q 2766 1069 2766 1631 
L 2766 1759 
L 2194 1759 
z
M 3341 1997 
L 3341 0 
L 2766 0 
L 2766 531 
Q 2569 213 2275 61 
Q 1981 -91 1556 -91 
Q 1019 -91 701 211 
Q 384 513 384 1019 
Q 384 1609 779 1909 
Q 1175 2209 1959 2209 
L 2766 2209 
L 2766 2266 
Q 2766 2663 2505 2880 
Q 2244 3097 1772 3097 
Q 1472 3097 1187 3025 
Q 903 2953 641 2809 
L 641 3341 
Q 956 3463 1253 3523 
Q 1550 3584 1831 3584 
Q 2591 3584 2966 3190 
Q 3341 2797 3341 1997 
z
" transform="scale(0.015625)"/>
       <path id="DejaVuSans-51" d="M 3513 2113 
L 3513 0 
L 2938 0 
L 2938 2094 
Q 2938 2591 2744 2837 
Q 2550 3084 2163 3084 
Q 1697 3084 1428 2787 
Q 1159 2491 1159 1978 
L 1159 0 
L 581 0 
L 581 3500 
L 1159 3500 
L 1159 2956 
Q 1366 3272 1645 3428 
Q 1925 3584 2291 3584 
Q 2894 3584 3203 3211 
Q 3513 2838 3513 2113 
z
" transform="scale(0.015625)"/>
       <path id="DejaVuSans-56" d="M 2834 3397 
L 2834 2853 
Q 2591 2978 2328 3040 
Q 2066 3103 1784 3103 
Q 1356 3103 1142 2972 
Q 928 2841 928 2578 
Q 928 2378 1081 2264 
Q 1234 2150 1697 2047 
L 1894 2003 
Q 2506 1872 2764 1633 
Q 3022 1394 3022 966 
Q 3022 478 2636 193 
Q 2250 -91 1575 -91 
Q 1294 -91 989 -36 
Q 684 19 347 128 
L 347 722 
Q 666 556 975 473 
Q 1284 391 1588 391 
Q 1994 391 2212 530 
Q 2431 669 2431 922 
Q 2431 1156 2273 1281 
Q 2116 1406 1581 1522 
L 1381 1569 
Q 847 1681 609 1914 
Q 372 2147 372 2553 
Q 372 3047 722 3315 
Q 1072 3584 1716 3584 
Q 2034 3584 2315 3537 
Q 2597 3491 2834 3397 
z
" transform="scale(0.015625)"/>
       <path id="DejaVuSans-5a" d="M 269 3500 
L 844 3500 
L 1563 769 
L 2278 3500 
L 2956 3500 
L 3675 769 
L 4391 3500 
L 4966 3500 
L 4050 0 
L 3372 0 
L 2619 2869 
L 1863 0 
L 1184 0 
L 269 3500 
z
" transform="scale(0.015625)"/>
       <path id="DejaVuSans-48" d="M 3597 1894 
L 3597 1613 
L 953 1613 
Q 991 1019 1311 708 
Q 1631 397 2203 397 
Q 2534 397 2845 478 
Q 3156 559 3463 722 
L 3463 178 
Q 3153 47 2828 -22 
Q 2503 -91 2169 -91 
Q 1331 -91 842 396 
Q 353 884 353 1716 
Q 353 2575 817 3079 
Q 1281 3584 2069 3584 
Q 2775 3584 3186 3129 
Q 3597 2675 3597 1894 
z
M 3022 2063 
Q 3016 2534 2758 2815 
Q 2500 3097 2075 3097 
Q 1594 3097 1305 2825 
Q 1016 2553 972 2059 
L 3022 2063 
z
" transform="scale(0.015625)"/>
       <path id="DejaVuSans-55" d="M 2631 2963 
Q 2534 3019 2420 3045 
Q 2306 3072 2169 3072 
Q 1681 3072 1420 2755 
Q 1159 2438 1159 1844 
L 1159 0 
L 581 0 
L 581 3500 
L 1159 3500 
L 1159 2956 
Q 1341 3275 1631 3429 
Q 1922 3584 2338 3584 
Q 2397 3584 2469 3576 
Q 2541 3569 2628 3553 
L 2631 2963 
z
" transform="scale(0.015625)"/>
       <path id="DejaVuSans-54" d="M 947 1747 
Q 947 1113 1208 752 
Q 1469 391 1925 391 
Q 2381 391 2643 752 
Q 2906 1113 2906 1747 
Q 2906 2381 2643 2742 
Q 2381 3103 1925 3103 
Q 1469 3103 1208 2742 
Q 947 2381 947 1747 
z
M 2906 525 
Q 2725 213 2448 61 
Q 2172 -91 1784 -91 
Q 1150 -91 751 415 
Q 353 922 353 1747 
Q 353 2572 751 3078 
Q 1150 3584 1784 3584 
Q 2172 3584 2448 3432 
Q 2725 3281 2906 2969 
L 2906 3500 
L 3481 3500 
L 3481 -1331 
L 2906 -1331 
L 2906 525 
z
" transform="scale(0.015625)"/>
       <path id="DejaVuSans-58" d="M 544 1381 
L 544 3500 
L 1119 3500 
L 1119 1403 
Q 1119 906 1312 657 
Q 1506 409 1894 409 
Q 2359 409 2629 706 
Q 2900 1003 2900 1516 
L 2900 3500 
L 3475 3500 
L 3475 0 
L 2900 0 
L 2900 538 
Q 2691 219 2414 64 
Q 2138 -91 1772 -91 
Q 1169 -91 856 284 
Q 544 659 544 1381 
z
M 1991 3584 
L 1991 3584 
z
" transform="scale(0.015625)"/>
       <path id="DejaVuSans-4f" d="M 603 4863 
L 1178 4863 
L 1178 0 
L 603 0 
L 603 4863 
z
" transform="scale(0.015625)"/>
       <path id="DejaVuSans-4c" d="M 603 3500 
L 1178 3500 
L 1178 0 
L 603 0 
L 603 3500 
z
M 603 4863 
L 1178 4863 
L 1178 4134 
L 603 4134 
L 603 4863 
z
" transform="scale(0.015625)"/>
       <path id="DejaVuSans-57" d="M 1172 4494 
L 1172 3500 
L 2356 3500 
L 2356 3053 
L 1172 3053 
L 1172 1153 
Q 1172 725 1289 603 
Q 1406 481 1766 481 
L 2356 481 
L 2356 0 
L 1766 0 
Q 1100 0 847 248 
Q 594 497 594 1153 
L 594 3053 
L 172 3053 
L 172 3500 
L 594 3500 
L 594 4494 
L 1172 4494 
z
" transform="scale(0.015625)"/>
       <path id="DejaVuSans-5c" d="M 2059 -325 
Q 1816 -950 1584 -1140 
Q 1353 -1331 966 -1331 
L 506 -1331 
L 506 -850 
L 844 -850 
Q 1081 -850 1212 -737 
Q 1344 -625 1503 -206 
L 1606 56 
L 191 3500 
L 800 3500 
L 1894 763 
L 2988 3500 
L 3597 3500 
L 2059 -325 
z
" transform="scale(0.015625)"/>
       <path id="DejaVuSans-b" d="M 1984 4856 
Q 1566 4138 1362 3434 
Q 1159 2731 1159 2009 
Q 1159 1288 1364 580 
Q 1569 -128 1984 -844 
L 1484 -844 
Q 1016 -109 783 600 
Q 550 1309 550 2009 
Q 550 2706 781 3412 
Q 1013 4119 1484 4856 
L 1984 4856 
z
" transform="scale(0.015625)"/>
       <path id="DejaVuSans-53" d="M 1159 525 
L 1159 -1331 
L 581 -1331 
L 581 3500 
L 1159 3500 
L 1159 2969 
Q 1341 3281 1617 3432 
Q 1894 3584 2278 3584 
Q 2916 3584 3314 3078 
Q 3713 2572 3713 1747 
Q 3713 922 3314 415 
Q 2916 -91 2278 -91 
Q 1894 -91 1617 61 
Q 1341 213 1159 525 
z
M 3116 1747 
Q 3116 2381 2855 2742 
Q 2594 3103 2138 3103 
Q 1681 3103 1420 2742 
Q 1159 2381 1159 1747 
Q 1159 1113 1420 752 
Q 1681 391 2138 391 
Q 2594 391 2855 752 
Q 3116 1113 3116 1747 
z
" transform="scale(0.015625)"/>
       <path id="DejaVuSans-52" d="M 1959 3097 
Q 1497 3097 1228 2736 
Q 959 2375 959 1747 
Q 959 1119 1226 758 
Q 1494 397 1959 397 
Q 2419 397 2687 759 
Q 2956 1122 2956 1747 
Q 2956 2369 2687 2733 
Q 2419 3097 1959 3097 
z
M 1959 3584 
Q 2709 3584 3137 3096 
Q 3566 2609 3566 1747 
Q 3566 888 3137 398 
Q 2709 -91 1959 -91 
Q 1206 -91 779 398 
Q 353 888 353 1747 
Q 353 2609 779 3096 
Q 1206 3584 1959 3584 
z
" transform="scale(0.015625)"/>
       <path id="DejaVuSans-af5" d="M 313 1978 
L 2888 1978 
L 2888 1528 
L 313 1528 
L 313 1978 
z
" transform="scale(0.015625)"/>
       <path id="DejaVuSans-45" d="M 3116 1747 
Q 3116 2381 2855 2742 
Q 2594 3103 2138 3103 
Q 1681 3103 1420 2742 
Q 1159 2381 1159 1747 
Q 1159 1113 1420 752 
Q 1681 391 2138 391 
Q 2594 391 2855 752 
Q 3116 1113 3116 1747 
z
M 1159 2969 
Q 1341 3281 1617 3432 
Q 1894 3584 2278 3584 
Q 2916 3584 3314 3078 
Q 3713 2572 3713 1747 
Q 3713 922 3314 415 
Q 2916 -91 2278 -91 
Q 1894 -91 1617 61 
Q 1341 213 1159 525 
L 1159 0 
L 581 0 
L 581 4863 
L 1159 4863 
L 1159 2969 
z
" transform="scale(0.015625)"/>
       <path id="DejaVuSans-46" d="M 3122 3366 
L 3122 2828 
Q 2878 2963 2633 3030 
Q 2388 3097 2138 3097 
Q 1578 3097 1268 2742 
Q 959 2388 959 1747 
Q 959 1106 1268 751 
Q 1578 397 2138 397 
Q 2388 397 2633 464 
Q 2878 531 3122 666 
L 3122 134 
Q 2881 22 2623 -34 
Q 2366 -91 2075 -91 
Q 1284 -91 818 406 
Q 353 903 353 1747 
Q 353 2603 823 3093 
Q 1294 3584 2113 3584 
Q 2378 3584 2631 3529 
Q 2884 3475 3122 3366 
z
" transform="scale(0.015625)"/>
       <path id="DejaVuSans-c" d="M 513 4856 
L 1013 4856 
Q 1481 4119 1714 3412 
Q 1947 2706 1947 2009 
Q 1947 1309 1714 600 
Q 1481 -109 1013 -844 
L 513 -844 
Q 928 -128 1133 580 
Q 1338 1288 1338 2009 
Q 1338 2731 1133 3434 
Q 928 4138 513 4856 
z
" transform="scale(0.015625)"/>
      </defs>
      <use xlink:href="#DejaVuSans-329"/>
      <use xlink:href="#DejaVuSans-3" transform="translate(68.40625 0)"/>
      <use xlink:href="#DejaVuSans-44" transform="translate(100.1875 0)"/>
      <use xlink:href="#DejaVuSans-51" transform="translate(161.46875 0)"/>
      <use xlink:href="#DejaVuSans-56" transform="translate(224.84375 0)"/>
      <use xlink:href="#DejaVuSans-5a" transform="translate(276.9375 0)"/>
      <use xlink:href="#DejaVuSans-48" transform="translate(358.71875 0)"/>
      <use xlink:href="#DejaVuSans-55" transform="translate(420.25 0)"/>
      <use xlink:href="#DejaVuSans-3" transform="translate(461.359375 0)"/>
      <use xlink:href="#DejaVuSans-54" transform="translate(493.140625 0)"/>
      <use xlink:href="#DejaVuSans-58" transform="translate(556.625 0)"/>
      <use xlink:href="#DejaVuSans-44" transform="translate(620 0)"/>
      <use xlink:href="#DejaVuSans-4f" transform="translate(681.28125 0)"/>
      <use xlink:href="#DejaVuSans-4c" transform="translate(709.0625 0)"/>
      <use xlink:href="#DejaVuSans-57" transform="translate(736.84375 0)"/>
      <use xlink:href="#DejaVuSans-5c" transform="translate(776.046875 0)"/>
      <use xlink:href="#DejaVuSans-3" transform="translate(835.234375 0)"/>
      <use xlink:href="#DejaVuSans-b" transform="translate(867.015625 0)"/>
      <use xlink:href="#DejaVuSans-53" transform="translate(906.03125 0)"/>
      <use xlink:href="#DejaVuSans-52" transform="translate(969.515625 0)"/>
      <use xlink:href="#DejaVuSans-4c" transform="translate(1030.703125 0)"/>
      <use xlink:href="#DejaVuSans-51" transform="translate(1058.484375 0)"/>
      <use xlink:href="#DejaVuSans-57" transform="translate(1121.859375 0)"/>
      <use xlink:href="#DejaVuSans-56" transform="translate(1161.0625 0)"/>
      <use xlink:href="#DejaVuSans-3" transform="translate(1213.15625 0)"/>
      <use xlink:href="#DejaVuSans-52" transform="translate(1244.9375 0)"/>
      <use xlink:href="#DejaVuSans-51" transform="translate(1306.125 0)"/>
      <use xlink:href="#DejaVuSans-3" transform="translate(1369.5 0)"/>
      <use xlink:href="#DejaVuSans-14" transform="translate(1401.28125 0)"/>
      <use xlink:href="#DejaVuSans-af5" transform="translate(1464.90625 0)"/>
      <use xlink:href="#DejaVuSans-18" transform="translate(1514.90625 0)"/>
      <use xlink:href="#DejaVuSans-3" transform="translate(1578.53125 0)"/>
      <use xlink:href="#DejaVuSans-55" transform="translate(1610.3125 0)"/>
      <use xlink:href="#DejaVuSans-58" transform="translate(1651.421875 0)"/>
      <use xlink:href="#DejaVuSans-45" transform="translate(1714.796875 0)"/>
      <use xlink:href="#DejaVuSans-55" transform="translate(1778.28125 0)"/>
      <use xlink:href="#DejaVuSans-4c" transform="translate(1819.390625 0)"/>
      <use xlink:href="#DejaVuSans-46" transform="translate(1847.171875 0)"/>
      <use xlink:href="#DejaVuSans-c" transform="translate(1902.15625 0)"/>
     </g>
    </g>
   </g>
   <g id="matplotlib.axis_2">
    <g id="ytick_1">
     <g id="line2d_9">
      <defs>
       <path id="m5413538202" d="M 0 0 
L -3 0 
" style="stroke: #000000; stroke-width: 0.6"/>
      </defs>
      <g>
       <use xlink:href="#m5413538202" x="94.476199" y="96.458105" style="stroke: #000000; stroke-width: 0.6"/>
      </g>
     </g>
    </g>
    <g id="ytick_2">
     <g id="line2d_10">
      <g>
       <use xlink:href="#m5413538202" x="94.476199" y="165.445715" style="stroke: #000000; stroke-width: 0.6"/>
      </g>
     </g>
    </g>
    <g id="ytick_3">
     <g id="line2d_11">
      <g>
       <use xlink:href="#m5413538202" x="94.476199" y="234.433325" style="stroke: #000000; stroke-width: 0.6"/>
      </g>
     </g>
    </g>
   </g>
   <g id="PathCollection_1">
    <defs>
     <path id="m6fb951d093" d="M 0 4.873397 
C 1.29244 4.873397 2.532119 4.359905 3.446012 3.446012 
C 4.359905 2.532119 4.873397 1.29244 4.873397 0 
C 4.873397 -1.29244 4.359905 -2.532119 3.446012 -3.446012 
C 2.532119 -4.359905 1.29244 -4.873397 0 -4.873397 
C -1.29244 -4.873397 -2.532119 -4.359905 -3.446012 -3.446012 
C -4.359905 -2.532119 -4.873397 -1.29244 -4.873397 0 
C -4.873397 1.29244 -4.359905 2.532119 -3.446012 3.446012 
C -2.532119 4.359905 -1.29244 4.873397 0 4.873397 
z
" style="stroke: #000000"/>
    </defs>
    <g clip-path="url(#p1edd21cad4)">
     <use xlink:href="#m6fb951d093" x="242.553617" y="111.635379" style="fill: #e69f00; stroke: #000000"/>
    </g>
   </g>
   <g id="PathCollection_2">
    <g clip-path="url(#p1edd21cad4)">
     <use xlink:href="#m6fb951d093" x="247.520398" y="180.622989" style="fill: #e69f00; stroke: #000000"/>
    </g>
   </g>
   <g id="PathCollection_3">
    <g clip-path="url(#p1edd21cad4)">
     <use xlink:href="#m6fb951d093" x="242.216886" y="249.610599" style="fill: #e69f00; stroke: #000000"/>
    </g>
   </g>
   <g id="PathCollection_4">
    <defs>
     <path id="m50388a1f55" d="M 0 -4.873397 
L -4.873397 4.873397 
L 4.873397 4.873397 
z
" style="stroke: #000000"/>
    </defs>
    <g clip-path="url(#p1edd21cad4)">
     <use xlink:href="#m50388a1f55" x="250.214245" y="96.458105" style="fill: #e69f00; stroke: #000000"/>
    </g>
   </g>
   <g id="PathCollection_5">
    <g clip-path="url(#p1edd21cad4)">
     <use xlink:href="#m50388a1f55" x="292.305609" y="165.445715" style="fill: #e69f00; stroke: #000000"/>
    </g>
   </g>
   <g id="PathCollection_6">
    <g clip-path="url(#p1edd21cad4)">
     <use xlink:href="#m50388a1f55" x="292.305609" y="234.433325" style="fill: #e69f00; stroke: #000000"/>
    </g>
   </g>
   <g id="PathCollection_7">
    <defs>
     <path id="m228ba169d7" d="M -0 6.892024 
L 6.892024 0 
L 0 -6.892024 
L -6.892024 -0 
z
" style="stroke: #000000"/>
    </defs>
    <g clip-path="url(#p1edd21cad4)">
     <use xlink:href="#m228ba169d7" x="246.341839" y="81.280831" style="fill: #e69f00; stroke: #000000"/>
    </g>
   </g>
   <g id="PathCollection_8">
    <g clip-path="url(#p1edd21cad4)">
     <use xlink:href="#m228ba169d7" x="269.913003" y="150.268441" style="fill: #e69f00; stroke: #000000"/>
    </g>
   </g>
   <g id="PathCollection_9">
    <g clip-path="url(#p1edd21cad4)">
     <use xlink:href="#m228ba169d7" x="267.303339" y="219.256051" style="fill: #e69f00; stroke: #000000"/>
    </g>
   </g>
   <g id="text_9">
    <!-- A -->
    <g transform="translate(3.6 51.696871) scale(0.13 -0.13)">
     <defs>
      <path id="DejaVuSans-Bold-24" d="M 3419 850 
L 1538 850 
L 1241 0 
L 31 0 
L 1759 4666 
L 3194 4666 
L 4922 0 
L 3713 0 
L 3419 850 
z
M 1838 1716 
L 3116 1716 
L 2478 3572 
L 1838 1716 
z
" transform="scale(0.015625)"/>
     </defs>
     <use xlink:href="#DejaVuSans-Bold-24"/>
    </g>
   </g>
   <g id="text_10">
    <!-- all 9 marks &gt; 0 -->
    <g style="fill: #e69f00" transform="translate(283.931807 269.368691) scale(0.085 -0.085)">
     <defs>
      <path id="DejaVuSans-BoldOblique-44" d="M 2106 1575 
Q 1688 1575 1473 1445 
Q 1259 1316 1259 1063 
Q 1259 872 1386 762 
Q 1513 653 1734 653 
Q 2078 653 2309 861 
Q 2541 1069 2619 1447 
L 2644 1575 
L 2106 1575 
z
M 3853 1997 
L 3463 0 
L 2344 0 
L 2438 519 
Q 2163 206 1856 57 
Q 1550 -91 1191 -91 
Q 694 -91 401 167 
Q 109 425 109 863 
Q 109 1531 626 1886 
Q 1144 2241 2119 2241 
L 2778 2241 
L 2791 2328 
Q 2800 2372 2801 2390 
Q 2803 2409 2803 2425 
Q 2803 2631 2608 2736 
Q 2413 2841 2028 2841 
Q 1681 2841 1356 2769 
Q 1031 2697 728 2553 
L 897 3406 
Q 1247 3494 1614 3539 
Q 1981 3584 2375 3584 
Q 3153 3584 3531 3317 
Q 3909 3050 3909 2503 
Q 3909 2397 3895 2270 
Q 3881 2144 3853 1997 
z
" transform="scale(0.015625)"/>
      <path id="DejaVuSans-BoldOblique-4f" d="M 1141 4863 
L 2266 4863 
L 1319 0 
L 197 0 
L 1141 4863 
z
" transform="scale(0.015625)"/>
      <path id="DejaVuSans-BoldOblique-3" transform="scale(0.015625)"/>
      <path id="DejaVuSans-BoldOblique-1c" d="M 263 103 
L 428 966 
Q 700 825 953 758 
Q 1206 691 1459 691 
Q 2041 691 2400 1003 
Q 2759 1316 2834 1881 
Q 2594 1722 2337 1645 
Q 2081 1569 1791 1569 
Q 1219 1569 853 1909 
Q 488 2250 488 2778 
Q 488 3641 1052 4192 
Q 1616 4744 2503 4744 
Q 3300 4744 3736 4292 
Q 4172 3841 4172 3016 
Q 4172 2381 3978 1801 
Q 3784 1222 3431 800 
Q 3056 353 2548 128 
Q 2041 -97 1403 -97 
Q 1106 -97 825 -47 
Q 544 3 263 103 
z
M 2169 2344 
Q 2525 2344 2753 2637 
Q 2981 2931 2981 3391 
Q 2981 3675 2845 3828 
Q 2709 3981 2456 3981 
Q 2103 3981 1870 3690 
Q 1638 3400 1638 2963 
Q 1638 2663 1775 2503 
Q 1913 2344 2169 2344 
z
" transform="scale(0.015625)"/>
      <path id="DejaVuSans-BoldOblique-50" d="M 4013 2919 
Q 4272 3241 4601 3412 
Q 4931 3584 5288 3584 
Q 5756 3584 6026 3326 
Q 6297 3069 6297 2619 
Q 6297 2525 6283 2404 
Q 6269 2284 6241 2131 
L 5825 0 
L 4697 0 
L 5050 1825 
L 5059 1872 
Q 5141 2259 5141 2369 
Q 5141 2541 5042 2641 
Q 4944 2741 4775 2741 
Q 4453 2741 4229 2477 
Q 4006 2213 3909 1722 
L 3572 0 
L 2444 0 
L 2803 1825 
Q 2850 2059 2869 2179 
Q 2888 2300 2888 2369 
Q 2888 2544 2791 2642 
Q 2694 2741 2522 2741 
Q 2213 2741 1980 2467 
Q 1747 2194 1656 1722 
L 1319 0 
L 197 0 
L 878 3500 
L 2003 3500 
L 1900 2988 
Q 2163 3284 2459 3434 
Q 2756 3584 3078 3584 
Q 3441 3584 3700 3398 
Q 3959 3213 4013 2919 
z
" transform="scale(0.015625)"/>
      <path id="DejaVuSans-BoldOblique-55" d="M 3291 2547 
Q 3175 2613 3034 2647 
Q 2894 2681 2731 2681 
Q 2303 2681 2020 2406 
Q 1738 2131 1638 1613 
L 1319 0 
L 197 0 
L 878 3500 
L 2003 3500 
L 1881 2900 
Q 2103 3231 2436 3407 
Q 2769 3584 3175 3584 
Q 3234 3584 3309 3578 
Q 3384 3572 3488 3559 
L 3291 2547 
z
" transform="scale(0.015625)"/>
      <path id="DejaVuSans-BoldOblique-4e" d="M 1141 4863 
L 2266 4863 
L 1753 2228 
L 3263 3500 
L 4581 3500 
L 2547 1881 
L 4025 0 
L 2747 0 
L 1613 1509 
L 1319 0 
L 197 0 
L 1141 4863 
z
" transform="scale(0.015625)"/>
      <path id="DejaVuSans-BoldOblique-56" d="M 3584 3391 
L 3419 2522 
Q 3091 2678 2766 2759 
Q 2441 2841 2150 2841 
Q 1819 2841 1639 2755 
Q 1459 2669 1459 2509 
Q 1459 2416 1559 2359 
Q 1659 2303 1953 2241 
L 2156 2203 
Q 2834 2059 3106 1832 
Q 3378 1606 3378 1203 
Q 3378 594 2900 251 
Q 2422 -91 1563 -91 
Q 1203 -91 828 -34 
Q 453 22 63 134 
L 231 1013 
Q 534 834 879 743 
Q 1225 653 1588 653 
Q 1941 653 2119 737 
Q 2297 822 2297 984 
Q 2297 1097 2197 1159 
Q 2097 1222 1784 1288 
L 1581 1325 
Q 981 1450 725 1694 
Q 469 1938 469 2369 
Q 469 2953 911 3268 
Q 1353 3584 2175 3584 
Q 2534 3584 2882 3536 
Q 3231 3488 3584 3391 
z
" transform="scale(0.015625)"/>
      <path id="DejaVuSans-BoldOblique-21" d="M 678 3041 
L 678 3822 
L 4684 2375 
L 4684 1638 
L 678 191 
L 678 972 
L 3694 2003 
L 678 3041 
z
" transform="scale(0.015625)"/>
      <path id="DejaVuSans-BoldOblique-13" d="M 1913 728 
Q 2153 728 2339 872 
Q 2525 1016 2650 1294 
Q 2738 1491 2809 1742 
Q 2881 1994 2944 2338 
Q 2997 2616 3025 2850 
Q 3053 3084 3053 3250 
Q 3053 3600 2928 3764 
Q 2803 3928 2541 3928 
Q 2297 3928 2112 3789 
Q 1928 3650 1806 3366 
Q 1713 3163 1636 2903 
Q 1559 2644 1503 2338 
Q 1450 2056 1422 1815 
Q 1394 1575 1394 1409 
Q 1394 1063 1522 895 
Q 1650 728 1913 728 
z
M 4225 3072 
Q 4225 2450 4053 1862 
Q 3881 1275 3572 831 
Q 3256 375 2809 142 
Q 2363 -91 1813 -91 
Q 1047 -91 639 343 
Q 231 778 231 1594 
Q 231 2206 401 2795 
Q 572 3384 878 3822 
Q 1200 4281 1644 4515 
Q 2088 4750 2644 4750 
Q 3403 4750 3814 4314 
Q 4225 3878 4225 3072 
z
" transform="scale(0.015625)"/>
     </defs>
     <use xlink:href="#DejaVuSans-BoldOblique-44"/>
     <use xlink:href="#DejaVuSans-BoldOblique-4f" transform="translate(67.484375 0)"/>
     <use xlink:href="#DejaVuSans-BoldOblique-4f" transform="translate(101.765625 0)"/>
     <use xlink:href="#DejaVuSans-BoldOblique-3" transform="translate(136.046875 0)"/>
     <use xlink:href="#DejaVuSans-BoldOblique-1c" transform="translate(170.859375 0)"/>
     <use xlink:href="#DejaVuSans-BoldOblique-3" transform="translate(240.4375 0)"/>
     <use xlink:href="#DejaVuSans-BoldOblique-50" transform="translate(275.25 0)"/>
     <use xlink:href="#DejaVuSans-BoldOblique-44" transform="translate(379.453125 0)"/>
     <use xlink:href="#DejaVuSans-BoldOblique-55" transform="translate(446.9375 0)"/>
     <use xlink:href="#DejaVuSans-BoldOblique-4e" transform="translate(496.25 0)"/>
     <use xlink:href="#DejaVuSans-BoldOblique-56" transform="translate(562.75 0)"/>
     <use xlink:href="#DejaVuSans-BoldOblique-3" transform="translate(622.265625 0)"/>
     <use xlink:href="#DejaVuSans-BoldOblique-21" transform="translate(657.078125 0)"/>
     <use xlink:href="#DejaVuSans-BoldOblique-3" transform="translate(740.875 0)"/>
     <use xlink:href="#DejaVuSans-BoldOblique-13" transform="translate(775.6875 0)"/>
    </g>
   </g>
   <g id="text_11">
    <!-- Primary endpoint:  v8 − v7 -->
    <g transform="translate(94.476199 49.065539) scale(0.105 -0.105)">
     <defs>
      <path id="DejaVuSans-Bold-33" d="M 588 4666 
L 2584 4666 
Q 3475 4666 3951 4270 
Q 4428 3875 4428 3144 
Q 4428 2409 3951 2014 
Q 3475 1619 2584 1619 
L 1791 1619 
L 1791 0 
L 588 0 
L 588 4666 
z
M 1791 3794 
L 1791 2491 
L 2456 2491 
Q 2806 2491 2997 2661 
Q 3188 2831 3188 3144 
Q 3188 3456 2997 3625 
Q 2806 3794 2456 3794 
L 1791 3794 
z
" transform="scale(0.015625)"/>
      <path id="DejaVuSans-Bold-55" d="M 3138 2547 
Q 2991 2616 2845 2648 
Q 2700 2681 2553 2681 
Q 2122 2681 1889 2404 
Q 1656 2128 1656 1613 
L 1656 0 
L 538 0 
L 538 3500 
L 1656 3500 
L 1656 2925 
Q 1872 3269 2151 3426 
Q 2431 3584 2822 3584 
Q 2878 3584 2943 3579 
Q 3009 3575 3134 3559 
L 3138 2547 
z
" transform="scale(0.015625)"/>
      <path id="DejaVuSans-Bold-4c" d="M 538 3500 
L 1656 3500 
L 1656 0 
L 538 0 
L 538 3500 
z
M 538 4863 
L 1656 4863 
L 1656 3950 
L 538 3950 
L 538 4863 
z
" transform="scale(0.015625)"/>
      <path id="DejaVuSans-Bold-50" d="M 3781 2919 
Q 3994 3244 4286 3414 
Q 4578 3584 4928 3584 
Q 5531 3584 5847 3212 
Q 6163 2841 6163 2131 
L 6163 0 
L 5038 0 
L 5038 1825 
Q 5041 1866 5042 1909 
Q 5044 1953 5044 2034 
Q 5044 2406 4934 2573 
Q 4825 2741 4581 2741 
Q 4263 2741 4089 2478 
Q 3916 2216 3909 1719 
L 3909 0 
L 2784 0 
L 2784 1825 
Q 2784 2406 2684 2573 
Q 2584 2741 2328 2741 
Q 2006 2741 1831 2477 
Q 1656 2213 1656 1722 
L 1656 0 
L 531 0 
L 531 3500 
L 1656 3500 
L 1656 2988 
Q 1863 3284 2130 3434 
Q 2397 3584 2719 3584 
Q 3081 3584 3359 3409 
Q 3638 3234 3781 2919 
z
" transform="scale(0.015625)"/>
      <path id="DejaVuSans-Bold-44" d="M 2106 1575 
Q 1756 1575 1579 1456 
Q 1403 1338 1403 1106 
Q 1403 894 1545 773 
Q 1688 653 1941 653 
Q 2256 653 2472 879 
Q 2688 1106 2688 1447 
L 2688 1575 
L 2106 1575 
z
M 3816 1997 
L 3816 0 
L 2688 0 
L 2688 519 
Q 2463 200 2181 54 
Q 1900 -91 1497 -91 
Q 953 -91 614 226 
Q 275 544 275 1050 
Q 275 1666 698 1953 
Q 1122 2241 2028 2241 
L 2688 2241 
L 2688 2328 
Q 2688 2594 2478 2717 
Q 2269 2841 1825 2841 
Q 1466 2841 1156 2769 
Q 847 2697 581 2553 
L 581 3406 
Q 941 3494 1303 3539 
Q 1666 3584 2028 3584 
Q 2975 3584 3395 3211 
Q 3816 2838 3816 1997 
z
" transform="scale(0.015625)"/>
      <path id="DejaVuSans-Bold-5c" d="M 78 3500 
L 1197 3500 
L 2138 1125 
L 2938 3500 
L 4056 3500 
L 2584 -331 
Q 2363 -916 2067 -1148 
Q 1772 -1381 1288 -1381 
L 641 -1381 
L 641 -647 
L 991 -647 
Q 1275 -647 1404 -556 
Q 1534 -466 1606 -231 
L 1638 -134 
L 78 3500 
z
" transform="scale(0.015625)"/>
      <path id="DejaVuSans-Bold-3" transform="scale(0.015625)"/>
      <path id="DejaVuSans-Bold-48" d="M 4031 1759 
L 4031 1441 
L 1416 1441 
Q 1456 1047 1700 850 
Q 1944 653 2381 653 
Q 2734 653 3104 758 
Q 3475 863 3866 1075 
L 3866 213 
Q 3469 63 3072 -14 
Q 2675 -91 2278 -91 
Q 1328 -91 801 392 
Q 275 875 275 1747 
Q 275 2603 792 3093 
Q 1309 3584 2216 3584 
Q 3041 3584 3536 3087 
Q 4031 2591 4031 1759 
z
M 2881 2131 
Q 2881 2450 2695 2645 
Q 2509 2841 2209 2841 
Q 1884 2841 1681 2658 
Q 1478 2475 1428 2131 
L 2881 2131 
z
" transform="scale(0.015625)"/>
      <path id="DejaVuSans-Bold-51" d="M 4056 2131 
L 4056 0 
L 2931 0 
L 2931 347 
L 2931 1631 
Q 2931 2084 2911 2256 
Q 2891 2428 2841 2509 
Q 2775 2619 2662 2680 
Q 2550 2741 2406 2741 
Q 2056 2741 1856 2470 
Q 1656 2200 1656 1722 
L 1656 0 
L 538 0 
L 538 3500 
L 1656 3500 
L 1656 2988 
Q 1909 3294 2193 3439 
Q 2478 3584 2822 3584 
Q 3428 3584 3742 3212 
Q 4056 2841 4056 2131 
z
" transform="scale(0.015625)"/>
      <path id="DejaVuSans-Bold-47" d="M 2919 2988 
L 2919 4863 
L 4044 4863 
L 4044 0 
L 2919 0 
L 2919 506 
Q 2688 197 2409 53 
Q 2131 -91 1766 -91 
Q 1119 -91 703 423 
Q 288 938 288 1747 
Q 288 2556 703 3070 
Q 1119 3584 1766 3584 
Q 2128 3584 2408 3439 
Q 2688 3294 2919 2988 
z
M 2181 722 
Q 2541 722 2730 984 
Q 2919 1247 2919 1747 
Q 2919 2247 2730 2509 
Q 2541 2772 2181 2772 
Q 1825 2772 1636 2509 
Q 1447 2247 1447 1747 
Q 1447 1247 1636 984 
Q 1825 722 2181 722 
z
" transform="scale(0.015625)"/>
      <path id="DejaVuSans-Bold-53" d="M 1656 506 
L 1656 -1331 
L 538 -1331 
L 538 3500 
L 1656 3500 
L 1656 2988 
Q 1888 3294 2169 3439 
Q 2450 3584 2816 3584 
Q 3463 3584 3878 3070 
Q 4294 2556 4294 1747 
Q 4294 938 3878 423 
Q 3463 -91 2816 -91 
Q 2450 -91 2169 54 
Q 1888 200 1656 506 
z
M 2400 2772 
Q 2041 2772 1848 2508 
Q 1656 2244 1656 1747 
Q 1656 1250 1848 986 
Q 2041 722 2400 722 
Q 2759 722 2948 984 
Q 3138 1247 3138 1747 
Q 3138 2247 2948 2509 
Q 2759 2772 2400 2772 
z
" transform="scale(0.015625)"/>
      <path id="DejaVuSans-Bold-52" d="M 2203 2784 
Q 1831 2784 1636 2517 
Q 1441 2250 1441 1747 
Q 1441 1244 1636 976 
Q 1831 709 2203 709 
Q 2569 709 2762 976 
Q 2956 1244 2956 1747 
Q 2956 2250 2762 2517 
Q 2569 2784 2203 2784 
z
M 2203 3584 
Q 3106 3584 3614 3096 
Q 4122 2609 4122 1747 
Q 4122 884 3614 396 
Q 3106 -91 2203 -91 
Q 1297 -91 786 396 
Q 275 884 275 1747 
Q 275 2609 786 3096 
Q 1297 3584 2203 3584 
z
" transform="scale(0.015625)"/>
      <path id="DejaVuSans-Bold-57" d="M 1759 4494 
L 1759 3500 
L 2913 3500 
L 2913 2700 
L 1759 2700 
L 1759 1216 
Q 1759 972 1856 886 
Q 1953 800 2241 800 
L 2816 800 
L 2816 0 
L 1856 0 
Q 1194 0 917 276 
Q 641 553 641 1216 
L 641 2700 
L 84 2700 
L 84 3500 
L 641 3500 
L 641 4494 
L 1759 4494 
z
" transform="scale(0.015625)"/>
      <path id="DejaVuSans-Bold-1d" d="M 716 3500 
L 1844 3500 
L 1844 2291 
L 716 2291 
L 716 3500 
z
M 716 1209 
L 1844 1209 
L 1844 0 
L 716 0 
L 716 1209 
z
" transform="scale(0.015625)"/>
      <path id="DejaVuSans-Bold-59" d="M 97 3500 
L 1216 3500 
L 2088 1081 
L 2956 3500 
L 4078 3500 
L 2700 0 
L 1472 0 
L 97 3500 
z
" transform="scale(0.015625)"/>
      <path id="DejaVuSans-Bold-1b" d="M 2228 2088 
Q 1891 2088 1709 1903 
Q 1528 1719 1528 1375 
Q 1528 1031 1709 848 
Q 1891 666 2228 666 
Q 2563 666 2741 848 
Q 2919 1031 2919 1375 
Q 2919 1722 2741 1905 
Q 2563 2088 2228 2088 
z
M 1350 2484 
Q 925 2613 709 2878 
Q 494 3144 494 3541 
Q 494 4131 934 4440 
Q 1375 4750 2228 4750 
Q 3075 4750 3515 4442 
Q 3956 4134 3956 3541 
Q 3956 3144 3739 2878 
Q 3522 2613 3097 2484 
Q 3572 2353 3814 2058 
Q 4056 1763 4056 1313 
Q 4056 619 3595 264 
Q 3134 -91 2228 -91 
Q 1319 -91 855 264 
Q 391 619 391 1313 
Q 391 1763 633 2058 
Q 875 2353 1350 2484 
z
M 1631 3419 
Q 1631 3141 1786 2991 
Q 1941 2841 2228 2841 
Q 2509 2841 2662 2991 
Q 2816 3141 2816 3419 
Q 2816 3697 2662 3845 
Q 2509 3994 2228 3994 
Q 1941 3994 1786 3844 
Q 1631 3694 1631 3419 
z
" transform="scale(0.015625)"/>
      <path id="DejaVuSans-Bold-c9c" d="M 678 2375 
L 4684 2375 
L 4684 1638 
L 678 1638 
L 678 2375 
z
" transform="scale(0.015625)"/>
      <path id="DejaVuSans-Bold-1a" d="M 428 4666 
L 3944 4666 
L 3944 3988 
L 2125 0 
L 953 0 
L 2675 3781 
L 428 3781 
L 428 4666 
z
" transform="scale(0.015625)"/>
     </defs>
     <use xlink:href="#DejaVuSans-Bold-33"/>
     <use xlink:href="#DejaVuSans-Bold-55" transform="translate(73.296875 0)"/>
     <use xlink:href="#DejaVuSans-Bold-4c" transform="translate(122.609375 0)"/>
     <use xlink:href="#DejaVuSans-Bold-50" transform="translate(156.890625 0)"/>
     <use xlink:href="#DejaVuSans-Bold-44" transform="translate(261.09375 0)"/>
     <use xlink:href="#DejaVuSans-Bold-55" transform="translate(328.578125 0)"/>
     <use xlink:href="#DejaVuSans-Bold-5c" transform="translate(377.890625 0)"/>
     <use xlink:href="#DejaVuSans-Bold-3" transform="translate(443.078125 0)"/>
     <use xlink:href="#DejaVuSans-Bold-48" transform="translate(477.890625 0)"/>
     <use xlink:href="#DejaVuSans-Bold-51" transform="translate(545.71875 0)"/>
     <use xlink:href="#DejaVuSans-Bold-47" transform="translate(616.90625 0)"/>
     <use xlink:href="#DejaVuSans-Bold-53" transform="translate(688.484375 0)"/>
     <use xlink:href="#DejaVuSans-Bold-52" transform="translate(760.0625 0)"/>
     <use xlink:href="#DejaVuSans-Bold-4c" transform="translate(828.765625 0)"/>
     <use xlink:href="#DejaVuSans-Bold-51" transform="translate(863.046875 0)"/>
     <use xlink:href="#DejaVuSans-Bold-57" transform="translate(934.234375 0)"/>
     <use xlink:href="#DejaVuSans-Bold-1d" transform="translate(982.03125 0)"/>
     <use xlink:href="#DejaVuSans-Bold-3" transform="translate(1022.015625 0)"/>
     <use xlink:href="#DejaVuSans-Bold-3" transform="translate(1056.828125 0)"/>
     <use xlink:href="#DejaVuSans-Bold-59" transform="translate(1091.640625 0)"/>
     <use xlink:href="#DejaVuSans-Bold-1b" transform="translate(1156.828125 0)"/>
     <use xlink:href="#DejaVuSans-Bold-3" transform="translate(1226.40625 0)"/>
     <use xlink:href="#DejaVuSans-Bold-c9c" transform="translate(1261.21875 0)"/>
     <use xlink:href="#DejaVuSans-Bold-3" transform="translate(1345.015625 0)"/>
     <use xlink:href="#DejaVuSans-Bold-59" transform="translate(1379.828125 0)"/>
     <use xlink:href="#DejaVuSans-Bold-1a" transform="translate(1445.015625 0)"/>
    </g>
   </g>
   <g id="legend_1">
    <g id="text_12">
     <!-- scorer stream (shape) -->
     <g transform="translate(107.691434 67.514367) scale(0.075 -0.075)">
      <defs>
       <path id="DejaVuSans-50" d="M 3328 2828 
Q 3544 3216 3844 3400 
Q 4144 3584 4550 3584 
Q 5097 3584 5394 3201 
Q 5691 2819 5691 2113 
L 5691 0 
L 5113 0 
L 5113 2094 
Q 5113 2597 4934 2840 
Q 4756 3084 4391 3084 
Q 3944 3084 3684 2787 
Q 3425 2491 3425 1978 
L 3425 0 
L 2847 0 
L 2847 2094 
Q 2847 2600 2669 2842 
Q 2491 3084 2119 3084 
Q 1678 3084 1418 2786 
Q 1159 2488 1159 1978 
L 1159 0 
L 581 0 
L 581 3500 
L 1159 3500 
L 1159 2956 
Q 1356 3278 1631 3431 
Q 1906 3584 2284 3584 
Q 2666 3584 2933 3390 
Q 3200 3197 3328 2828 
z
" transform="scale(0.015625)"/>
       <path id="DejaVuSans-4b" d="M 3513 2113 
L 3513 0 
L 2938 0 
L 2938 2094 
Q 2938 2591 2744 2837 
Q 2550 3084 2163 3084 
Q 1697 3084 1428 2787 
Q 1159 2491 1159 1978 
L 1159 0 
L 581 0 
L 581 4863 
L 1159 4863 
L 1159 2956 
Q 1366 3272 1645 3428 
Q 1925 3584 2291 3584 
Q 2894 3584 3203 3211 
Q 3513 2838 3513 2113 
z
" transform="scale(0.015625)"/>
      </defs>
      <use xlink:href="#DejaVuSans-56"/>
      <use xlink:href="#DejaVuSans-46" transform="translate(52.09375 0)"/>
      <use xlink:href="#DejaVuSans-52" transform="translate(107.078125 0)"/>
      <use xlink:href="#DejaVuSans-55" transform="translate(168.265625 0)"/>
      <use xlink:href="#DejaVuSans-48" transform="translate(207.171875 0)"/>
      <use xlink:href="#DejaVuSans-55" transform="translate(268.703125 0)"/>
      <use xlink:href="#DejaVuSans-3" transform="translate(309.8125 0)"/>
      <use xlink:href="#DejaVuSans-56" transform="translate(341.59375 0)"/>
      <use xlink:href="#DejaVuSans-57" transform="translate(393.6875 0)"/>
      <use xlink:href="#DejaVuSans-55" transform="translate(432.890625 0)"/>
      <use xlink:href="#DejaVuSans-48" transform="translate(471.796875 0)"/>
      <use xlink:href="#DejaVuSans-44" transform="translate(533.328125 0)"/>
      <use xlink:href="#DejaVuSans-50" transform="translate(594.609375 0)"/>
      <use xlink:href="#DejaVuSans-3" transform="translate(692.015625 0)"/>
      <use xlink:href="#DejaVuSans-b" transform="translate(723.796875 0)"/>
      <use xlink:href="#DejaVuSans-56" transform="translate(762.8125 0)"/>
      <use xlink:href="#DejaVuSans-4b" transform="translate(814.90625 0)"/>
      <use xlink:href="#DejaVuSans-44" transform="translate(878.28125 0)"/>
      <use xlink:href="#DejaVuSans-53" transform="translate(939.5625 0)"/>
      <use xlink:href="#DejaVuSans-48" transform="translate(1003.046875 0)"/>
      <use xlink:href="#DejaVuSans-c" transform="translate(1064.578125 0)"/>
     </g>
    </g>
    <g id="line2d_12">
     <defs>
      <path id="mf532f10e5c" d="M 0 4.5 
C 1.193414 4.5 2.338109 4.025852 3.181981 3.181981 
C 4.025852 2.338109 4.5 1.193414 4.5 0 
C 4.5 -1.193414 4.025852 -2.338109 3.181981 -3.181981 
C 2.338109 -4.025852 1.193414 -4.5 0 -4.5 
C -1.193414 -4.5 -2.338109 -4.025852 -3.181981 -3.181981 
C -4.025852 -2.338109 -4.5 -1.193414 -4.5 0 
C -4.5 1.193414 -4.025852 2.338109 -3.181981 3.181981 
C -2.338109 4.025852 -1.193414 4.5 0 4.5 
z
" style="stroke: #000000"/>
     </defs>
     <g>
      <use xlink:href="#mf532f10e5c" x="108.726199" y="76.139953" style="fill: #999999; stroke: #000000"/>
     </g>
    </g>
    <g id="text_13">
     <!-- CS-harness panel -->
     <g transform="translate(122.226199 78.764953) scale(0.075 -0.075)">
      <defs>
       <path id="DejaVuSans-26" d="M 4122 4306 
L 4122 3641 
Q 3803 3938 3442 4084 
Q 3081 4231 2675 4231 
Q 1875 4231 1450 3742 
Q 1025 3253 1025 2328 
Q 1025 1406 1450 917 
Q 1875 428 2675 428 
Q 3081 428 3442 575 
Q 3803 722 4122 1019 
L 4122 359 
Q 3791 134 3420 21 
Q 3050 -91 2638 -91 
Q 1578 -91 968 557 
Q 359 1206 359 2328 
Q 359 3453 968 4101 
Q 1578 4750 2638 4750 
Q 3056 4750 3426 4639 
Q 3797 4528 4122 4306 
z
" transform="scale(0.015625)"/>
       <path id="DejaVuSans-36" d="M 3425 4513 
L 3425 3897 
Q 3066 4069 2747 4153 
Q 2428 4238 2131 4238 
Q 1616 4238 1336 4038 
Q 1056 3838 1056 3469 
Q 1056 3159 1242 3001 
Q 1428 2844 1947 2747 
L 2328 2669 
Q 3034 2534 3370 2195 
Q 3706 1856 3706 1288 
Q 3706 609 3251 259 
Q 2797 -91 1919 -91 
Q 1588 -91 1214 -16 
Q 841 59 441 206 
L 441 856 
Q 825 641 1194 531 
Q 1563 422 1919 422 
Q 2459 422 2753 634 
Q 3047 847 3047 1241 
Q 3047 1584 2836 1778 
Q 2625 1972 2144 2069 
L 1759 2144 
Q 1053 2284 737 2584 
Q 422 2884 422 3419 
Q 422 4038 858 4394 
Q 1294 4750 2059 4750 
Q 2388 4750 2728 4690 
Q 3069 4631 3425 4513 
z
" transform="scale(0.015625)"/>
       <path id="DejaVuSans-10" d="M 313 2009 
L 1997 2009 
L 1997 1497 
L 313 1497 
L 313 2009 
z
" transform="scale(0.015625)"/>
      </defs>
      <use xlink:href="#DejaVuSans-26"/>
      <use xlink:href="#DejaVuSans-36" transform="translate(69.828125 0)"/>
      <use xlink:href="#DejaVuSans-10" transform="translate(133.3125 0)"/>
      <use xlink:href="#DejaVuSans-4b" transform="translate(169.390625 0)"/>
      <use xlink:href="#DejaVuSans-44" transform="translate(232.765625 0)"/>
      <use xlink:href="#DejaVuSans-55" transform="translate(294.046875 0)"/>
      <use xlink:href="#DejaVuSans-51" transform="translate(333.40625 0)"/>
      <use xlink:href="#DejaVuSans-48" transform="translate(396.78125 0)"/>
      <use xlink:href="#DejaVuSans-56" transform="translate(458.3125 0)"/>
      <use xlink:href="#DejaVuSans-56" transform="translate(510.40625 0)"/>
      <use xlink:href="#DejaVuSans-3" transform="translate(562.5 0)"/>
      <use xlink:href="#DejaVuSans-53" transform="translate(594.28125 0)"/>
      <use xlink:href="#DejaVuSans-44" transform="translate(657.765625 0)"/>
      <use xlink:href="#DejaVuSans-51" transform="translate(719.046875 0)"/>
      <use xlink:href="#DejaVuSans-48" transform="translate(782.421875 0)"/>
      <use xlink:href="#DejaVuSans-4f" transform="translate(843.953125 0)"/>
     </g>
    </g>
    <g id="line2d_13">
     <defs>
      <path id="me86c211b56" d="M 0 -4.5 
L -4.5 4.5 
L 4.5 4.5 
z
" style="stroke: #000000; stroke-linejoin: miter"/>
     </defs>
     <g>
      <use xlink:href="#me86c211b56" x="108.726199" y="87.390539" style="fill: #999999; stroke: #000000; stroke-linejoin: miter"/>
     </g>
    </g>
    <g id="text_14">
     <!-- Human expert -->
     <g transform="translate(122.226199 90.015539) scale(0.075 -0.075)">
      <defs>
       <path id="DejaVuSans-2b" d="M 628 4666 
L 1259 4666 
L 1259 2753 
L 3553 2753 
L 3553 4666 
L 4184 4666 
L 4184 0 
L 3553 0 
L 3553 2222 
L 1259 2222 
L 1259 0 
L 628 0 
L 628 4666 
z
" transform="scale(0.015625)"/>
       <path id="DejaVuSans-5b" d="M 3513 3500 
L 2247 1797 
L 3578 0 
L 2900 0 
L 1881 1375 
L 863 0 
L 184 0 
L 1544 1831 
L 300 3500 
L 978 3500 
L 1906 2253 
L 2834 3500 
L 3513 3500 
z
" transform="scale(0.015625)"/>
      </defs>
      <use xlink:href="#DejaVuSans-2b"/>
      <use xlink:href="#DejaVuSans-58" transform="translate(75.203125 0)"/>
      <use xlink:href="#DejaVuSans-50" transform="translate(138.578125 0)"/>
      <use xlink:href="#DejaVuSans-44" transform="translate(235.984375 0)"/>
      <use xlink:href="#DejaVuSans-51" transform="translate(297.265625 0)"/>
      <use xlink:href="#DejaVuSans-3" transform="translate(360.640625 0)"/>
      <use xlink:href="#DejaVuSans-48" transform="translate(392.421875 0)"/>
      <use xlink:href="#DejaVuSans-5b" transform="translate(452.203125 0)"/>
      <use xlink:href="#DejaVuSans-53" transform="translate(511.390625 0)"/>
      <use xlink:href="#DejaVuSans-48" transform="translate(574.875 0)"/>
      <use xlink:href="#DejaVuSans-55" transform="translate(636.40625 0)"/>
      <use xlink:href="#DejaVuSans-57" transform="translate(677.515625 0)"/>
     </g>
    </g>
    <g id="line2d_14">
     <defs>
      <path id="m5986af0ab1" d="M -0 5.656854 
L 5.656854 0 
L 0 -5.656854 
L -5.656854 -0 
z
" style="stroke: #000000; stroke-linejoin: miter"/>
     </defs>
     <g>
      <use xlink:href="#m5986af0ab1" x="108.726199" y="98.641125" style="fill: #999999; stroke: #000000; stroke-linejoin: miter"/>
     </g>
    </g>
    <g id="text_15">
     <!-- Combined (derived) -->
     <g transform="translate(122.226199 101.266125) scale(0.075 -0.075)">
      <defs>
       <path id="DejaVuSans-47" d="M 2906 2969 
L 2906 4863 
L 3481 4863 
L 3481 0 
L 2906 0 
L 2906 525 
Q 2725 213 2448 61 
Q 2172 -91 1784 -91 
Q 1150 -91 751 415 
Q 353 922 353 1747 
Q 353 2572 751 3078 
Q 1150 3584 1784 3584 
Q 2172 3584 2448 3432 
Q 2725 3281 2906 2969 
z
M 947 1747 
Q 947 1113 1208 752 
Q 1469 391 1925 391 
Q 2381 391 2643 752 
Q 2906 1113 2906 1747 
Q 2906 2381 2643 2742 
Q 2381 3103 1925 3103 
Q 1469 3103 1208 2742 
Q 947 2381 947 1747 
z
" transform="scale(0.015625)"/>
       <path id="DejaVuSans-59" d="M 191 3500 
L 800 3500 
L 1894 563 
L 2988 3500 
L 3597 3500 
L 2284 0 
L 1503 0 
L 191 3500 
z
" transform="scale(0.015625)"/>
      </defs>
      <use xlink:href="#DejaVuSans-26"/>
      <use xlink:href="#DejaVuSans-52" transform="translate(69.828125 0)"/>
      <use xlink:href="#DejaVuSans-50" transform="translate(131.015625 0)"/>
      <use xlink:href="#DejaVuSans-45" transform="translate(228.421875 0)"/>
      <use xlink:href="#DejaVuSans-4c" transform="translate(291.90625 0)"/>
      <use xlink:href="#DejaVuSans-51" transform="translate(319.6875 0)"/>
      <use xlink:href="#DejaVuSans-48" transform="translate(383.0625 0)"/>
      <use xlink:href="#DejaVuSans-47" transform="translate(444.59375 0)"/>
      <use xlink:href="#DejaVuSans-3" transform="translate(508.078125 0)"/>
      <use xlink:href="#DejaVuSans-b" transform="translate(539.859375 0)"/>
      <use xlink:href="#DejaVuSans-47" transform="translate(578.875 0)"/>
      <use xlink:href="#DejaVuSans-48" transform="translate(642.359375 0)"/>
      <use xlink:href="#DejaVuSans-55" transform="translate(703.890625 0)"/>
      <use xlink:href="#DejaVuSans-4c" transform="translate(745 0)"/>
      <use xlink:href="#DejaVuSans-59" transform="translate(772.78125 0)"/>
      <use xlink:href="#DejaVuSans-48" transform="translate(831.96875 0)"/>
      <use xlink:href="#DejaVuSans-47" transform="translate(893.5 0)"/>
      <use xlink:href="#DejaVuSans-c" transform="translate(956.984375 0)"/>
     </g>
    </g>
   </g>
  </g>
  <g id="axes_2">
   <g id="patch_3">
    <path d="M 387.967836 275.825891 
L 657.352563 275.825891 
L 657.352563 55.065539 
L 387.967836 55.065539 
z
" style="fill: #ffffff"/>
   </g>
   <g id="line2d_15">
    <path d="M 522.660199 275.825891 
L 522.660199 55.065539 
" clip-path="url(#p2821407436)" style="fill: none; stroke: #333333; stroke-linecap: square"/>
   </g>
   <g id="matplotlib.axis_3">
    <g id="xtick_8">
     <g id="line2d_16">
      <g>
       <use xlink:href="#m4ad5c7b1c3" x="396.386109" y="275.825891" style="stroke: #000000; stroke-width: 0.6"/>
      </g>
     </g>
     <g id="text_16">
      <!-- −1.5 -->
      <g transform="translate(387.887124 287.64425) scale(0.07 -0.07)">
       <use xlink:href="#DejaVuSans-c9c"/>
       <use xlink:href="#DejaVuSans-14" transform="translate(83.796875 0)"/>
       <use xlink:href="#DejaVuSans-11" transform="translate(147.421875 0)"/>
       <use xlink:href="#DejaVuSans-18" transform="translate(179.203125 0)"/>
      </g>
     </g>
    </g>
    <g id="xtick_9">
     <g id="line2d_17">
      <g>
       <use xlink:href="#m4ad5c7b1c3" x="438.477472" y="275.825891" style="stroke: #000000; stroke-width: 0.6"/>
      </g>
     </g>
     <g id="text_17">
      <!-- −1.0 -->
      <g transform="translate(429.978488 287.64425) scale(0.07 -0.07)">
       <use xlink:href="#DejaVuSans-c9c"/>
       <use xlink:href="#DejaVuSans-14" transform="translate(83.796875 0)"/>
       <use xlink:href="#DejaVuSans-11" transform="translate(147.421875 0)"/>
       <use xlink:href="#DejaVuSans-13" transform="translate(179.203125 0)"/>
      </g>
     </g>
    </g>
    <g id="xtick_10">
     <g id="line2d_18">
      <g>
       <use xlink:href="#m4ad5c7b1c3" x="480.568836" y="275.825891" style="stroke: #000000; stroke-width: 0.6"/>
      </g>
     </g>
     <g id="text_18">
      <!-- −0.5 -->
      <g transform="translate(472.069851 287.64425) scale(0.07 -0.07)">
       <use xlink:href="#DejaVuSans-c9c"/>
       <use xlink:href="#DejaVuSans-13" transform="translate(83.796875 0)"/>
       <use xlink:href="#DejaVuSans-11" transform="translate(147.421875 0)"/>
       <use xlink:href="#DejaVuSans-18" transform="translate(179.203125 0)"/>
      </g>
     </g>
    </g>
    <g id="xtick_11">
     <g id="line2d_19">
      <g>
       <use xlink:href="#m4ad5c7b1c3" x="522.660199" y="275.825891" style="stroke: #000000; stroke-width: 0.6"/>
      </g>
     </g>
     <g id="text_19">
      <!-- 0.0 -->
      <g transform="translate(517.094106 287.64425) scale(0.07 -0.07)">
       <use xlink:href="#DejaVuSans-13"/>
       <use xlink:href="#DejaVuSans-11" transform="translate(63.625 0)"/>
       <use xlink:href="#DejaVuSans-13" transform="translate(95.40625 0)"/>
      </g>
     </g>
    </g>
    <g id="xtick_12">
     <g id="line2d_20">
      <g>
       <use xlink:href="#m4ad5c7b1c3" x="564.751563" y="275.825891" style="stroke: #000000; stroke-width: 0.6"/>
      </g>
     </g>
     <g id="text_20">
      <!-- 0.5 -->
      <g transform="translate(559.185469 287.64425) scale(0.07 -0.07)">
       <use xlink:href="#DejaVuSans-13"/>
       <use xlink:href="#DejaVuSans-11" transform="translate(63.625 0)"/>
       <use xlink:href="#DejaVuSans-18" transform="translate(95.40625 0)"/>
      </g>
     </g>
    </g>
    <g id="xtick_13">
     <g id="line2d_21">
      <g>
       <use xlink:href="#m4ad5c7b1c3" x="606.842927" y="275.825891" style="stroke: #000000; stroke-width: 0.6"/>
      </g>
     </g>
     <g id="text_21">
      <!-- 1.0 -->
      <g transform="translate(601.276833 287.64425) scale(0.07 -0.07)">
       <use xlink:href="#DejaVuSans-14"/>
       <use xlink:href="#DejaVuSans-11" transform="translate(63.625 0)"/>
       <use xlink:href="#DejaVuSans-13" transform="translate(95.40625 0)"/>
      </g>
     </g>
    </g>
    <g id="xtick_14">
     <g id="line2d_22">
      <g>
       <use xlink:href="#m4ad5c7b1c3" x="648.93429" y="275.825891" style="stroke: #000000; stroke-width: 0.6"/>
      </g>
     </g>
     <g id="text_22">
      <!-- 1.5 -->
      <g transform="translate(643.368197 287.64425) scale(0.07 -0.07)">
       <use xlink:href="#DejaVuSans-14"/>
       <use xlink:href="#DejaVuSans-11" transform="translate(63.625 0)"/>
       <use xlink:href="#DejaVuSans-18" transform="translate(95.40625 0)"/>
      </g>
     </g>
    </g>
    <g id="text_23">
     <!-- Δ answer quality (points on 1–5 rubric) -->
     <g transform="translate(435.307465 300.164484) scale(0.09 -0.09)">
      <use xlink:href="#DejaVuSans-329"/>
      <use xlink:href="#DejaVuSans-3" transform="translate(68.40625 0)"/>
      <use xlink:href="#DejaVuSans-44" transform="translate(100.1875 0)"/>
      <use xlink:href="#DejaVuSans-51" transform="translate(161.46875 0)"/>
      <use xlink:href="#DejaVuSans-56" transform="translate(224.84375 0)"/>
      <use xlink:href="#DejaVuSans-5a" transform="translate(276.9375 0)"/>
      <use xlink:href="#DejaVuSans-48" transform="translate(358.71875 0)"/>
      <use xlink:href="#DejaVuSans-55" transform="translate(420.25 0)"/>
      <use xlink:href="#DejaVuSans-3" transform="translate(461.359375 0)"/>
      <use xlink:href="#DejaVuSans-54" transform="translate(493.140625 0)"/>
      <use xlink:href="#DejaVuSans-58" transform="translate(556.625 0)"/>
      <use xlink:href="#DejaVuSans-44" transform="translate(620 0)"/>
      <use xlink:href="#DejaVuSans-4f" transform="translate(681.28125 0)"/>
      <use xlink:href="#DejaVuSans-4c" transform="translate(709.0625 0)"/>
      <use xlink:href="#DejaVuSans-57" transform="translate(736.84375 0)"/>
      <use xlink:href="#DejaVuSans-5c" transform="translate(776.046875 0)"/>
      <use xlink:href="#DejaVuSans-3" transform="translate(835.234375 0)"/>
      <use xlink:href="#DejaVuSans-b" transform="translate(867.015625 0)"/>
      <use xlink:href="#DejaVuSans-53" transform="translate(906.03125 0)"/>
      <use xlink:href="#DejaVuSans-52" transform="translate(969.515625 0)"/>
      <use xlink:href="#DejaVuSans-4c" transform="translate(1030.703125 0)"/>
      <use xlink:href="#DejaVuSans-51" transform="translate(1058.484375 0)"/>
      <use xlink:href="#DejaVuSans-57" transform="translate(1121.859375 0)"/>
      <use xlink:href="#DejaVuSans-56" transform="translate(1161.0625 0)"/>
      <use xlink:href="#DejaVuSans-3" transform="translate(1213.15625 0)"/>
      <use xlink:href="#DejaVuSans-52" transform="translate(1244.9375 0)"/>
      <use xlink:href="#DejaVuSans-51" transform="translate(1306.125 0)"/>
      <use xlink:href="#DejaVuSans-3" transform="translate(1369.5 0)"/>
      <use xlink:href="#DejaVuSans-14" transform="translate(1401.28125 0)"/>
      <use xlink:href="#DejaVuSans-af5" transform="translate(1464.90625 0)"/>
      <use xlink:href="#DejaVuSans-18" transform="translate(1514.90625 0)"/>
      <use xlink:href="#DejaVuSans-3" transform="translate(1578.53125 0)"/>
      <use xlink:href="#DejaVuSans-55" transform="translate(1610.3125 0)"/>
      <use xlink:href="#DejaVuSans-58" transform="translate(1651.421875 0)"/>
      <use xlink:href="#DejaVuSans-45" transform="translate(1714.796875 0)"/>
      <use xlink:href="#DejaVuSans-55" transform="translate(1778.28125 0)"/>
      <use xlink:href="#DejaVuSans-4c" transform="translate(1819.390625 0)"/>
      <use xlink:href="#DejaVuSans-46" transform="translate(1847.171875 0)"/>
      <use xlink:href="#DejaVuSans-c" transform="translate(1902.15625 0)"/>
     </g>
    </g>
   </g>
   <g id="matplotlib.axis_4">
    <g id="ytick_4">
     <g id="line2d_23">
      <g>
       <use xlink:href="#m5413538202" x="387.967836" y="96.458105" style="stroke: #000000; stroke-width: 0.6"/>
      </g>
     </g>
    </g>
    <g id="ytick_5">
     <g id="line2d_24">
      <g>
       <use xlink:href="#m5413538202" x="387.967836" y="165.445715" style="stroke: #000000; stroke-width: 0.6"/>
      </g>
     </g>
    </g>
    <g id="ytick_6">
     <g id="line2d_25">
      <g>
       <use xlink:href="#m5413538202" x="387.967836" y="234.433325" style="stroke: #000000; stroke-width: 0.6"/>
      </g>
     </g>
    </g>
   </g>
   <g id="PathCollection_10">
    <defs>
     <path id="m863174f2ce" d="M 0 4.873397 
C 1.29244 4.873397 2.532119 4.359905 3.446012 3.446012 
C 4.359905 2.532119 4.873397 1.29244 4.873397 0 
C 4.873397 -1.29244 4.359905 -2.532119 3.446012 -3.446012 
C 2.532119 -4.359905 1.29244 -4.873397 0 -4.873397 
C -1.29244 -4.873397 -2.532119 -4.359905 -3.446012 -3.446012 
C -4.359905 -2.532119 -4.873397 -1.29244 -4.873397 0 
C -4.873397 1.29244 -4.359905 2.532119 -3.446012 3.446012 
C -2.532119 4.359905 -1.29244 4.873397 0 4.873397 
z
" style="stroke: #000000"/>
    </defs>
    <g clip-path="url(#p2821407436)">
     <use xlink:href="#m863174f2ce" x="534.698329" y="111.635379" style="fill: #8c8c8c; stroke: #000000"/>
    </g>
   </g>
   <g id="PathCollection_11">
    <g clip-path="url(#p2821407436)">
     <use xlink:href="#m863174f2ce" x="518.956159" y="180.622989" style="fill: #8c8c8c; stroke: #000000"/>
    </g>
   </g>
   <g id="PathCollection_12">
    <g clip-path="url(#p2821407436)">
     <use xlink:href="#m863174f2ce" x="550.77723" y="249.610599" style="fill: #8c8c8c; stroke: #000000"/>
    </g>
   </g>
   <g id="PathCollection_13">
    <defs>
     <path id="mc642c29e56" d="M 0 -4.873397 
L -4.873397 4.873397 
L 4.873397 4.873397 
z
" style="stroke: #000000"/>
    </defs>
    <g clip-path="url(#p2821407436)">
     <use xlink:href="#mc642c29e56" x="627.888609" y="96.458105" style="fill: #8c8c8c; stroke: #000000"/>
    </g>
   </g>
   <g id="PathCollection_14">
    <g clip-path="url(#p2821407436)">
     <use xlink:href="#mc642c29e56" x="417.43179" y="165.445715" style="fill: #8c8c8c; stroke: #000000"/>
    </g>
   </g>
   <g id="PathCollection_15">
    <g clip-path="url(#p2821407436)">
     <use xlink:href="#mc642c29e56" x="501.614518" y="234.433325" style="fill: #8c8c8c; stroke: #000000"/>
    </g>
   </g>
   <g id="PathCollection_16">
    <defs>
     <path id="m9cf8ce145b" d="M -0 6.892024 
L 6.892024 0 
L 0 -6.892024 
L -6.892024 -0 
z
" style="stroke: #000000"/>
    </defs>
    <g clip-path="url(#p2821407436)">
     <use xlink:href="#m9cf8ce145b" x="581.251378" y="81.280831" style="fill: #8c8c8c; stroke: #000000"/>
    </g>
   </g>
   <g id="PathCollection_17">
    <g clip-path="url(#p2821407436)">
     <use xlink:href="#m9cf8ce145b" x="468.193975" y="150.268441" style="fill: #8c8c8c; stroke: #000000"/>
    </g>
   </g>
   <g id="PathCollection_18">
    <g clip-path="url(#p2821407436)">
     <use xlink:href="#m9cf8ce145b" x="526.195874" y="219.256051" style="fill: #8c8c8c; stroke: #000000"/>
    </g>
   </g>
   <g id="text_24">
    <!-- B -->
    <g transform="translate(372.671704 51.696871) scale(0.13 -0.13)">
     <defs>
      <path id="DejaVuSans-Bold-25" d="M 2456 2859 
Q 2741 2859 2887 2984 
Q 3034 3109 3034 3353 
Q 3034 3594 2887 3720 
Q 2741 3847 2456 3847 
L 1791 3847 
L 1791 2859 
L 2456 2859 
z
M 2497 819 
Q 2859 819 3042 972 
Q 3225 1125 3225 1434 
Q 3225 1738 3044 1889 
Q 2863 2041 2497 2041 
L 1791 2041 
L 1791 819 
L 2497 819 
z
M 3616 2497 
Q 4003 2384 4215 2081 
Q 4428 1778 4428 1338 
Q 4428 663 3972 331 
Q 3516 0 2584 0 
L 588 0 
L 588 4666 
L 2394 4666 
Q 3366 4666 3802 4372 
Q 4238 4078 4238 3431 
Q 4238 3091 4078 2852 
Q 3919 2613 3616 2497 
z
" transform="scale(0.015625)"/>
     </defs>
     <use xlink:href="#DejaVuSans-Bold-25"/>
    </g>
   </g>
   <g id="text_25">
    <!-- marks straddle 0 -->
    <g style="fill: #666666" transform="translate(581.514771 259.08584) scale(0.08 -0.08)">
     <defs>
      <path id="DejaVuSans-Oblique-50" d="M 5747 2113 
L 5338 0 
L 4763 0 
L 5166 2094 
Q 5191 2228 5203 2325 
Q 5216 2422 5216 2491 
Q 5216 2772 5059 2928 
Q 4903 3084 4622 3084 
Q 4203 3084 3875 2770 
Q 3547 2456 3450 1953 
L 3066 0 
L 2491 0 
L 2900 2094 
Q 2925 2209 2937 2307 
Q 2950 2406 2950 2484 
Q 2950 2769 2794 2926 
Q 2638 3084 2363 3084 
Q 1938 3084 1609 2770 
Q 1281 2456 1184 1953 
L 800 0 
L 225 0 
L 909 3500 
L 1484 3500 
L 1375 2956 
Q 1609 3263 1923 3423 
Q 2238 3584 2597 3584 
Q 2978 3584 3223 3384 
Q 3469 3184 3519 2828 
Q 3781 3197 4126 3390 
Q 4472 3584 4856 3584 
Q 5306 3584 5551 3325 
Q 5797 3066 5797 2591 
Q 5797 2488 5784 2364 
Q 5772 2241 5747 2113 
z
" transform="scale(0.015625)"/>
      <path id="DejaVuSans-Oblique-44" d="M 3438 1997 
L 3047 0 
L 2472 0 
L 2578 531 
Q 2325 219 2001 64 
Q 1678 -91 1281 -91 
Q 834 -91 548 182 
Q 263 456 263 884 
Q 263 1497 752 1853 
Q 1241 2209 2100 2209 
L 2900 2209 
L 2931 2363 
Q 2938 2388 2941 2417 
Q 2944 2447 2944 2509 
Q 2944 2788 2717 2942 
Q 2491 3097 2081 3097 
Q 1800 3097 1504 3025 
Q 1209 2953 897 2809 
L 997 3341 
Q 1322 3463 1633 3523 
Q 1944 3584 2234 3584 
Q 2853 3584 3176 3315 
Q 3500 3047 3500 2534 
Q 3500 2431 3484 2292 
Q 3469 2153 3438 1997 
z
M 2816 1759 
L 2241 1759 
Q 1534 1759 1195 1570 
Q 856 1381 856 984 
Q 856 709 1029 553 
Q 1203 397 1509 397 
Q 1978 397 2328 733 
Q 2678 1069 2791 1631 
L 2816 1759 
z
" transform="scale(0.015625)"/>
      <path id="DejaVuSans-Oblique-55" d="M 2853 2969 
Q 2766 3016 2653 3041 
Q 2541 3066 2413 3066 
Q 1953 3066 1609 2717 
Q 1266 2369 1153 1784 
L 800 0 
L 225 0 
L 909 3500 
L 1484 3500 
L 1375 2956 
Q 1603 3259 1920 3421 
Q 2238 3584 2597 3584 
Q 2691 3584 2781 3573 
Q 2872 3563 2963 3538 
L 2853 2969 
z
" transform="scale(0.015625)"/>
      <path id="DejaVuSans-Oblique-4e" d="M 1172 4863 
L 1747 4863 
L 1197 2028 
L 3169 3500 
L 3916 3500 
L 1716 1825 
L 3322 0 
L 2625 0 
L 1131 1709 
L 800 0 
L 225 0 
L 1172 4863 
z
" transform="scale(0.015625)"/>
      <path id="DejaVuSans-Oblique-56" d="M 3200 3397 
L 3091 2853 
Q 2863 2978 2609 3040 
Q 2356 3103 2088 3103 
Q 1634 3103 1373 2948 
Q 1113 2794 1113 2528 
Q 1113 2219 1719 2053 
Q 1766 2041 1788 2034 
L 1972 1978 
Q 2547 1819 2739 1644 
Q 2931 1469 2931 1166 
Q 2931 609 2489 259 
Q 2047 -91 1331 -91 
Q 1053 -91 747 -37 
Q 441 16 72 128 
L 184 722 
Q 500 559 806 475 
Q 1113 391 1394 391 
Q 1816 391 2080 572 
Q 2344 753 2344 1031 
Q 2344 1331 1650 1516 
L 1591 1531 
L 1394 1581 
Q 956 1697 753 1886 
Q 550 2075 550 2369 
Q 550 2928 970 3256 
Q 1391 3584 2113 3584 
Q 2397 3584 2667 3537 
Q 2938 3491 3200 3397 
z
" transform="scale(0.015625)"/>
      <path id="DejaVuSans-Oblique-3" transform="scale(0.015625)"/>
      <path id="DejaVuSans-Oblique-57" d="M 2706 3500 
L 2619 3053 
L 1472 3053 
L 1100 1153 
Q 1081 1047 1072 975 
Q 1063 903 1063 863 
Q 1063 663 1183 572 
Q 1303 481 1569 481 
L 2150 481 
L 2053 0 
L 1503 0 
Q 991 0 739 200 
Q 488 400 488 806 
Q 488 878 497 964 
Q 506 1050 525 1153 
L 897 3053 
L 409 3053 
L 500 3500 
L 978 3500 
L 1172 4494 
L 1747 4494 
L 1556 3500 
L 2706 3500 
z
" transform="scale(0.015625)"/>
      <path id="DejaVuSans-Oblique-47" d="M 2675 525 
Q 2444 222 2128 65 
Q 1813 -91 1428 -91 
Q 903 -91 598 267 
Q 294 625 294 1247 
Q 294 1766 478 2236 
Q 663 2706 1013 3078 
Q 1244 3325 1534 3454 
Q 1825 3584 2144 3584 
Q 2481 3584 2739 3421 
Q 2997 3259 3138 2956 
L 3513 4863 
L 4091 4863 
L 3144 0 
L 2566 0 
L 2675 525 
z
M 891 1350 
Q 891 897 1095 644 
Q 1300 391 1663 391 
Q 1931 391 2161 520 
Q 2391 650 2566 903 
Q 2750 1166 2856 1509 
Q 2963 1853 2963 2188 
Q 2963 2622 2758 2865 
Q 2553 3109 2194 3109 
Q 1922 3109 1687 2981 
Q 1453 2853 1288 2613 
Q 1106 2353 998 2009 
Q 891 1666 891 1350 
z
" transform="scale(0.015625)"/>
      <path id="DejaVuSans-Oblique-4f" d="M 1172 4863 
L 1747 4863 
L 800 0 
L 225 0 
L 1172 4863 
z
" transform="scale(0.015625)"/>
      <path id="DejaVuSans-Oblique-48" d="M 3078 2063 
Q 3088 2113 3092 2166 
Q 3097 2219 3097 2272 
Q 3097 2653 2873 2875 
Q 2650 3097 2266 3097 
Q 1838 3097 1509 2826 
Q 1181 2556 1013 2059 
L 3078 2063 
z
M 3578 1613 
L 903 1613 
Q 884 1494 878 1425 
Q 872 1356 872 1306 
Q 872 872 1139 634 
Q 1406 397 1894 397 
Q 2269 397 2603 481 
Q 2938 566 3225 728 
L 3116 159 
Q 2806 34 2476 -28 
Q 2147 -91 1806 -91 
Q 1078 -91 686 257 
Q 294 606 294 1247 
Q 294 1794 489 2264 
Q 684 2734 1063 3103 
Q 1306 3334 1642 3459 
Q 1978 3584 2356 3584 
Q 2950 3584 3301 3228 
Q 3653 2872 3653 2272 
Q 3653 2128 3634 1964 
Q 3616 1800 3578 1613 
z
" transform="scale(0.015625)"/>
      <path id="DejaVuSans-Oblique-13" d="M 2444 4750 
Q 3078 4750 3414 4328 
Q 3750 3906 3750 3116 
Q 3750 2516 3592 1923 
Q 3434 1331 3150 863 
Q 2859 394 2467 151 
Q 2075 -91 1600 -91 
Q 988 -91 653 334 
Q 319 759 319 1544 
Q 319 2138 480 2733 
Q 641 3328 928 3794 
Q 1216 4263 1602 4506 
Q 1988 4750 2444 4750 
z
M 2406 4250 
Q 2169 4250 1955 4123 
Q 1741 3997 1569 3750 
Q 1281 3338 1111 2720 
Q 941 2103 941 1453 
Q 941 938 1123 673 
Q 1306 409 1663 409 
Q 1913 409 2125 536 
Q 2338 663 2509 909 
Q 2794 1319 2961 1936 
Q 3128 2553 3128 3206 
Q 3128 3722 2945 3986 
Q 2763 4250 2406 4250 
z
" transform="scale(0.015625)"/>
     </defs>
     <use xlink:href="#DejaVuSans-Oblique-50"/>
     <use xlink:href="#DejaVuSans-Oblique-44" transform="translate(97.40625 0)"/>
     <use xlink:href="#DejaVuSans-Oblique-55" transform="translate(158.6875 0)"/>
     <use xlink:href="#DejaVuSans-Oblique-4e" transform="translate(199.796875 0)"/>
     <use xlink:href="#DejaVuSans-Oblique-56" transform="translate(257.703125 0)"/>
     <use xlink:href="#DejaVuSans-Oblique-3" transform="translate(309.796875 0)"/>
     <use xlink:href="#DejaVuSans-Oblique-56" transform="translate(341.578125 0)"/>
     <use xlink:href="#DejaVuSans-Oblique-57" transform="translate(393.671875 0)"/>
     <use xlink:href="#DejaVuSans-Oblique-55" transform="translate(432.875 0)"/>
     <use xlink:href="#DejaVuSans-Oblique-44" transform="translate(473.984375 0)"/>
     <use xlink:href="#DejaVuSans-Oblique-47" transform="translate(535.265625 0)"/>
     <use xlink:href="#DejaVuSans-Oblique-47" transform="translate(598.75 0)"/>
     <use xlink:href="#DejaVuSans-Oblique-4f" transform="translate(662.234375 0)"/>
     <use xlink:href="#DejaVuSans-Oblique-48" transform="translate(690.015625 0)"/>
     <use xlink:href="#DejaVuSans-Oblique-3" transform="translate(751.546875 0)"/>
     <use xlink:href="#DejaVuSans-Oblique-13" transform="translate(783.328125 0)"/>
    </g>
    <!-- (gain is v8-specific) -->
    <g style="fill: #666666" transform="translate(571.212271 268.688027) scale(0.08 -0.08)">
     <defs>
      <path id="DejaVuSans-Oblique-b" d="M 2731 4856 
Q 1903 3822 1495 2892 
Q 1088 1963 1088 1100 
Q 1088 606 1206 120 
Q 1325 -366 1563 -844 
L 1063 -844 
Q 775 -306 634 201 
Q 494 709 494 1197 
Q 494 2125 923 3036 
Q 1353 3947 2222 4856 
L 2731 4856 
z
" transform="scale(0.015625)"/>
      <path id="DejaVuSans-Oblique-4a" d="M 3816 3500 
L 3219 434 
Q 3047 -456 2561 -893 
Q 2075 -1331 1253 -1331 
Q 950 -1331 690 -1286 
Q 431 -1241 206 -1147 
L 313 -588 
Q 525 -725 762 -790 
Q 1000 -856 1269 -856 
Q 1816 -856 2167 -557 
Q 2519 -259 2631 300 
L 2681 563 
Q 2441 288 2122 144 
Q 1803 0 1434 0 
Q 903 0 598 351 
Q 294 703 294 1319 
Q 294 1803 478 2267 
Q 663 2731 997 3091 
Q 1219 3328 1514 3456 
Q 1809 3584 2131 3584 
Q 2484 3584 2746 3420 
Q 3009 3256 3138 2956 
L 3238 3500 
L 3816 3500 
z
M 2950 2216 
Q 2950 2641 2750 2872 
Q 2550 3103 2181 3103 
Q 1953 3103 1747 3012 
Q 1541 2922 1394 2759 
Q 1156 2491 1023 2127 
Q 891 1763 891 1375 
Q 891 944 1092 712 
Q 1294 481 1672 481 
Q 2219 481 2584 976 
Q 2950 1472 2950 2216 
z
" transform="scale(0.015625)"/>
      <path id="DejaVuSans-Oblique-4c" d="M 1172 4863 
L 1747 4863 
L 1606 4134 
L 1031 4134 
L 1172 4863 
z
M 909 3500 
L 1484 3500 
L 800 0 
L 225 0 
L 909 3500 
z
" transform="scale(0.015625)"/>
      <path id="DejaVuSans-Oblique-51" d="M 3566 2113 
L 3156 0 
L 2578 0 
L 2988 2091 
Q 3016 2238 3031 2350 
Q 3047 2463 3047 2528 
Q 3047 2791 2881 2937 
Q 2716 3084 2419 3084 
Q 1956 3084 1622 2776 
Q 1288 2469 1184 1941 
L 800 0 
L 225 0 
L 903 3500 
L 1478 3500 
L 1363 2950 
Q 1603 3253 1940 3418 
Q 2278 3584 2650 3584 
Q 3113 3584 3367 3334 
Q 3622 3084 3622 2631 
Q 3622 2519 3608 2391 
Q 3594 2263 3566 2113 
z
" transform="scale(0.015625)"/>
      <path id="DejaVuSans-Oblique-59" d="M 459 3500 
L 1069 3500 
L 1581 525 
L 3256 3500 
L 3866 3500 
L 1875 0 
L 1100 0 
L 459 3500 
z
" transform="scale(0.015625)"/>
      <path id="DejaVuSans-Oblique-1b" d="M 2847 1416 
Q 2847 1769 2600 1992 
Q 2353 2216 1953 2216 
Q 1466 2216 1148 1923 
Q 831 1631 831 1184 
Q 831 828 1073 618 
Q 1316 409 1728 409 
Q 2219 409 2533 693 
Q 2847 978 2847 1416 
z
M 3169 3591 
Q 3169 3888 2950 4069 
Q 2731 4250 2369 4250 
Q 1941 4250 1664 4009 
Q 1388 3769 1388 3406 
Q 1388 3094 1605 2903 
Q 1822 2713 2181 2713 
Q 2613 2713 2891 2961 
Q 3169 3209 3169 3591 
z
M 2741 2456 
Q 3094 2322 3281 2050 
Q 3469 1778 3469 1394 
Q 3469 747 2969 328 
Q 2469 -91 1678 -91 
Q 1006 -91 609 239 
Q 213 569 213 1119 
Q 213 1619 553 2008 
Q 894 2397 1441 2503 
Q 1113 2616 941 2852 
Q 769 3088 769 3425 
Q 769 3991 1239 4370 
Q 1709 4750 2431 4750 
Q 3034 4750 3414 4442 
Q 3794 4134 3794 3659 
Q 3794 3247 3511 2923 
Q 3228 2600 2741 2456 
z
" transform="scale(0.015625)"/>
      <path id="DejaVuSans-Oblique-10" d="M 391 2009 
L 2075 2009 
L 1978 1497 
L 288 1497 
L 391 2009 
z
" transform="scale(0.015625)"/>
      <path id="DejaVuSans-Oblique-53" d="M 3175 2156 
Q 3175 2616 2975 2859 
Q 2775 3103 2400 3103 
Q 2144 3103 1911 2972 
Q 1678 2841 1497 2591 
Q 1319 2344 1212 1994 
Q 1106 1644 1106 1300 
Q 1106 863 1306 627 
Q 1506 391 1875 391 
Q 2147 391 2380 519 
Q 2613 647 2778 891 
Q 2956 1147 3065 1494 
Q 3175 1841 3175 2156 
z
M 1394 2969 
Q 1625 3272 1939 3428 
Q 2253 3584 2638 3584 
Q 3175 3584 3472 3232 
Q 3769 2881 3769 2247 
Q 3769 1728 3584 1258 
Q 3400 788 3053 416 
Q 2822 169 2531 39 
Q 2241 -91 1919 -91 
Q 1547 -91 1294 64 
Q 1041 219 916 525 
L 556 -1331 
L -19 -1331 
L 922 3500 
L 1497 3500 
L 1394 2969 
z
" transform="scale(0.015625)"/>
      <path id="DejaVuSans-Oblique-46" d="M 3431 3366 
L 3316 2797 
Q 3109 2947 2876 3022 
Q 2644 3097 2394 3097 
Q 2119 3097 1870 3000 
Q 1622 2903 1453 2725 
Q 1184 2453 1037 2087 
Q 891 1722 891 1331 
Q 891 859 1127 628 
Q 1363 397 1844 397 
Q 2081 397 2348 469 
Q 2616 541 2906 684 
L 2797 116 
Q 2547 13 2283 -39 
Q 2019 -91 1741 -91 
Q 1044 -91 669 257 
Q 294 606 294 1253 
Q 294 1797 489 2255 
Q 684 2713 1069 3078 
Q 1331 3328 1684 3456 
Q 2038 3584 2456 3584 
Q 2700 3584 2940 3529 
Q 3181 3475 3431 3366 
z
" transform="scale(0.015625)"/>
      <path id="DejaVuSans-Oblique-127c" d="M 3525 4863 
L 4103 4863 
L 3963 4134 
L 3384 4134 
L 3525 4863 
z
M 3059 4863 
L 2969 4384 
L 2419 4384 
Q 2106 4384 1964 4261 
Q 1822 4138 1753 3809 
L 1691 3500 
L 3841 3500 
L 3156 0 
L 2578 0 
L 3188 3056 
L 1606 3056 
L 1013 0 
L 434 0 
L 1031 3053 
L 481 3053 
L 563 3500 
L 1113 3500 
L 1159 3744 
Q 1278 4363 1575 4613 
Q 1875 4863 2516 4863 
L 3059 4863 
z
" transform="scale(0.015625)"/>
      <path id="DejaVuSans-Oblique-c" d="M -397 -844 
Q 434 191 840 1120 
Q 1247 2050 1247 2913 
Q 1247 3406 1130 3892 
Q 1013 4378 775 4856 
L 1275 4856 
Q 1563 4316 1703 3812 
Q 1844 3309 1844 2822 
Q 1844 1891 1411 973 
Q 978 56 116 -844 
L -397 -844 
z
" transform="scale(0.015625)"/>
     </defs>
     <use xlink:href="#DejaVuSans-Oblique-b"/>
     <use xlink:href="#DejaVuSans-Oblique-4a" transform="translate(39.015625 0)"/>
     <use xlink:href="#DejaVuSans-Oblique-44" transform="translate(102.5 0)"/>
     <use xlink:href="#DejaVuSans-Oblique-4c" transform="translate(163.78125 0)"/>
     <use xlink:href="#DejaVuSans-Oblique-51" transform="translate(191.5625 0)"/>
     <use xlink:href="#DejaVuSans-Oblique-3" transform="translate(254.9375 0)"/>
     <use xlink:href="#DejaVuSans-Oblique-4c" transform="translate(286.71875 0)"/>
     <use xlink:href="#DejaVuSans-Oblique-56" transform="translate(314.5 0)"/>
     <use xlink:href="#DejaVuSans-Oblique-3" transform="translate(366.59375 0)"/>
     <use xlink:href="#DejaVuSans-Oblique-59" transform="translate(398.375 0)"/>
     <use xlink:href="#DejaVuSans-Oblique-1b" transform="translate(457.5625 0)"/>
     <use xlink:href="#DejaVuSans-Oblique-10" transform="translate(521.1875 0)"/>
     <use xlink:href="#DejaVuSans-Oblique-56" transform="translate(557.265625 0)"/>
     <use xlink:href="#DejaVuSans-Oblique-53" transform="translate(609.359375 0)"/>
     <use xlink:href="#DejaVuSans-Oblique-48" transform="translate(672.84375 0)"/>
     <use xlink:href="#DejaVuSans-Oblique-46" transform="translate(734.375 0)"/>
     <use xlink:href="#DejaVuSans-Oblique-4c" transform="translate(789.359375 0)"/>
     <use xlink:href="#DejaVuSans-Oblique-127c" transform="translate(817.140625 0)"/>
     <use xlink:href="#DejaVuSans-Oblique-46" transform="translate(881.734375 0)"/>
     <use xlink:href="#DejaVuSans-Oblique-c" transform="translate(936.71875 0)"/>
    </g>
   </g>
   <g id="text_26">
    <!-- Secondary:  v7 − baseline -->
    <g transform="translate(387.967836 49.065539) scale(0.105 -0.105)">
     <defs>
      <path id="DejaVuSans-Bold-36" d="M 3834 4519 
L 3834 3531 
Q 3450 3703 3084 3790 
Q 2719 3878 2394 3878 
Q 1963 3878 1756 3759 
Q 1550 3641 1550 3391 
Q 1550 3203 1689 3098 
Q 1828 2994 2194 2919 
L 2706 2816 
Q 3484 2659 3812 2340 
Q 4141 2022 4141 1434 
Q 4141 663 3683 286 
Q 3225 -91 2284 -91 
Q 1841 -91 1394 -6 
Q 947 78 500 244 
L 500 1259 
Q 947 1022 1364 901 
Q 1781 781 2169 781 
Q 2563 781 2772 912 
Q 2981 1044 2981 1288 
Q 2981 1506 2839 1625 
Q 2697 1744 2272 1838 
L 1806 1941 
Q 1106 2091 782 2419 
Q 459 2747 459 3303 
Q 459 4000 909 4375 
Q 1359 4750 2203 4750 
Q 2588 4750 2994 4692 
Q 3400 4634 3834 4519 
z
" transform="scale(0.015625)"/>
      <path id="DejaVuSans-Bold-46" d="M 3366 3391 
L 3366 2478 
Q 3138 2634 2908 2709 
Q 2678 2784 2431 2784 
Q 1963 2784 1702 2511 
Q 1441 2238 1441 1747 
Q 1441 1256 1702 982 
Q 1963 709 2431 709 
Q 2694 709 2930 787 
Q 3166 866 3366 1019 
L 3366 103 
Q 3103 6 2833 -42 
Q 2563 -91 2291 -91 
Q 1344 -91 809 395 
Q 275 881 275 1747 
Q 275 2613 809 3098 
Q 1344 3584 2291 3584 
Q 2566 3584 2833 3536 
Q 3100 3488 3366 3391 
z
" transform="scale(0.015625)"/>
      <path id="DejaVuSans-Bold-45" d="M 2400 722 
Q 2759 722 2948 984 
Q 3138 1247 3138 1747 
Q 3138 2247 2948 2509 
Q 2759 2772 2400 2772 
Q 2041 2772 1848 2508 
Q 1656 2244 1656 1747 
Q 1656 1250 1848 986 
Q 2041 722 2400 722 
z
M 1656 2988 
Q 1888 3294 2169 3439 
Q 2450 3584 2816 3584 
Q 3463 3584 3878 3070 
Q 4294 2556 4294 1747 
Q 4294 938 3878 423 
Q 3463 -91 2816 -91 
Q 2450 -91 2169 54 
Q 1888 200 1656 506 
L 1656 0 
L 538 0 
L 538 4863 
L 1656 4863 
L 1656 2988 
z
" transform="scale(0.015625)"/>
      <path id="DejaVuSans-Bold-56" d="M 3272 3391 
L 3272 2541 
Q 2913 2691 2578 2766 
Q 2244 2841 1947 2841 
Q 1628 2841 1473 2761 
Q 1319 2681 1319 2516 
Q 1319 2381 1436 2309 
Q 1553 2238 1856 2203 
L 2053 2175 
Q 2913 2066 3209 1816 
Q 3506 1566 3506 1031 
Q 3506 472 3093 190 
Q 2681 -91 1863 -91 
Q 1516 -91 1145 -36 
Q 775 19 384 128 
L 384 978 
Q 719 816 1070 734 
Q 1422 653 1784 653 
Q 2113 653 2278 743 
Q 2444 834 2444 1013 
Q 2444 1163 2330 1236 
Q 2216 1309 1875 1350 
L 1678 1375 
Q 931 1469 631 1722 
Q 331 1975 331 2491 
Q 331 3047 712 3315 
Q 1094 3584 1881 3584 
Q 2191 3584 2531 3537 
Q 2872 3491 3272 3391 
z
" transform="scale(0.015625)"/>
      <path id="DejaVuSans-Bold-4f" d="M 538 4863 
L 1656 4863 
L 1656 0 
L 538 0 
L 538 4863 
z
" transform="scale(0.015625)"/>
     </defs>
     <use xlink:href="#DejaVuSans-Bold-36"/>
     <use xlink:href="#DejaVuSans-Bold-48" transform="translate(72.015625 0)"/>
     <use xlink:href="#DejaVuSans-Bold-46" transform="translate(139.84375 0)"/>
     <use xlink:href="#DejaVuSans-Bold-52" transform="translate(199.125 0)"/>
     <use xlink:href="#DejaVuSans-Bold-51" transform="translate(267.828125 0)"/>
     <use xlink:href="#DejaVuSans-Bold-47" transform="translate(339.015625 0)"/>
     <use xlink:href="#DejaVuSans-Bold-44" transform="translate(410.59375 0)"/>
     <use xlink:href="#DejaVuSans-Bold-55" transform="translate(478.078125 0)"/>
     <use xlink:href="#DejaVuSans-Bold-5c" transform="translate(527.390625 0)"/>
     <use xlink:href="#DejaVuSans-Bold-1d" transform="translate(592.578125 0)"/>
     <use xlink:href="#DejaVuSans-Bold-3" transform="translate(632.5625 0)"/>
     <use xlink:href="#DejaVuSans-Bold-3" transform="translate(667.375 0)"/>
     <use xlink:href="#DejaVuSans-Bold-59" transform="translate(702.1875 0)"/>
     <use xlink:href="#DejaVuSans-Bold-1a" transform="translate(767.375 0)"/>
     <use xlink:href="#DejaVuSans-Bold-3" transform="translate(836.953125 0)"/>
     <use xlink:href="#DejaVuSans-Bold-c9c" transform="translate(871.765625 0)"/>
     <use xlink:href="#DejaVuSans-Bold-3" transform="translate(955.5625 0)"/>
     <use xlink:href="#DejaVuSans-Bold-45" transform="translate(990.375 0)"/>
     <use xlink:href="#DejaVuSans-Bold-44" transform="translate(1061.953125 0)"/>
     <use xlink:href="#DejaVuSans-Bold-56" transform="translate(1129.4375 0)"/>
     <use xlink:href="#DejaVuSans-Bold-48" transform="translate(1188.953125 0)"/>
     <use xlink:href="#DejaVuSans-Bold-4f" transform="translate(1256.78125 0)"/>
     <use xlink:href="#DejaVuSans-Bold-4c" transform="translate(1291.0625 0)"/>
     <use xlink:href="#DejaVuSans-Bold-51" transform="translate(1325.34375 0)"/>
     <use xlink:href="#DejaVuSans-Bold-48" transform="translate(1396.53125 0)"/>
    </g>
   </g>
  </g>
  <g id="text_27">
   <!-- The v8 upgrade improved every question for every scorer; the v7 step did not -->
   <g transform="translate(71.307251 12.718125) scale(0.12 -0.12)">
    <defs>
     <path id="DejaVuSans-Bold-37" d="M 31 4666 
L 4331 4666 
L 4331 3756 
L 2784 3756 
L 2784 0 
L 1581 0 
L 1581 3756 
L 31 3756 
L 31 4666 
z
" transform="scale(0.015625)"/>
     <path id="DejaVuSans-Bold-4b" d="M 4056 2131 
L 4056 0 
L 2931 0 
L 2931 347 
L 2931 1625 
Q 2931 2084 2911 2256 
Q 2891 2428 2841 2509 
Q 2775 2619 2662 2680 
Q 2550 2741 2406 2741 
Q 2056 2741 1856 2470 
Q 1656 2200 1656 1722 
L 1656 0 
L 538 0 
L 538 4863 
L 1656 4863 
L 1656 2988 
Q 1909 3294 2193 3439 
Q 2478 3584 2822 3584 
Q 3428 3584 3742 3212 
Q 4056 2841 4056 2131 
z
" transform="scale(0.015625)"/>
     <path id="DejaVuSans-Bold-58" d="M 500 1363 
L 500 3500 
L 1625 3500 
L 1625 3150 
Q 1625 2866 1622 2436 
Q 1619 2006 1619 1863 
Q 1619 1441 1641 1255 
Q 1663 1069 1716 984 
Q 1784 875 1895 815 
Q 2006 756 2150 756 
Q 2500 756 2700 1025 
Q 2900 1294 2900 1772 
L 2900 3500 
L 4019 3500 
L 4019 0 
L 2900 0 
L 2900 506 
Q 2647 200 2364 54 
Q 2081 -91 1741 -91 
Q 1134 -91 817 281 
Q 500 653 500 1363 
z
" transform="scale(0.015625)"/>
     <path id="DejaVuSans-Bold-4a" d="M 2919 594 
Q 2688 288 2409 144 
Q 2131 0 1766 0 
Q 1125 0 706 504 
Q 288 1009 288 1791 
Q 288 2575 706 3076 
Q 1125 3578 1766 3578 
Q 2131 3578 2409 3434 
Q 2688 3291 2919 2981 
L 2919 3500 
L 4044 3500 
L 4044 353 
Q 4044 -491 3511 -936 
Q 2978 -1381 1966 -1381 
Q 1638 -1381 1331 -1331 
Q 1025 -1281 716 -1178 
L 716 -306 
Q 1009 -475 1290 -558 
Q 1572 -641 1856 -641 
Q 2406 -641 2662 -400 
Q 2919 -159 2919 353 
L 2919 594 
z
M 2181 2772 
Q 1834 2772 1640 2515 
Q 1447 2259 1447 1791 
Q 1447 1309 1634 1061 
Q 1822 813 2181 813 
Q 2531 813 2725 1069 
Q 2919 1325 2919 1791 
Q 2919 2259 2725 2515 
Q 2531 2772 2181 2772 
z
" transform="scale(0.015625)"/>
     <path id="DejaVuSans-Bold-54" d="M 2181 2772 
Q 1825 2772 1636 2509 
Q 1447 2247 1447 1747 
Q 1447 1247 1636 984 
Q 1825 722 2181 722 
Q 2541 722 2730 984 
Q 2919 1247 2919 1747 
Q 2919 2247 2730 2509 
Q 2541 2772 2181 2772 
z
M 2919 506 
Q 2688 197 2409 53 
Q 2131 -91 1766 -91 
Q 1119 -91 703 423 
Q 288 938 288 1747 
Q 288 2556 703 3067 
Q 1119 3578 1766 3578 
Q 2131 3578 2409 3434 
Q 2688 3291 2919 2981 
L 2919 3500 
L 4044 3500 
L 4044 -1331 
L 2919 -1331 
L 2919 506 
z
" transform="scale(0.015625)"/>
     <path id="DejaVuSans-Bold-49" d="M 2841 4863 
L 2841 4128 
L 2222 4128 
Q 1984 4128 1890 4042 
Q 1797 3956 1797 3744 
L 1797 3500 
L 2753 3500 
L 2753 2700 
L 1797 2700 
L 1797 0 
L 678 0 
L 678 2700 
L 122 2700 
L 122 3500 
L 678 3500 
L 678 3744 
Q 678 4316 997 4589 
Q 1316 4863 1984 4863 
L 2841 4863 
z
" transform="scale(0.015625)"/>
     <path id="DejaVuSans-Bold-1e" d="M 716 1209 
L 1844 1209 
L 1844 256 
L 1069 -909 
L 403 -909 
L 716 256 
L 716 1209 
z
M 716 3500 
L 1844 3500 
L 1844 2291 
L 716 2291 
L 716 3500 
z
" transform="scale(0.015625)"/>
    </defs>
    <use xlink:href="#DejaVuSans-Bold-37"/>
    <use xlink:href="#DejaVuSans-Bold-4b" transform="translate(68.21875 0)"/>
    <use xlink:href="#DejaVuSans-Bold-48" transform="translate(139.40625 0)"/>
    <use xlink:href="#DejaVuSans-Bold-3" transform="translate(207.234375 0)"/>
    <use xlink:href="#DejaVuSans-Bold-59" transform="translate(242.046875 0)"/>
    <use xlink:href="#DejaVuSans-Bold-1b" transform="translate(307.234375 0)"/>
    <use xlink:href="#DejaVuSans-Bold-3" transform="translate(376.8125 0)"/>
    <use xlink:href="#DejaVuSans-Bold-58" transform="translate(411.625 0)"/>
    <use xlink:href="#DejaVuSans-Bold-53" transform="translate(482.8125 0)"/>
    <use xlink:href="#DejaVuSans-Bold-4a" transform="translate(554.390625 0)"/>
    <use xlink:href="#DejaVuSans-Bold-55" transform="translate(625.96875 0)"/>
    <use xlink:href="#DejaVuSans-Bold-44" transform="translate(675.28125 0)"/>
    <use xlink:href="#DejaVuSans-Bold-47" transform="translate(742.765625 0)"/>
    <use xlink:href="#DejaVuSans-Bold-48" transform="translate(814.34375 0)"/>
    <use xlink:href="#DejaVuSans-Bold-3" transform="translate(882.171875 0)"/>
    <use xlink:href="#DejaVuSans-Bold-4c" transform="translate(916.984375 0)"/>
    <use xlink:href="#DejaVuSans-Bold-50" transform="translate(951.265625 0)"/>
    <use xlink:href="#DejaVuSans-Bold-53" transform="translate(1055.46875 0)"/>
    <use xlink:href="#DejaVuSans-Bold-55" transform="translate(1127.046875 0)"/>
    <use xlink:href="#DejaVuSans-Bold-52" transform="translate(1176.359375 0)"/>
    <use xlink:href="#DejaVuSans-Bold-59" transform="translate(1245.0625 0)"/>
    <use xlink:href="#DejaVuSans-Bold-48" transform="translate(1310.25 0)"/>
    <use xlink:href="#DejaVuSans-Bold-47" transform="translate(1378.078125 0)"/>
    <use xlink:href="#DejaVuSans-Bold-3" transform="translate(1449.65625 0)"/>
    <use xlink:href="#DejaVuSans-Bold-48" transform="translate(1484.46875 0)"/>
    <use xlink:href="#DejaVuSans-Bold-59" transform="translate(1552.296875 0)"/>
    <use xlink:href="#DejaVuSans-Bold-48" transform="translate(1617.484375 0)"/>
    <use xlink:href="#DejaVuSans-Bold-55" transform="translate(1685.3125 0)"/>
    <use xlink:href="#DejaVuSans-Bold-5c" transform="translate(1734.625 0)"/>
    <use xlink:href="#DejaVuSans-Bold-3" transform="translate(1799.8125 0)"/>
    <use xlink:href="#DejaVuSans-Bold-54" transform="translate(1834.625 0)"/>
    <use xlink:href="#DejaVuSans-Bold-58" transform="translate(1906.203125 0)"/>
    <use xlink:href="#DejaVuSans-Bold-48" transform="translate(1977.390625 0)"/>
    <use xlink:href="#DejaVuSans-Bold-56" transform="translate(2045.21875 0)"/>
    <use xlink:href="#DejaVuSans-Bold-57" transform="translate(2104.734375 0)"/>
    <use xlink:href="#DejaVuSans-Bold-4c" transform="translate(2152.53125 0)"/>
    <use xlink:href="#DejaVuSans-Bold-52" transform="translate(2186.8125 0)"/>
    <use xlink:href="#DejaVuSans-Bold-51" transform="translate(2255.515625 0)"/>
    <use xlink:href="#DejaVuSans-Bold-3" transform="translate(2326.703125 0)"/>
    <use xlink:href="#DejaVuSans-Bold-49" transform="translate(2361.515625 0)"/>
    <use xlink:href="#DejaVuSans-Bold-52" transform="translate(2405.015625 0)"/>
    <use xlink:href="#DejaVuSans-Bold-55" transform="translate(2473.71875 0)"/>
    <use xlink:href="#DejaVuSans-Bold-3" transform="translate(2523.03125 0)"/>
    <use xlink:href="#DejaVuSans-Bold-48" transform="translate(2557.84375 0)"/>
    <use xlink:href="#DejaVuSans-Bold-59" transform="translate(2625.671875 0)"/>
    <use xlink:href="#DejaVuSans-Bold-48" transform="translate(2690.859375 0)"/>
    <use xlink:href="#DejaVuSans-Bold-55" transform="translate(2758.6875 0)"/>
    <use xlink:href="#DejaVuSans-Bold-5c" transform="translate(2808 0)"/>
    <use xlink:href="#DejaVuSans-Bold-3" transform="translate(2873.1875 0)"/>
    <use xlink:href="#DejaVuSans-Bold-56" transform="translate(2908 0)"/>
    <use xlink:href="#DejaVuSans-Bold-46" transform="translate(2967.515625 0)"/>
    <use xlink:href="#DejaVuSans-Bold-52" transform="translate(3026.796875 0)"/>
    <use xlink:href="#DejaVuSans-Bold-55" transform="translate(3095.5 0)"/>
    <use xlink:href="#DejaVuSans-Bold-48" transform="translate(3144.8125 0)"/>
    <use xlink:href="#DejaVuSans-Bold-55" transform="translate(3212.640625 0)"/>
    <use xlink:href="#DejaVuSans-Bold-1e" transform="translate(3261.953125 0)"/>
    <use xlink:href="#DejaVuSans-Bold-3" transform="translate(3301.9375 0)"/>
    <use xlink:href="#DejaVuSans-Bold-57" transform="translate(3336.75 0)"/>
    <use xlink:href="#DejaVuSans-Bold-4b" transform="translate(3384.546875 0)"/>
    <use xlink:href="#DejaVuSans-Bold-48" transform="translate(3455.734375 0)"/>
    <use xlink:href="#DejaVuSans-Bold-3" transform="translate(3523.5625 0)"/>
    <use xlink:href="#DejaVuSans-Bold-59" transform="translate(3558.375 0)"/>
    <use xlink:href="#DejaVuSans-Bold-1a" transform="translate(3623.5625 0)"/>
    <use xlink:href="#DejaVuSans-Bold-3" transform="translate(3693.140625 0)"/>
    <use xlink:href="#DejaVuSans-Bold-56" transform="translate(3727.953125 0)"/>
    <use xlink:href="#DejaVuSans-Bold-57" transform="translate(3787.46875 0)"/>
    <use xlink:href="#DejaVuSans-Bold-48" transform="translate(3835.265625 0)"/>
    <use xlink:href="#DejaVuSans-Bold-53" transform="translate(3903.09375 0)"/>
    <use xlink:href="#DejaVuSans-Bold-3" transform="translate(3974.671875 0)"/>
    <use xlink:href="#DejaVuSans-Bold-47" transform="translate(4009.484375 0)"/>
    <use xlink:href="#DejaVuSans-Bold-4c" transform="translate(4081.0625 0)"/>
    <use xlink:href="#DejaVuSans-Bold-47" transform="translate(4115.34375 0)"/>
    <use xlink:href="#DejaVuSans-Bold-3" transform="translate(4186.921875 0)"/>
    <use xlink:href="#DejaVuSans-Bold-51" transform="translate(4221.734375 0)"/>
    <use xlink:href="#DejaVuSans-Bold-52" transform="translate(4292.921875 0)"/>
    <use xlink:href="#DejaVuSans-Bold-57" transform="translate(4361.625 0)"/>
   </g>
  </g>
 </g>
 <defs>
  <clipPath id="p1edd21cad4">
   <rect x="94.476199" y="55.065539" width="269.384727" height="220.760352"/>
  </clipPath>
  <clipPath id="p2821407436">
   <rect x="387.967836" y="55.065539" width="269.384727" height="220.760352"/>
  </clipPath>
 </defs>
</svg>
