<?xml version="1.0" encoding="utf-8" standalone="no"?>
<!DOCTYPE svg PUBLIC "-//W3C//DTD SVG 1.1//EN"
  "http://www.w3.org/Graphics/SVG/1.1/DTD/svg11.dtd">
<svg xmlns:xlink="http://www.w3.org/1999/xlink" width="607.594219pt" height="318.961641pt" viewBox="0 0 607.594219 318.961641" xmlns="http://www.w3.org/2000/svg" version="1.1">
 <metadata>
  <rdf:RDF xmlns:dc="http://purl.org/dc/elements/1.1/" xmlns:cc="http://creativecommons.org/ns#" xmlns:rdf="http://www.w3.org/1999/02/22-rdf-syntax-ns#">
   <cc:Work>
    <dc:type rdf:resource="http://purl.org/dc/dcmitype/StillImage"/>
    <dc:date>2026-07-13T23:54:28.584702</dc:date>
    <dc:format>image/svg+xml</dc:format>
    <dc:creator>
     <cc:Agent>
      <dc:title>Matplotlib v3.11.0, https://matplotlib.org/</dc:title>
     </cc:Agent>
    </dc:creator>
   </cc:Work>
  </rdf:RDF>
 </metadata>
 <defs>
  <style type="text/css">*{stroke-linejoin: round; stroke-linecap: butt}</style>
 </defs>
 <g id="figure_1">
  <g id="patch_1">
   <path d="M 0 318.961641 
L 607.594219 318.961641 
L 607.594219 0 
L 0 0 
z
" style="fill: #ffffff"/>
  </g>
  <g id="axes_1">
   <g id="patch_2">
    <path d="M 74.094219 288.360898 
L 603.994219 288.360898 
L 603.994219 20.338203 
L 74.094219 20.338203 
z
" style="fill: #ffffff"/>
   </g>
   <g id="line2d_1">
    <path d="M 183.728702 288.360898 
L 183.728702 20.338203 
" clip-path="url(#pdf9d78d85d)" style="fill: none; stroke: #333333; stroke-linecap: square"/>
   </g>
   <g id="matplotlib.axis_1">
    <g id="xtick_1">
     <g id="line2d_2">
      <defs>
       <path id="mc15877b4c6" d="M 0 0 
L 0 3 
" style="stroke: #000000; stroke-width: 0.6"/>
      </defs>
      <g>
       <use xlink:href="#mc15877b4c6" x="92.366633" y="288.360898" style="stroke: #000000; stroke-width: 0.6"/>
      </g>
     </g>
     <g id="text_1">
      <!-- −0.5 -->
      <g transform="translate(83.867648 300.179258) scale(0.07 -0.07)">
       <defs>
        <path id="DejaVuSans-c9c" d="M 678 2272 
L 4684 2272 
L 4684 1741 
L 678 1741 
L 678 2272 
z
" transform="scale(0.015625)"/>
        <path id="DejaVuSans-13" d="M 2034 4250 
Q 1547 4250 1301 3770 
Q 1056 3291 1056 2328 
Q 1056 1369 1301 889 
Q 1547 409 2034 409 
Q 2525 409 2770 889 
Q 3016 1369 3016 2328 
Q 3016 3291 2770 3770 
Q 2525 4250 2034 4250 
z
M 2034 4750 
Q 2819 4750 3233 4129 
Q 3647 3509 3647 2328 
Q 3647 1150 3233 529 
Q 2819 -91 2034 -91 
Q 1250 -91 836 529 
Q 422 1150 422 2328 
Q 422 3509 836 4129 
Q 1250 4750 2034 4750 
z
" transform="scale(0.015625)"/>
        <path id="DejaVuSans-11" d="M 684 794 
L 1344 794 
L 1344 0 
L 684 0 
L 684 794 
z
" transform="scale(0.015625)"/>
        <path id="DejaVuSans-18" d="M 691 4666 
L 3169 4666 
L 3169 4134 
L 1269 4134 
L 1269 2991 
Q 1406 3038 1543 3061 
Q 1681 3084 1819 3084 
Q 2600 3084 3056 2656 
Q 3513 2228 3513 1497 
Q 3513 744 3044 326 
Q 2575 -91 1722 -91 
Q 1428 -91 1123 -41 
Q 819 9 494 109 
L 494 744 
Q 775 591 1075 516 
Q 1375 441 1709 441 
Q 2250 441 2565 725 
Q 2881 1009 2881 1497 
Q 2881 1984 2565 2268 
Q 2250 2553 1709 2553 
Q 1456 2553 1204 2497 
Q 953 2441 691 2322 
L 691 4666 
z
" transform="scale(0.015625)"/>
       </defs>
       <use xlink:href="#DejaVuSans-c9c"/>
       <use xlink:href="#DejaVuSans-13" transform="translate(83.796875 0)"/>
       <use xlink:href="#DejaVuSans-11" transform="translate(147.421875 0)"/>
       <use xlink:href="#DejaVuSans-18" transform="translate(179.203125 0)"/>
      </g>
     </g>
    </g>
    <g id="xtick_2">
     <g id="line2d_3">
      <g>
       <use xlink:href="#mc15877b4c6" x="183.728702" y="288.360898" style="stroke: #000000; stroke-width: 0.6"/>
      </g>
     </g>
     <g id="text_2">
      <!-- 0.0 -->
      <g transform="translate(178.162608 300.179258) scale(0.07 -0.07)">
       <use xlink:href="#DejaVuSans-13"/>
       <use xlink:href="#DejaVuSans-11" transform="translate(63.625 0)"/>
       <use xlink:href="#DejaVuSans-13" transform="translate(95.40625 0)"/>
      </g>
     </g>
    </g>
    <g id="xtick_3">
     <g id="line2d_4">
      <g>
       <use xlink:href="#mc15877b4c6" x="275.09077" y="288.360898" style="stroke: #000000; stroke-width: 0.6"/>
      </g>
     </g>
     <g id="text_3">
      <!-- 0.5 -->
      <g transform="translate(269.524677 300.179258) scale(0.07 -0.07)">
       <use xlink:href="#DejaVuSans-13"/>
       <use xlink:href="#DejaVuSans-11" transform="translate(63.625 0)"/>
       <use xlink:href="#DejaVuSans-18" transform="translate(95.40625 0)"/>
      </g>
     </g>
    </g>
    <g id="xtick_4">
     <g id="line2d_5">
      <g>
       <use xlink:href="#mc15877b4c6" x="366.452839" y="288.360898" style="stroke: #000000; stroke-width: 0.6"/>
      </g>
     </g>
     <g id="text_4">
      <!-- 1.0 -->
      <g transform="translate(360.886746 300.179258) scale(0.07 -0.07)">
       <defs>
        <path id="DejaVuSans-14" d="M 794 531 
L 1825 531 
L 1825 4091 
L 703 3866 
L 703 4441 
L 1819 4666 
L 2450 4666 
L 2450 531 
L 3481 531 
L 3481 0 
L 794 0 
L 794 531 
z
" transform="scale(0.015625)"/>
       </defs>
       <use xlink:href="#DejaVuSans-14"/>
       <use xlink:href="#DejaVuSans-11" transform="translate(63.625 0)"/>
       <use xlink:href="#DejaVuSans-13" transform="translate(95.40625 0)"/>
      </g>
     </g>
    </g>
    <g id="xtick_5">
     <g id="line2d_6">
      <g>
       <use xlink:href="#mc15877b4c6" x="457.814908" y="288.360898" style="stroke: #000000; stroke-width: 0.6"/>
      </g>
     </g>
     <g id="text_5">
      <!-- 1.5 -->
      <g transform="translate(452.248815 300.179258) scale(0.07 -0.07)">
       <use xlink:href="#DejaVuSans-14"/>
       <use xlink:href="#DejaVuSans-11" transform="translate(63.625 0)"/>
       <use xlink:href="#DejaVuSans-18" transform="translate(95.40625 0)"/>
      </g>
     </g>
    </g>
    <g id="xtick_6">
     <g id="line2d_7">
      <g>
       <use xlink:href="#mc15877b4c6" x="549.176977" y="288.360898" style="stroke: #000000; stroke-width: 0.6"/>
      </g>
     </g>
     <g id="text_6">
      <!-- 2.0 -->
      <g transform="translate(543.610884 300.179258) scale(0.07 -0.07)">
       <defs>
        <path id="DejaVuSans-15" d="M 1228 531 
L 3431 531 
L 3431 0 
L 469 0 
L 469 531 
Q 828 903 1448 1529 
Q 2069 2156 2228 2338 
Q 2531 2678 2651 2914 
Q 2772 3150 2772 3378 
Q 2772 3750 2511 3984 
Q 2250 4219 1831 4219 
Q 1534 4219 1204 4116 
Q 875 4013 500 3803 
L 500 4441 
Q 881 4594 1212 4672 
Q 1544 4750 1819 4750 
Q 2544 4750 2975 4387 
Q 3406 4025 3406 3419 
Q 3406 3131 3298 2873 
Q 3191 2616 2906 2266 
Q 2828 2175 2409 1742 
Q 1991 1309 1228 531 
z
" transform="scale(0.015625)"/>
       </defs>
       <use xlink:href="#DejaVuSans-15"/>
       <use xlink:href="#DejaVuSans-11" transform="translate(63.625 0)"/>
       <use xlink:href="#DejaVuSans-13" transform="translate(95.40625 0)"/>
      </g>
     </g>
    </g>
    <g id="text_7">
     <!-- Δ score  v8 − v7   (points on 1–5 rubric;  right = v8 better) -->
     <g transform="translate(199.624297 313.079414) scale(0.095 -0.095)">
      <defs>
       <path id="DejaVuSans-329" d="M 2188 4044 
L 906 525 
L 3472 525 
L 2188 4044 
z
M 50 0 
L 1831 4666 
L 2547 4666 
L 4325 0 
L 50 0 
z
" transform="scale(0.015625)"/>
       <path id="DejaVuSans-3" transform="scale(0.015625)"/>
       <path id="DejaVuSans-56" d="M 2834 3397 
L 2834 2853 
Q 2591 2978 2328 3040 
Q 2066 3103 1784 3103 
Q 1356 3103 1142 2972 
Q 928 2841 928 2578 
Q 928 2378 1081 2264 
Q 1234 2150 1697 2047 
L 1894 2003 
Q 2506 1872 2764 1633 
Q 3022 1394 3022 966 
Q 3022 478 2636 193 
Q 2250 -91 1575 -91 
Q 1294 -91 989 -36 
Q 684 19 347 128 
L 347 722 
Q 666 556 975 473 
Q 1284 391 1588 391 
Q 1994 391 2212 530 
Q 2431 669 2431 922 
Q 2431 1156 2273 1281 
Q 2116 1406 1581 1522 
L 1381 1569 
Q 847 1681 609 1914 
Q 372 2147 372 2553 
Q 372 3047 722 3315 
Q 1072 3584 1716 3584 
Q 2034 3584 2315 3537 
Q 2597 3491 2834 3397 
z
" transform="scale(0.015625)"/>
       <path id="DejaVuSans-46" d="M 3122 3366 
L 3122 2828 
Q 2878 2963 2633 3030 
Q 2388 3097 2138 3097 
Q 1578 3097 1268 2742 
Q 959 2388 959 1747 
Q 959 1106 1268 751 
Q 1578 397 2138 397 
Q 2388 397 2633 464 
Q 2878 531 3122 666 
L 3122 134 
Q 2881 22 2623 -34 
Q 2366 -91 2075 -91 
Q 1284 -91 818 406 
Q 353 903 353 1747 
Q 353 2603 823 3093 
Q 1294 3584 2113 3584 
Q 2378 3584 2631 3529 
Q 2884 3475 3122 3366 
z
" transform="scale(0.015625)"/>
       <path id="DejaVuSans-52" d="M 1959 3097 
Q 1497 3097 1228 2736 
Q 959 2375 959 1747 
Q 959 1119 1226 758 
Q 1494 397 1959 397 
Q 2419 397 2687 759 
Q 2956 1122 2956 1747 
Q 2956 2369 2687 2733 
Q 2419 3097 1959 3097 
z
M 1959 3584 
Q 2709 3584 3137 3096 
Q 3566 2609 3566 1747 
Q 3566 888 3137 398 
Q 2709 -91 1959 -91 
Q 1206 -91 779 398 
Q 353 888 353 1747 
Q 353 2609 779 3096 
Q 1206 3584 1959 3584 
z
" transform="scale(0.015625)"/>
       <path id="DejaVuSans-55" d="M 2631 2963 
Q 2534 3019 2420 3045 
Q 2306 3072 2169 3072 
Q 1681 3072 1420 2755 
Q 1159 2438 1159 1844 
L 1159 0 
L 581 0 
L 581 3500 
L 1159 3500 
L 1159 2956 
Q 1341 3275 1631 3429 
Q 1922 3584 2338 3584 
Q 2397 3584 2469 3576 
Q 2541 3569 2628 3553 
L 2631 2963 
z
" transform="scale(0.015625)"/>
       <path id="DejaVuSans-48" d="M 3597 1894 
L 3597 1613 
L 953 1613 
Q 991 1019 1311 708 
Q 1631 397 2203 397 
Q 2534 397 2845 478 
Q 3156 559 3463 722 
L 3463 178 
Q 3153 47 2828 -22 
Q 2503 -91 2169 -91 
Q 1331 -91 842 396 
Q 353 884 353 1716 
Q 353 2575 817 3079 
Q 1281 3584 2069 3584 
Q 2775 3584 3186 3129 
Q 3597 2675 3597 1894 
z
M 3022 2063 
Q 3016 2534 2758 2815 
Q 2500 3097 2075 3097 
Q 1594 3097 1305 2825 
Q 1016 2553 972 2059 
L 3022 2063 
z
" transform="scale(0.015625)"/>
       <path id="DejaVuSans-59" d="M 191 3500 
L 800 3500 
L 1894 563 
L 2988 3500 
L 3597 3500 
L 2284 0 
L 1503 0 
L 191 3500 
z
" transform="scale(0.015625)"/>
       <path id="DejaVuSans-1b" d="M 2034 2216 
Q 1584 2216 1326 1975 
Q 1069 1734 1069 1313 
Q 1069 891 1326 650 
Q 1584 409 2034 409 
Q 2484 409 2743 651 
Q 3003 894 3003 1313 
Q 3003 1734 2745 1975 
Q 2488 2216 2034 2216 
z
M 1403 2484 
Q 997 2584 770 2862 
Q 544 3141 544 3541 
Q 544 4100 942 4425 
Q 1341 4750 2034 4750 
Q 2731 4750 3128 4425 
Q 3525 4100 3525 3541 
Q 3525 3141 3298 2862 
Q 3072 2584 2669 2484 
Q 3125 2378 3379 2068 
Q 3634 1759 3634 1313 
Q 3634 634 3220 271 
Q 2806 -91 2034 -91 
Q 1263 -91 848 271 
Q 434 634 434 1313 
Q 434 1759 690 2068 
Q 947 2378 1403 2484 
z
M 1172 3481 
Q 1172 3119 1398 2916 
Q 1625 2713 2034 2713 
Q 2441 2713 2670 2916 
Q 2900 3119 2900 3481 
Q 2900 3844 2670 4047 
Q 2441 4250 2034 4250 
Q 1625 4250 1398 4047 
Q 1172 3844 1172 3481 
z
" transform="scale(0.015625)"/>
       <path id="DejaVuSans-1a" d="M 525 4666 
L 3525 4666 
L 3525 4397 
L 1831 0 
L 1172 0 
L 2766 4134 
L 525 4134 
L 525 4666 
z
" transform="scale(0.015625)"/>
       <path id="DejaVuSans-b" d="M 1984 4856 
Q 1566 4138 1362 3434 
Q 1159 2731 1159 2009 
Q 1159 1288 1364 580 
Q 1569 -128 1984 -844 
L 1484 -844 
Q 1016 -109 783 600 
Q 550 1309 550 2009 
Q 550 2706 781 3412 
Q 1013 4119 1484 4856 
L 1984 4856 
z
" transform="scale(0.015625)"/>
       <path id="DejaVuSans-53" d="M 1159 525 
L 1159 -1331 
L 581 -1331 
L 581 3500 
L 1159 3500 
L 1159 2969 
Q 1341 3281 1617 3432 
Q 1894 3584 2278 3584 
Q 2916 3584 3314 3078 
Q 3713 2572 3713 1747 
Q 3713 922 3314 415 
Q 2916 -91 2278 -91 
Q 1894 -91 1617 61 
Q 1341 213 1159 525 
z
M 3116 1747 
Q 3116 2381 2855 2742 
Q 2594 3103 2138 3103 
Q 1681 3103 1420 2742 
Q 1159 2381 1159 1747 
Q 1159 1113 1420 752 
Q 1681 391 2138 391 
Q 2594 391 2855 752 
Q 3116 1113 3116 1747 
z
" transform="scale(0.015625)"/>
       <path id="DejaVuSans-4c" d="M 603 3500 
L 1178 3500 
L 1178 0 
L 603 0 
L 603 3500 
z
M 603 4863 
L 1178 4863 
L 1178 4134 
L 603 4134 
L 603 4863 
z
" transform="scale(0.015625)"/>
       <path id="DejaVuSans-51" d="M 3513 2113 
L 3513 0 
L 2938 0 
L 2938 2094 
Q 2938 2591 2744 2837 
Q 2550 3084 2163 3084 
Q 1697 3084 1428 2787 
Q 1159 2491 1159 1978 
L 1159 0 
L 581 0 
L 581 3500 
L 1159 3500 
L 1159 2956 
Q 1366 3272 1645 3428 
Q 1925 3584 2291 3584 
Q 2894 3584 3203 3211 
Q 3513 2838 3513 2113 
z
" transform="scale(0.015625)"/>
       <path id="DejaVuSans-57" d="M 1172 4494 
L 1172 3500 
L 2356 3500 
L 2356 3053 
L 1172 3053 
L 1172 1153 
Q 1172 725 1289 603 
Q 1406 481 1766 481 
L 2356 481 
L 2356 0 
L 1766 0 
Q 1100 0 847 248 
Q 594 497 594 1153 
L 594 3053 
L 172 3053 
L 172 3500 
L 594 3500 
L 594 4494 
L 1172 4494 
z
" transform="scale(0.015625)"/>
       <path id="DejaVuSans-af5" d="M 313 1978 
L 2888 1978 
L 2888 1528 
L 313 1528 
L 313 1978 
z
" transform="scale(0.015625)"/>
       <path id="DejaVuSans-58" d="M 544 1381 
L 544 3500 
L 1119 3500 
L 1119 1403 
Q 1119 906 1312 657 
Q 1506 409 1894 409 
Q 2359 409 2629 706 
Q 2900 1003 2900 1516 
L 2900 3500 
L 3475 3500 
L 3475 0 
L 2900 0 
L 2900 538 
Q 2691 219 2414 64 
Q 2138 -91 1772 -91 
Q 1169 -91 856 284 
Q 544 659 544 1381 
z
M 1991 3584 
L 1991 3584 
z
" transform="scale(0.015625)"/>
       <path id="DejaVuSans-45" d="M 3116 1747 
Q 3116 2381 2855 2742 
Q 2594 3103 2138 3103 
Q 1681 3103 1420 2742 
Q 1159 2381 1159 1747 
Q 1159 1113 1420 752 
Q 1681 391 2138 391 
Q 2594 391 2855 752 
Q 3116 1113 3116 1747 
z
M 1159 2969 
Q 1341 3281 1617 3432 
Q 1894 3584 2278 3584 
Q 2916 3584 3314 3078 
Q 3713 2572 3713 1747 
Q 3713 922 3314 415 
Q 2916 -91 2278 -91 
Q 1894 -91 1617 61 
Q 1341 213 1159 525 
L 1159 0 
L 581 0 
L 581 4863 
L 1159 4863 
L 1159 2969 
z
" transform="scale(0.015625)"/>
       <path id="DejaVuSans-1e" d="M 750 3309 
L 1409 3309 
L 1409 2516 
L 750 2516 
L 750 3309 
z
M 750 794 
L 1409 794 
L 1409 256 
L 897 -744 
L 494 -744 
L 750 256 
L 750 794 
z
" transform="scale(0.015625)"/>
       <path id="DejaVuSans-4a" d="M 2906 1791 
Q 2906 2416 2648 2759 
Q 2391 3103 1925 3103 
Q 1463 3103 1205 2759 
Q 947 2416 947 1791 
Q 947 1169 1205 825 
Q 1463 481 1925 481 
Q 2391 481 2648 825 
Q 2906 1169 2906 1791 
z
M 3481 434 
Q 3481 -459 3084 -895 
Q 2688 -1331 1869 -1331 
Q 1566 -1331 1297 -1286 
Q 1028 -1241 775 -1147 
L 775 -588 
Q 1028 -725 1275 -790 
Q 1522 -856 1778 -856 
Q 2344 -856 2625 -561 
Q 2906 -266 2906 331 
L 2906 616 
Q 2728 306 2450 153 
Q 2172 0 1784 0 
Q 1141 0 747 490 
Q 353 981 353 1791 
Q 353 2603 747 3093 
Q 1141 3584 1784 3584 
Q 2172 3584 2450 3431 
Q 2728 3278 2906 2969 
L 2906 3500 
L 3481 3500 
L 3481 434 
z
" transform="scale(0.015625)"/>
       <path id="DejaVuSans-4b" d="M 3513 2113 
L 3513 0 
L 2938 0 
L 2938 2094 
Q 2938 2591 2744 2837 
Q 2550 3084 2163 3084 
Q 1697 3084 1428 2787 
Q 1159 2491 1159 1978 
L 1159 0 
L 581 0 
L 581 4863 
L 1159 4863 
L 1159 2956 
Q 1366 3272 1645 3428 
Q 1925 3584 2291 3584 
Q 2894 3584 3203 3211 
Q 3513 2838 3513 2113 
z
" transform="scale(0.015625)"/>
       <path id="DejaVuSans-20" d="M 678 2906 
L 4684 2906 
L 4684 2381 
L 678 2381 
L 678 2906 
z
M 678 1631 
L 4684 1631 
L 4684 1100 
L 678 1100 
L 678 1631 
z
" transform="scale(0.015625)"/>
       <path id="DejaVuSans-c" d="M 513 4856 
L 1013 4856 
Q 1481 4119 1714 3412 
Q 1947 2706 1947 2009 
Q 1947 1309 1714 600 
Q 1481 -109 1013 -844 
L 513 -844 
Q 928 -128 1133 580 
Q 1338 1288 1338 2009 
Q 1338 2731 1133 3434 
Q 928 4138 513 4856 
z
" transform="scale(0.015625)"/>
      </defs>
      <use xlink:href="#DejaVuSans-329"/>
      <use xlink:href="#DejaVuSans-3" transform="translate(68.40625 0)"/>
      <use xlink:href="#DejaVuSans-56" transform="translate(100.1875 0)"/>
      <use xlink:href="#DejaVuSans-46" transform="translate(152.28125 0)"/>
      <use xlink:href="#DejaVuSans-52" transform="translate(207.265625 0)"/>
      <use xlink:href="#DejaVuSans-55" transform="translate(268.453125 0)"/>
      <use xlink:href="#DejaVuSans-48" transform="translate(307.359375 0)"/>
      <use xlink:href="#DejaVuSans-3" transform="translate(368.890625 0)"/>
      <use xlink:href="#DejaVuSans-3" transform="translate(400.671875 0)"/>
      <use xlink:href="#DejaVuSans-59" transform="translate(432.453125 0)"/>
      <use xlink:href="#DejaVuSans-1b" transform="translate(491.640625 0)"/>
      <use xlink:href="#DejaVuSans-3" transform="translate(555.265625 0)"/>
      <use xlink:href="#DejaVuSans-c9c" transform="translate(587.046875 0)"/>
      <use xlink:href="#DejaVuSans-3" transform="translate(670.84375 0)"/>
      <use xlink:href="#DejaVuSans-59" transform="translate(702.625 0)"/>
      <use xlink:href="#DejaVuSans-1a" transform="translate(761.8125 0)"/>
      <use xlink:href="#DejaVuSans-3" transform="translate(825.4375 0)"/>
      <use xlink:href="#DejaVuSans-3" transform="translate(857.21875 0)"/>
      <use xlink:href="#DejaVuSans-3" transform="translate(889 0)"/>
      <use xlink:href="#DejaVuSans-b" transform="translate(920.78125 0)"/>
      <use xlink:href="#DejaVuSans-53" transform="translate(959.796875 0)"/>
      <use xlink:href="#DejaVuSans-52" transform="translate(1023.28125 0)"/>
      <use xlink:href="#DejaVuSans-4c" transform="translate(1084.46875 0)"/>
      <use xlink:href="#DejaVuSans-51" transform="translate(1112.25 0)"/>
      <use xlink:href="#DejaVuSans-57" transform="translate(1175.625 0)"/>
      <use xlink:href="#DejaVuSans-56" transform="translate(1214.828125 0)"/>
      <use xlink:href="#DejaVuSans-3" transform="translate(1266.921875 0)"/>
      <use xlink:href="#DejaVuSans-52" transform="translate(1298.703125 0)"/>
      <use xlink:href="#DejaVuSans-51" transform="translate(1359.890625 0)"/>
      <use xlink:href="#DejaVuSans-3" transform="translate(1423.265625 0)"/>
      <use xlink:href="#DejaVuSans-14" transform="translate(1455.046875 0)"/>
      <use xlink:href="#DejaVuSans-af5" transform="translate(1518.671875 0)"/>
      <use xlink:href="#DejaVuSans-18" transform="translate(1568.671875 0)"/>
      <use xlink:href="#DejaVuSans-3" transform="translate(1632.296875 0)"/>
      <use xlink:href="#DejaVuSans-55" transform="translate(1664.078125 0)"/>
      <use xlink:href="#DejaVuSans-58" transform="translate(1705.1875 0)"/>
      <use xlink:href="#DejaVuSans-45" transform="translate(1768.5625 0)"/>
      <use xlink:href="#DejaVuSans-55" transform="translate(1832.046875 0)"/>
      <use xlink:href="#DejaVuSans-4c" transform="translate(1873.15625 0)"/>
      <use xlink:href="#DejaVuSans-46" transform="translate(1900.9375 0)"/>
      <use xlink:href="#DejaVuSans-1e" transform="translate(1955.921875 0)"/>
      <use xlink:href="#DejaVuSans-3" transform="translate(1989.609375 0)"/>
      <use xlink:href="#DejaVuSans-3" transform="translate(2021.390625 0)"/>
      <use xlink:href="#DejaVuSans-55" transform="translate(2053.171875 0)"/>
      <use xlink:href="#DejaVuSans-4c" transform="translate(2094.28125 0)"/>
      <use xlink:href="#DejaVuSans-4a" transform="translate(2122.0625 0)"/>
      <use xlink:href="#DejaVuSans-4b" transform="translate(2185.546875 0)"/>
      <use xlink:href="#DejaVuSans-57" transform="translate(2248.921875 0)"/>
      <use xlink:href="#DejaVuSans-3" transform="translate(2288.125 0)"/>
      <use xlink:href="#DejaVuSans-20" transform="translate(2319.90625 0)"/>
      <use xlink:href="#DejaVuSans-3" transform="translate(2403.703125 0)"/>
      <use xlink:href="#DejaVuSans-59" transform="translate(2435.484375 0)"/>
      <use xlink:href="#DejaVuSans-1b" transform="translate(2494.671875 0)"/>
      <use xlink:href="#DejaVuSans-3" transform="translate(2558.296875 0)"/>
      <use xlink:href="#DejaVuSans-45" transform="translate(2590.078125 0)"/>
      <use xlink:href="#DejaVuSans-48" transform="translate(2653.5625 0)"/>
      <use xlink:href="#DejaVuSans-57" transform="translate(2715.09375 0)"/>
      <use xlink:href="#DejaVuSans-57" transform="translate(2754.296875 0)"/>
      <use xlink:href="#DejaVuSans-48" transform="translate(2793.5 0)"/>
      <use xlink:href="#DejaVuSans-55" transform="translate(2855.03125 0)"/>
      <use xlink:href="#DejaVuSans-c" transform="translate(2896.140625 0)"/>
     </g>
    </g>
   </g>
   <g id="matplotlib.axis_2">
    <g id="ytick_1">
     <g id="line2d_8">
      <defs>
       <path id="mc17b4cd640" d="M 0 0 
L -3 0 
" style="stroke: #000000; stroke-width: 0.6"/>
      </defs>
      <g>
       <use xlink:href="#mc17b4cd640" x="74.094219" y="51.263899" style="stroke: #000000; stroke-width: 0.6"/>
      </g>
     </g>
     <g id="text_8">
      <!-- Grounding -->
      <g transform="translate(20.573437 49.732405) scale(0.09 -0.09)">
       <defs>
        <path id="DejaVuSans-2a" d="M 3809 666 
L 3809 1919 
L 2778 1919 
L 2778 2438 
L 4434 2438 
L 4434 434 
Q 4069 175 3628 42 
Q 3188 -91 2688 -91 
Q 1594 -91 976 548 
Q 359 1188 359 2328 
Q 359 3472 976 4111 
Q 1594 4750 2688 4750 
Q 3144 4750 3555 4637 
Q 3966 4525 4313 4306 
L 4313 3634 
Q 3963 3931 3569 4081 
Q 3175 4231 2741 4231 
Q 1884 4231 1454 3753 
Q 1025 3275 1025 2328 
Q 1025 1384 1454 906 
Q 1884 428 2741 428 
Q 3075 428 3337 486 
Q 3600 544 3809 666 
z
" transform="scale(0.015625)"/>
        <path id="DejaVuSans-47" d="M 2906 2969 
L 2906 4863 
L 3481 4863 
L 3481 0 
L 2906 0 
L 2906 525 
Q 2725 213 2448 61 
Q 2172 -91 1784 -91 
Q 1150 -91 751 415 
Q 353 922 353 1747 
Q 353 2572 751 3078 
Q 1150 3584 1784 3584 
Q 2172 3584 2448 3432 
Q 2725 3281 2906 2969 
z
M 947 1747 
Q 947 1113 1208 752 
Q 1469 391 1925 391 
Q 2381 391 2643 752 
Q 2906 1113 2906 1747 
Q 2906 2381 2643 2742 
Q 2381 3103 1925 3103 
Q 1469 3103 1208 2742 
Q 947 2381 947 1747 
z
" transform="scale(0.015625)"/>
       </defs>
       <use xlink:href="#DejaVuSans-2a"/>
       <use xlink:href="#DejaVuSans-55" transform="translate(77.484375 0)"/>
       <use xlink:href="#DejaVuSans-52" transform="translate(116.390625 0)"/>
       <use xlink:href="#DejaVuSans-58" transform="translate(177.578125 0)"/>
       <use xlink:href="#DejaVuSans-51" transform="translate(240.953125 0)"/>
       <use xlink:href="#DejaVuSans-47" transform="translate(304.328125 0)"/>
       <use xlink:href="#DejaVuSans-4c" transform="translate(367.8125 0)"/>
       <use xlink:href="#DejaVuSans-51" transform="translate(395.59375 0)"/>
       <use xlink:href="#DejaVuSans-4a" transform="translate(458.96875 0)"/>
      </g>
      <!-- (CS only) -->
      <g transform="translate(26.675156 60.534866) scale(0.09 -0.09)">
       <defs>
        <path id="DejaVuSans-26" d="M 4122 4306 
L 4122 3641 
Q 3803 3938 3442 4084 
Q 3081 4231 2675 4231 
Q 1875 4231 1450 3742 
Q 1025 3253 1025 2328 
Q 1025 1406 1450 917 
Q 1875 428 2675 428 
Q 3081 428 3442 575 
Q 3803 722 4122 1019 
L 4122 359 
Q 3791 134 3420 21 
Q 3050 -91 2638 -91 
Q 1578 -91 968 557 
Q 359 1206 359 2328 
Q 359 3453 968 4101 
Q 1578 4750 2638 4750 
Q 3056 4750 3426 4639 
Q 3797 4528 4122 4306 
z
" transform="scale(0.015625)"/>
        <path id="DejaVuSans-36" d="M 3425 4513 
L 3425 3897 
Q 3066 4069 2747 4153 
Q 2428 4238 2131 4238 
Q 1616 4238 1336 4038 
Q 1056 3838 1056 3469 
Q 1056 3159 1242 3001 
Q 1428 2844 1947 2747 
L 2328 2669 
Q 3034 2534 3370 2195 
Q 3706 1856 3706 1288 
Q 3706 609 3251 259 
Q 2797 -91 1919 -91 
Q 1588 -91 1214 -16 
Q 841 59 441 206 
L 441 856 
Q 825 641 1194 531 
Q 1563 422 1919 422 
Q 2459 422 2753 634 
Q 3047 847 3047 1241 
Q 3047 1584 2836 1778 
Q 2625 1972 2144 2069 
L 1759 2144 
Q 1053 2284 737 2584 
Q 422 2884 422 3419 
Q 422 4038 858 4394 
Q 1294 4750 2059 4750 
Q 2388 4750 2728 4690 
Q 3069 4631 3425 4513 
z
" transform="scale(0.015625)"/>
        <path id="DejaVuSans-4f" d="M 603 4863 
L 1178 4863 
L 1178 0 
L 603 0 
L 603 4863 
z
" transform="scale(0.015625)"/>
        <path id="DejaVuSans-5c" d="M 2059 -325 
Q 1816 -950 1584 -1140 
Q 1353 -1331 966 -1331 
L 506 -1331 
L 506 -850 
L 844 -850 
Q 1081 -850 1212 -737 
Q 1344 -625 1503 -206 
L 1606 56 
L 191 3500 
L 800 3500 
L 1894 763 
L 2988 3500 
L 3597 3500 
L 2059 -325 
z
" transform="scale(0.015625)"/>
       </defs>
       <use xlink:href="#DejaVuSans-b"/>
       <use xlink:href="#DejaVuSans-26" transform="translate(39.015625 0)"/>
       <use xlink:href="#DejaVuSans-36" transform="translate(108.84375 0)"/>
       <use xlink:href="#DejaVuSans-3" transform="translate(172.328125 0)"/>
       <use xlink:href="#DejaVuSans-52" transform="translate(204.109375 0)"/>
       <use xlink:href="#DejaVuSans-51" transform="translate(265.296875 0)"/>
       <use xlink:href="#DejaVuSans-4f" transform="translate(328.671875 0)"/>
       <use xlink:href="#DejaVuSans-5c" transform="translate(356.453125 0)"/>
       <use xlink:href="#DejaVuSans-c" transform="translate(415.640625 0)"/>
      </g>
     </g>
    </g>
    <g id="ytick_2">
     <g id="line2d_9">
      <g>
       <use xlink:href="#mc17b4cd640" x="74.094219" y="102.806725" style="stroke: #000000; stroke-width: 0.6"/>
      </g>
     </g>
     <g id="text_9">
      <!-- Reasoning -->
      <g transform="translate(20.874375 106.226022) scale(0.09 -0.09)">
       <defs>
        <path id="DejaVuSans-35" d="M 2841 2188 
Q 3044 2119 3236 1894 
Q 3428 1669 3622 1275 
L 4263 0 
L 3584 0 
L 2988 1197 
Q 2756 1666 2539 1819 
Q 2322 1972 1947 1972 
L 1259 1972 
L 1259 0 
L 628 0 
L 628 4666 
L 2053 4666 
Q 2853 4666 3247 4331 
Q 3641 3997 3641 3322 
Q 3641 2881 3436 2590 
Q 3231 2300 2841 2188 
z
M 1259 4147 
L 1259 2491 
L 2053 2491 
Q 2509 2491 2742 2702 
Q 2975 2913 2975 3322 
Q 2975 3731 2742 3939 
Q 2509 4147 2053 4147 
L 1259 4147 
z
" transform="scale(0.015625)"/>
        <path id="DejaVuSans-44" d="M 2194 1759 
Q 1497 1759 1228 1600 
Q 959 1441 959 1056 
Q 959 750 1161 570 
Q 1363 391 1709 391 
Q 2188 391 2477 730 
Q 2766 1069 2766 1631 
L 2766 1759 
L 2194 1759 
z
M 3341 1997 
L 3341 0 
L 2766 0 
L 2766 531 
Q 2569 213 2275 61 
Q 1981 -91 1556 -91 
Q 1019 -91 701 211 
Q 384 513 384 1019 
Q 384 1609 779 1909 
Q 1175 2209 1959 2209 
L 2766 2209 
L 2766 2266 
Q 2766 2663 2505 2880 
Q 2244 3097 1772 3097 
Q 1472 3097 1187 3025 
Q 903 2953 641 2809 
L 641 3341 
Q 956 3463 1253 3523 
Q 1550 3584 1831 3584 
Q 2591 3584 2966 3190 
Q 3341 2797 3341 1997 
z
" transform="scale(0.015625)"/>
       </defs>
       <use xlink:href="#DejaVuSans-35"/>
       <use xlink:href="#DejaVuSans-48" transform="translate(65 0)"/>
       <use xlink:href="#DejaVuSans-44" transform="translate(126.53125 0)"/>
       <use xlink:href="#DejaVuSans-56" transform="translate(187.8125 0)"/>
       <use xlink:href="#DejaVuSans-52" transform="translate(239.90625 0)"/>
       <use xlink:href="#DejaVuSans-51" transform="translate(301.09375 0)"/>
       <use xlink:href="#DejaVuSans-4c" transform="translate(364.46875 0)"/>
       <use xlink:href="#DejaVuSans-51" transform="translate(392.25 0)"/>
       <use xlink:href="#DejaVuSans-4a" transform="translate(455.625 0)"/>
      </g>
     </g>
    </g>
    <g id="ytick_3">
     <g id="line2d_10">
      <g>
       <use xlink:href="#mc17b4cd640" x="74.094219" y="154.349551" style="stroke: #000000; stroke-width: 0.6"/>
      </g>
     </g>
     <g id="text_10">
      <!-- Completeness -->
      <g transform="translate(3.6 157.768848) scale(0.09 -0.09)">
       <defs>
        <path id="DejaVuSans-50" d="M 3328 2828 
Q 3544 3216 3844 3400 
Q 4144 3584 4550 3584 
Q 5097 3584 5394 3201 
Q 5691 2819 5691 2113 
L 5691 0 
L 5113 0 
L 5113 2094 
Q 5113 2597 4934 2840 
Q 4756 3084 4391 3084 
Q 3944 3084 3684 2787 
Q 3425 2491 3425 1978 
L 3425 0 
L 2847 0 
L 2847 2094 
Q 2847 2600 2669 2842 
Q 2491 3084 2119 3084 
Q 1678 3084 1418 2786 
Q 1159 2488 1159 1978 
L 1159 0 
L 581 0 
L 581 3500 
L 1159 3500 
L 1159 2956 
Q 1356 3278 1631 3431 
Q 1906 3584 2284 3584 
Q 2666 3584 2933 3390 
Q 3200 3197 3328 2828 
z
" transform="scale(0.015625)"/>
       </defs>
       <use xlink:href="#DejaVuSans-26"/>
       <use xlink:href="#DejaVuSans-52" transform="translate(69.828125 0)"/>
       <use xlink:href="#DejaVuSans-50" transform="translate(131.015625 0)"/>
       <use xlink:href="#DejaVuSans-53" transform="translate(228.421875 0)"/>
       <use xlink:href="#DejaVuSans-4f" transform="translate(291.90625 0)"/>
       <use xlink:href="#DejaVuSans-48" transform="translate(319.6875 0)"/>
       <use xlink:href="#DejaVuSans-57" transform="translate(381.21875 0)"/>
       <use xlink:href="#DejaVuSans-48" transform="translate(420.421875 0)"/>
       <use xlink:href="#DejaVuSans-51" transform="translate(481.953125 0)"/>
       <use xlink:href="#DejaVuSans-48" transform="translate(545.328125 0)"/>
       <use xlink:href="#DejaVuSans-56" transform="translate(606.859375 0)"/>
       <use xlink:href="#DejaVuSans-56" transform="translate(658.953125 0)"/>
      </g>
     </g>
    </g>
    <g id="ytick_4">
     <g id="line2d_11">
      <g>
       <use xlink:href="#mc17b4cd640" x="74.094219" y="205.892377" style="stroke: #000000; stroke-width: 0.6"/>
      </g>
     </g>
     <g id="text_11">
      <!-- Usefulness -->
      <g transform="translate(18.790312 209.311674) scale(0.09 -0.09)">
       <defs>
        <path id="DejaVuSans-38" d="M 556 4666 
L 1191 4666 
L 1191 1831 
Q 1191 1081 1462 751 
Q 1734 422 2344 422 
Q 2950 422 3222 751 
Q 3494 1081 3494 1831 
L 3494 4666 
L 4128 4666 
L 4128 1753 
Q 4128 841 3676 375 
Q 3225 -91 2344 -91 
Q 1459 -91 1007 375 
Q 556 841 556 1753 
L 556 4666 
z
" transform="scale(0.015625)"/>
        <path id="DejaVuSans-49" d="M 2375 4863 
L 2375 4384 
L 1825 4384 
Q 1516 4384 1395 4259 
Q 1275 4134 1275 3809 
L 1275 3500 
L 2222 3500 
L 2222 3053 
L 1275 3053 
L 1275 0 
L 697 0 
L 697 3053 
L 147 3053 
L 147 3500 
L 697 3500 
L 697 3744 
Q 697 4328 969 4595 
Q 1241 4863 1831 4863 
L 2375 4863 
z
" transform="scale(0.015625)"/>
       </defs>
       <use xlink:href="#DejaVuSans-38"/>
       <use xlink:href="#DejaVuSans-56" transform="translate(73.1875 0)"/>
       <use xlink:href="#DejaVuSans-48" transform="translate(125.28125 0)"/>
       <use xlink:href="#DejaVuSans-49" transform="translate(186.8125 0)"/>
       <use xlink:href="#DejaVuSans-58" transform="translate(222.015625 0)"/>
       <use xlink:href="#DejaVuSans-4f" transform="translate(285.390625 0)"/>
       <use xlink:href="#DejaVuSans-51" transform="translate(313.171875 0)"/>
       <use xlink:href="#DejaVuSans-48" transform="translate(376.546875 0)"/>
       <use xlink:href="#DejaVuSans-56" transform="translate(438.078125 0)"/>
       <use xlink:href="#DejaVuSans-56" transform="translate(490.171875 0)"/>
      </g>
     </g>
    </g>
    <g id="ytick_5">
     <g id="line2d_12">
      <g>
       <use xlink:href="#mc17b4cd640" x="74.094219" y="257.435203" style="stroke: #000000; stroke-width: 0.6"/>
      </g>
     </g>
     <g id="text_12">
      <!-- Creativity -->
      <g transform="translate(24.044062 260.8545) scale(0.09 -0.09)">
       <use xlink:href="#DejaVuSans-26"/>
       <use xlink:href="#DejaVuSans-55" transform="translate(69.828125 0)"/>
       <use xlink:href="#DejaVuSans-48" transform="translate(108.734375 0)"/>
       <use xlink:href="#DejaVuSans-44" transform="translate(170.265625 0)"/>
       <use xlink:href="#DejaVuSans-57" transform="translate(231.546875 0)"/>
       <use xlink:href="#DejaVuSans-4c" transform="translate(270.75 0)"/>
       <use xlink:href="#DejaVuSans-59" transform="translate(298.53125 0)"/>
       <use xlink:href="#DejaVuSans-4c" transform="translate(357.71875 0)"/>
       <use xlink:href="#DejaVuSans-57" transform="translate(385.5 0)"/>
       <use xlink:href="#DejaVuSans-5c" transform="translate(424.703125 0)"/>
      </g>
     </g>
    </g>
   </g>
   <g id="PathCollection_1">
    <defs>
     <path id="m15fb7fd1ce" d="M 0 2.915476 
C 0.773193 2.915476 1.514823 2.608283 2.061553 2.061553 
C 2.608283 1.514823 2.915476 0.773193 2.915476 0 
C 2.915476 -0.773193 2.608283 -1.514823 2.061553 -2.061553 
C 1.514823 -2.608283 0.773193 -2.915476 0 -2.915476 
C -0.773193 -2.915476 -1.514823 -2.608283 -2.061553 -2.061553 
C -2.608283 -1.514823 -2.915476 -0.773193 -2.915476 0 
C -2.915476 0.773193 -2.608283 1.514823 -2.061553 2.061553 
C -1.514823 2.608283 -0.773193 2.915476 0 2.915476 
z
" style="stroke: #e69f00; stroke-width: 1.2"/>
    </defs>
    <g clip-path="url(#pdf9d78d85d)">
     <use xlink:href="#m15fb7fd1ce" x="549.176977" y="43.017047" style="fill: #ffffff; stroke: #e69f00; stroke-width: 1.2"/>
     <use xlink:href="#m15fb7fd1ce" x="183.728702" y="43.017047" style="fill: #ffffff; stroke: #e69f00; stroke-width: 1.2"/>
     <use xlink:href="#m15fb7fd1ce" x="183.728702" y="43.017047" style="fill: #ffffff; stroke: #e69f00; stroke-width: 1.2"/>
    </g>
   </g>
   <g id="PathCollection_2">
    <g clip-path="url(#pdf9d78d85d)">
     <use xlink:href="#m15fb7fd1ce" x="183.728702" y="94.559873" style="fill: #ffffff; stroke: #e69f00; stroke-width: 1.2"/>
     <use xlink:href="#m15fb7fd1ce" x="305.605702" y="94.559873" style="fill: #ffffff; stroke: #e69f00; stroke-width: 1.2"/>
     <use xlink:href="#m15fb7fd1ce" x="183.728702" y="94.559873" style="fill: #ffffff; stroke: #e69f00; stroke-width: 1.2"/>
    </g>
   </g>
   <g id="PathCollection_3">
    <defs>
     <path id="m7131989909" d="M 0 -2.915476 
L -2.915476 2.915476 
L 2.915476 2.915476 
z
" style="stroke: #666666; stroke-width: 1.2"/>
    </defs>
    <g clip-path="url(#pdf9d78d85d)">
     <use xlink:href="#m7131989909" x="366.452839" y="111.053577" style="fill: #ffffff; stroke: #666666; stroke-width: 1.2"/>
     <use xlink:href="#m7131989909" x="366.452839" y="111.053577" style="fill: #ffffff; stroke: #666666; stroke-width: 1.2"/>
     <use xlink:href="#m7131989909" x="366.452839" y="111.053577" style="fill: #ffffff; stroke: #666666; stroke-width: 1.2"/>
    </g>
   </g>
   <g id="PathCollection_4">
    <g clip-path="url(#pdf9d78d85d)">
     <use xlink:href="#m15fb7fd1ce" x="183.728702" y="146.102699" style="fill: #ffffff; stroke: #e69f00; stroke-width: 1.2"/>
     <use xlink:href="#m15fb7fd1ce" x="183.728702" y="146.102699" style="fill: #ffffff; stroke: #e69f00; stroke-width: 1.2"/>
     <use xlink:href="#m15fb7fd1ce" x="214.243633" y="146.102699" style="fill: #ffffff; stroke: #e69f00; stroke-width: 1.2"/>
    </g>
   </g>
   <g id="PathCollection_5">
    <g clip-path="url(#pdf9d78d85d)">
     <use xlink:href="#m7131989909" x="183.728702" y="162.596403" style="fill: #ffffff; stroke: #666666; stroke-width: 1.2"/>
     <use xlink:href="#m7131989909" x="183.728702" y="162.596403" style="fill: #ffffff; stroke: #666666; stroke-width: 1.2"/>
     <use xlink:href="#m7131989909" x="366.452839" y="162.596403" style="fill: #ffffff; stroke: #666666; stroke-width: 1.2"/>
    </g>
   </g>
   <g id="PathCollection_6">
    <g clip-path="url(#pdf9d78d85d)">
     <use xlink:href="#m15fb7fd1ce" x="183.728702" y="197.645525" style="fill: #ffffff; stroke: #e69f00; stroke-width: 1.2"/>
     <use xlink:href="#m15fb7fd1ce" x="183.728702" y="197.645525" style="fill: #ffffff; stroke: #e69f00; stroke-width: 1.2"/>
     <use xlink:href="#m15fb7fd1ce" x="183.728702" y="197.645525" style="fill: #ffffff; stroke: #e69f00; stroke-width: 1.2"/>
    </g>
   </g>
   <g id="PathCollection_7">
    <g clip-path="url(#pdf9d78d85d)">
     <use xlink:href="#m7131989909" x="183.728702" y="214.139229" style="fill: #ffffff; stroke: #666666; stroke-width: 1.2"/>
     <use xlink:href="#m7131989909" x="366.452839" y="214.139229" style="fill: #ffffff; stroke: #666666; stroke-width: 1.2"/>
     <use xlink:href="#m7131989909" x="183.728702" y="214.139229" style="fill: #ffffff; stroke: #666666; stroke-width: 1.2"/>
    </g>
   </g>
   <g id="PathCollection_8">
    <g clip-path="url(#pdf9d78d85d)">
     <use xlink:href="#m15fb7fd1ce" x="299.758529" y="249.188351" style="fill: #ffffff; stroke: #e69f00; stroke-width: 1.2"/>
     <use xlink:href="#m15fb7fd1ce" x="221.18715" y="249.188351" style="fill: #ffffff; stroke: #e69f00; stroke-width: 1.2"/>
     <use xlink:href="#m15fb7fd1ce" x="266.68546" y="249.188351" style="fill: #ffffff; stroke: #e69f00; stroke-width: 1.2"/>
    </g>
   </g>
   <g id="PathCollection_9">
    <g clip-path="url(#pdf9d78d85d)">
     <use xlink:href="#m7131989909" x="183.728702" y="265.682055" style="fill: #ffffff; stroke: #666666; stroke-width: 1.2"/>
     <use xlink:href="#m7131989909" x="366.452839" y="265.682055" style="fill: #ffffff; stroke: #666666; stroke-width: 1.2"/>
     <use xlink:href="#m7131989909" x="366.452839" y="265.682055" style="fill: #ffffff; stroke: #666666; stroke-width: 1.2"/>
    </g>
   </g>
   <g id="text_13">
    <!-- The v8 gain over v7 is most consistent in creativity and human-scored reasoning -->
    <g transform="translate(74.094219 12.338203) scale(0.115 -0.115)">
     <defs>
      <path id="DejaVuSans-Bold-37" d="M 31 4666 
L 4331 4666 
L 4331 3756 
L 2784 3756 
L 2784 0 
L 1581 0 
L 1581 3756 
L 31 3756 
L 31 4666 
z
" transform="scale(0.015625)"/>
      <path id="DejaVuSans-Bold-4b" d="M 4056 2131 
L 4056 0 
L 2931 0 
L 2931 347 
L 2931 1625 
Q 2931 2084 2911 2256 
Q 2891 2428 2841 2509 
Q 2775 2619 2662 2680 
Q 2550 2741 2406 2741 
Q 2056 2741 1856 2470 
Q 1656 2200 1656 1722 
L 1656 0 
L 538 0 
L 538 4863 
L 1656 4863 
L 1656 2988 
Q 1909 3294 2193 3439 
Q 2478 3584 2822 3584 
Q 3428 3584 3742 3212 
Q 4056 2841 4056 2131 
z
" transform="scale(0.015625)"/>
      <path id="DejaVuSans-Bold-48" d="M 4031 1759 
L 4031 1441 
L 1416 1441 
Q 1456 1047 1700 850 
Q 1944 653 2381 653 
Q 2734 653 3104 758 
Q 3475 863 3866 1075 
L 3866 213 
Q 3469 63 3072 -14 
Q 2675 -91 2278 -91 
Q 1328 -91 801 392 
Q 275 875 275 1747 
Q 275 2603 792 3093 
Q 1309 3584 2216 3584 
Q 3041 3584 3536 3087 
Q 4031 2591 4031 1759 
z
M 2881 2131 
Q 2881 2450 2695 2645 
Q 2509 2841 2209 2841 
Q 1884 2841 1681 2658 
Q 1478 2475 1428 2131 
L 2881 2131 
z
" transform="scale(0.015625)"/>
      <path id="DejaVuSans-Bold-3" transform="scale(0.015625)"/>
      <path id="DejaVuSans-Bold-59" d="M 97 3500 
L 1216 3500 
L 2088 1081 
L 2956 3500 
L 4078 3500 
L 2700 0 
L 1472 0 
L 97 3500 
z
" transform="scale(0.015625)"/>
      <path id="DejaVuSans-Bold-1b" d="M 2228 2088 
Q 1891 2088 1709 1903 
Q 1528 1719 1528 1375 
Q 1528 1031 1709 848 
Q 1891 666 2228 666 
Q 2563 666 2741 848 
Q 2919 1031 2919 1375 
Q 2919 1722 2741 1905 
Q 2563 2088 2228 2088 
z
M 1350 2484 
Q 925 2613 709 2878 
Q 494 3144 494 3541 
Q 494 4131 934 4440 
Q 1375 4750 2228 4750 
Q 3075 4750 3515 4442 
Q 3956 4134 3956 3541 
Q 3956 3144 3739 2878 
Q 3522 2613 3097 2484 
Q 3572 2353 3814 2058 
Q 4056 1763 4056 1313 
Q 4056 619 3595 264 
Q 3134 -91 2228 -91 
Q 1319 -91 855 264 
Q 391 619 391 1313 
Q 391 1763 633 2058 
Q 875 2353 1350 2484 
z
M 1631 3419 
Q 1631 3141 1786 2991 
Q 1941 2841 2228 2841 
Q 2509 2841 2662 2991 
Q 2816 3141 2816 3419 
Q 2816 3697 2662 3845 
Q 2509 3994 2228 3994 
Q 1941 3994 1786 3844 
Q 1631 3694 1631 3419 
z
" transform="scale(0.015625)"/>
      <path id="DejaVuSans-Bold-4a" d="M 2919 594 
Q 2688 288 2409 144 
Q 2131 0 1766 0 
Q 1125 0 706 504 
Q 288 1009 288 1791 
Q 288 2575 706 3076 
Q 1125 3578 1766 3578 
Q 2131 3578 2409 3434 
Q 2688 3291 2919 2981 
L 2919 3500 
L 4044 3500 
L 4044 353 
Q 4044 -491 3511 -936 
Q 2978 -1381 1966 -1381 
Q 1638 -1381 1331 -1331 
Q 1025 -1281 716 -1178 
L 716 -306 
Q 1009 -475 1290 -558 
Q 1572 -641 1856 -641 
Q 2406 -641 2662 -400 
Q 2919 -159 2919 353 
L 2919 594 
z
M 2181 2772 
Q 1834 2772 1640 2515 
Q 1447 2259 1447 1791 
Q 1447 1309 1634 1061 
Q 1822 813 2181 813 
Q 2531 813 2725 1069 
Q 2919 1325 2919 1791 
Q 2919 2259 2725 2515 
Q 2531 2772 2181 2772 
z
" transform="scale(0.015625)"/>
      <path id="DejaVuSans-Bold-44" d="M 2106 1575 
Q 1756 1575 1579 1456 
Q 1403 1338 1403 1106 
Q 1403 894 1545 773 
Q 1688 653 1941 653 
Q 2256 653 2472 879 
Q 2688 1106 2688 1447 
L 2688 1575 
L 2106 1575 
z
M 3816 1997 
L 3816 0 
L 2688 0 
L 2688 519 
Q 2463 200 2181 54 
Q 1900 -91 1497 -91 
Q 953 -91 614 226 
Q 275 544 275 1050 
Q 275 1666 698 1953 
Q 1122 2241 2028 2241 
L 2688 2241 
L 2688 2328 
Q 2688 2594 2478 2717 
Q 2269 2841 1825 2841 
Q 1466 2841 1156 2769 
Q 847 2697 581 2553 
L 581 3406 
Q 941 3494 1303 3539 
Q 1666 3584 2028 3584 
Q 2975 3584 3395 3211 
Q 3816 2838 3816 1997 
z
" transform="scale(0.015625)"/>
      <path id="DejaVuSans-Bold-4c" d="M 538 3500 
L 1656 3500 
L 1656 0 
L 538 0 
L 538 3500 
z
M 538 4863 
L 1656 4863 
L 1656 3950 
L 538 3950 
L 538 4863 
z
" transform="scale(0.015625)"/>
      <path id="DejaVuSans-Bold-51" d="M 4056 2131 
L 4056 0 
L 2931 0 
L 2931 347 
L 2931 1631 
Q 2931 2084 2911 2256 
Q 2891 2428 2841 2509 
Q 2775 2619 2662 2680 
Q 2550 2741 2406 2741 
Q 2056 2741 1856 2470 
Q 1656 2200 1656 1722 
L 1656 0 
L 538 0 
L 538 3500 
L 1656 3500 
L 1656 2988 
Q 1909 3294 2193 3439 
Q 2478 3584 2822 3584 
Q 3428 3584 3742 3212 
Q 4056 2841 4056 2131 
z
" transform="scale(0.015625)"/>
      <path id="DejaVuSans-Bold-52" d="M 2203 2784 
Q 1831 2784 1636 2517 
Q 1441 2250 1441 1747 
Q 1441 1244 1636 976 
Q 1831 709 2203 709 
Q 2569 709 2762 976 
Q 2956 1244 2956 1747 
Q 2956 2250 2762 2517 
Q 2569 2784 2203 2784 
z
M 2203 3584 
Q 3106 3584 3614 3096 
Q 4122 2609 4122 1747 
Q 4122 884 3614 396 
Q 3106 -91 2203 -91 
Q 1297 -91 786 396 
Q 275 884 275 1747 
Q 275 2609 786 3096 
Q 1297 3584 2203 3584 
z
" transform="scale(0.015625)"/>
      <path id="DejaVuSans-Bold-55" d="M 3138 2547 
Q 2991 2616 2845 2648 
Q 2700 2681 2553 2681 
Q 2122 2681 1889 2404 
Q 1656 2128 1656 1613 
L 1656 0 
L 538 0 
L 538 3500 
L 1656 3500 
L 1656 2925 
Q 1872 3269 2151 3426 
Q 2431 3584 2822 3584 
Q 2878 3584 2943 3579 
Q 3009 3575 3134 3559 
L 3138 2547 
z
" transform="scale(0.015625)"/>
      <path id="DejaVuSans-Bold-1a" d="M 428 4666 
L 3944 4666 
L 3944 3988 
L 2125 0 
L 953 0 
L 2675 3781 
L 428 3781 
L 428 4666 
z
" transform="scale(0.015625)"/>
      <path id="DejaVuSans-Bold-56" d="M 3272 3391 
L 3272 2541 
Q 2913 2691 2578 2766 
Q 2244 2841 1947 2841 
Q 1628 2841 1473 2761 
Q 1319 2681 1319 2516 
Q 1319 2381 1436 2309 
Q 1553 2238 1856 2203 
L 2053 2175 
Q 2913 2066 3209 1816 
Q 3506 1566 3506 1031 
Q 3506 472 3093 190 
Q 2681 -91 1863 -91 
Q 1516 -91 1145 -36 
Q 775 19 384 128 
L 384 978 
Q 719 816 1070 734 
Q 1422 653 1784 653 
Q 2113 653 2278 743 
Q 2444 834 2444 1013 
Q 2444 1163 2330 1236 
Q 2216 1309 1875 1350 
L 1678 1375 
Q 931 1469 631 1722 
Q 331 1975 331 2491 
Q 331 3047 712 3315 
Q 1094 3584 1881 3584 
Q 2191 3584 2531 3537 
Q 2872 3491 3272 3391 
z
" transform="scale(0.015625)"/>
      <path id="DejaVuSans-Bold-50" d="M 3781 2919 
Q 3994 3244 4286 3414 
Q 4578 3584 4928 3584 
Q 5531 3584 5847 3212 
Q 6163 2841 6163 2131 
L 6163 0 
L 5038 0 
L 5038 1825 
Q 5041 1866 5042 1909 
Q 5044 1953 5044 2034 
Q 5044 2406 4934 2573 
Q 4825 2741 4581 2741 
Q 4263 2741 4089 2478 
Q 3916 2216 3909 1719 
L 3909 0 
L 2784 0 
L 2784 1825 
Q 2784 2406 2684 2573 
Q 2584 2741 2328 2741 
Q 2006 2741 1831 2477 
Q 1656 2213 1656 1722 
L 1656 0 
L 531 0 
L 531 3500 
L 1656 3500 
L 1656 2988 
Q 1863 3284 2130 3434 
Q 2397 3584 2719 3584 
Q 3081 3584 3359 3409 
Q 3638 3234 3781 2919 
z
" transform="scale(0.015625)"/>
      <path id="DejaVuSans-Bold-57" d="M 1759 4494 
L 1759 3500 
L 2913 3500 
L 2913 2700 
L 1759 2700 
L 1759 1216 
Q 1759 972 1856 886 
Q 1953 800 2241 800 
L 2816 800 
L 2816 0 
L 1856 0 
Q 1194 0 917 276 
Q 641 553 641 1216 
L 641 2700 
L 84 2700 
L 84 3500 
L 641 3500 
L 641 4494 
L 1759 4494 
z
" transform="scale(0.015625)"/>
      <path id="DejaVuSans-Bold-46" d="M 3366 3391 
L 3366 2478 
Q 3138 2634 2908 2709 
Q 2678 2784 2431 2784 
Q 1963 2784 1702 2511 
Q 1441 2238 1441 1747 
Q 1441 1256 1702 982 
Q 1963 709 2431 709 
Q 2694 709 2930 787 
Q 3166 866 3366 1019 
L 3366 103 
Q 3103 6 2833 -42 
Q 2563 -91 2291 -91 
Q 1344 -91 809 395 
Q 275 881 275 1747 
Q 275 2613 809 3098 
Q 1344 3584 2291 3584 
Q 2566 3584 2833 3536 
Q 3100 3488 3366 3391 
z
" transform="scale(0.015625)"/>
      <path id="DejaVuSans-Bold-5c" d="M 78 3500 
L 1197 3500 
L 2138 1125 
L 2938 3500 
L 4056 3500 
L 2584 -331 
Q 2363 -916 2067 -1148 
Q 1772 -1381 1288 -1381 
L 641 -1381 
L 641 -647 
L 991 -647 
Q 1275 -647 1404 -556 
Q 1534 -466 1606 -231 
L 1638 -134 
L 78 3500 
z
" transform="scale(0.015625)"/>
      <path id="DejaVuSans-Bold-47" d="M 2919 2988 
L 2919 4863 
L 4044 4863 
L 4044 0 
L 2919 0 
L 2919 506 
Q 2688 197 2409 53 
Q 2131 -91 1766 -91 
Q 1119 -91 703 423 
Q 288 938 288 1747 
Q 288 2556 703 3070 
Q 1119 3584 1766 3584 
Q 2128 3584 2408 3439 
Q 2688 3294 2919 2988 
z
M 2181 722 
Q 2541 722 2730 984 
Q 2919 1247 2919 1747 
Q 2919 2247 2730 2509 
Q 2541 2772 2181 2772 
Q 1825 2772 1636 2509 
Q 1447 2247 1447 1747 
Q 1447 1247 1636 984 
Q 1825 722 2181 722 
z
" transform="scale(0.015625)"/>
      <path id="DejaVuSans-Bold-58" d="M 500 1363 
L 500 3500 
L 1625 3500 
L 1625 3150 
Q 1625 2866 1622 2436 
Q 1619 2006 1619 1863 
Q 1619 1441 1641 1255 
Q 1663 1069 1716 984 
Q 1784 875 1895 815 
Q 2006 756 2150 756 
Q 2500 756 2700 1025 
Q 2900 1294 2900 1772 
L 2900 3500 
L 4019 3500 
L 4019 0 
L 2900 0 
L 2900 506 
Q 2647 200 2364 54 
Q 2081 -91 1741 -91 
Q 1134 -91 817 281 
Q 500 653 500 1363 
z
" transform="scale(0.015625)"/>
      <path id="DejaVuSans-Bold-10" d="M 347 2297 
L 2309 2297 
L 2309 1388 
L 347 1388 
L 347 2297 
z
" transform="scale(0.015625)"/>
     </defs>
     <use xlink:href="#DejaVuSans-Bold-37"/>
     <use xlink:href="#DejaVuSans-Bold-4b" transform="translate(68.21875 0)"/>
     <use xlink:href="#DejaVuSans-Bold-48" transform="translate(139.40625 0)"/>
     <use xlink:href="#DejaVuSans-Bold-3" transform="translate(207.234375 0)"/>
     <use xlink:href="#DejaVuSans-Bold-59" transform="translate(242.046875 0)"/>
     <use xlink:href="#DejaVuSans-Bold-1b" transform="translate(307.234375 0)"/>
     <use xlink:href="#DejaVuSans-Bold-3" transform="translate(376.8125 0)"/>
     <use xlink:href="#DejaVuSans-Bold-4a" transform="translate(411.625 0)"/>
     <use xlink:href="#DejaVuSans-Bold-44" transform="translate(483.203125 0)"/>
     <use xlink:href="#DejaVuSans-Bold-4c" transform="translate(550.6875 0)"/>
     <use xlink:href="#DejaVuSans-Bold-51" transform="translate(584.96875 0)"/>
     <use xlink:href="#DejaVuSans-Bold-3" transform="translate(656.15625 0)"/>
     <use xlink:href="#DejaVuSans-Bold-52" transform="translate(690.96875 0)"/>
     <use xlink:href="#DejaVuSans-Bold-59" transform="translate(759.671875 0)"/>
     <use xlink:href="#DejaVuSans-Bold-48" transform="translate(824.859375 0)"/>
     <use xlink:href="#DejaVuSans-Bold-55" transform="translate(892.6875 0)"/>
     <use xlink:href="#DejaVuSans-Bold-3" transform="translate(942 0)"/>
     <use xlink:href="#DejaVuSans-Bold-59" transform="translate(976.8125 0)"/>
     <use xlink:href="#DejaVuSans-Bold-1a" transform="translate(1042 0)"/>
     <use xlink:href="#DejaVuSans-Bold-3" transform="translate(1111.578125 0)"/>
     <use xlink:href="#DejaVuSans-Bold-4c" transform="translate(1146.390625 0)"/>
     <use xlink:href="#DejaVuSans-Bold-56" transform="translate(1180.671875 0)"/>
     <use xlink:href="#DejaVuSans-Bold-3" transform="translate(1240.1875 0)"/>
     <use xlink:href="#DejaVuSans-Bold-50" transform="translate(1275 0)"/>
     <use xlink:href="#DejaVuSans-Bold-52" transform="translate(1379.203125 0)"/>
     <use xlink:href="#DejaVuSans-Bold-56" transform="translate(1447.90625 0)"/>
     <use xlink:href="#DejaVuSans-Bold-57" transform="translate(1507.421875 0)"/>
     <use xlink:href="#DejaVuSans-Bold-3" transform="translate(1555.21875 0)"/>
     <use xlink:href="#DejaVuSans-Bold-46" transform="translate(1590.03125 0)"/>
     <use xlink:href="#DejaVuSans-Bold-52" transform="translate(1649.3125 0)"/>
     <use xlink:href="#DejaVuSans-Bold-51" transform="translate(1718.015625 0)"/>
     <use xlink:href="#DejaVuSans-Bold-56" transform="translate(1789.203125 0)"/>
     <use xlink:href="#DejaVuSans-Bold-4c" transform="translate(1848.71875 0)"/>
     <use xlink:href="#DejaVuSans-Bold-56" transform="translate(1883 0)"/>
     <use xlink:href="#DejaVuSans-Bold-57" transform="translate(1942.515625 0)"/>
     <use xlink:href="#DejaVuSans-Bold-48" transform="translate(1990.3125 0)"/>
     <use xlink:href="#DejaVuSans-Bold-51" transform="translate(2058.140625 0)"/>
     <use xlink:href="#DejaVuSans-Bold-57" transform="translate(2129.328125 0)"/>
     <use xlink:href="#DejaVuSans-Bold-3" transform="translate(2177.125 0)"/>
     <use xlink:href="#DejaVuSans-Bold-4c" transform="translate(2211.9375 0)"/>
     <use xlink:href="#DejaVuSans-Bold-51" transform="translate(2246.21875 0)"/>
     <use xlink:href="#DejaVuSans-Bold-3" transform="translate(2317.40625 0)"/>
     <use xlink:href="#DejaVuSans-Bold-46" transform="translate(2352.21875 0)"/>
     <use xlink:href="#DejaVuSans-Bold-55" transform="translate(2411.5 0)"/>
     <use xlink:href="#DejaVuSans-Bold-48" transform="translate(2460.8125 0)"/>
     <use xlink:href="#DejaVuSans-Bold-44" transform="translate(2528.640625 0)"/>
     <use xlink:href="#DejaVuSans-Bold-57" transform="translate(2596.125 0)"/>
     <use xlink:href="#DejaVuSans-Bold-4c" transform="translate(2643.921875 0)"/>
     <use xlink:href="#DejaVuSans-Bold-59" transform="translate(2678.203125 0)"/>
     <use xlink:href="#DejaVuSans-Bold-4c" transform="translate(2743.390625 0)"/>
     <use xlink:href="#DejaVuSans-Bold-57" transform="translate(2777.671875 0)"/>
     <use xlink:href="#DejaVuSans-Bold-5c" transform="translate(2825.46875 0)"/>
     <use xlink:href="#DejaVuSans-Bold-3" transform="translate(2890.65625 0)"/>
     <use xlink:href="#DejaVuSans-Bold-44" transform="translate(2925.46875 0)"/>
     <use xlink:href="#DejaVuSans-Bold-51" transform="translate(2992.953125 0)"/>
     <use xlink:href="#DejaVuSans-Bold-47" transform="translate(3064.140625 0)"/>
     <use xlink:href="#DejaVuSans-Bold-3" transform="translate(3135.71875 0)"/>
     <use xlink:href="#DejaVuSans-Bold-4b" transform="translate(3170.53125 0)"/>
     <use xlink:href="#DejaVuSans-Bold-58" transform="translate(3241.71875 0)"/>
     <use xlink:href="#DejaVuSans-Bold-50" transform="translate(3312.90625 0)"/>
     <use xlink:href="#DejaVuSans-Bold-44" transform="translate(3417.109375 0)"/>
     <use xlink:href="#DejaVuSans-Bold-51" transform="translate(3484.59375 0)"/>
     <use xlink:href="#DejaVuSans-Bold-10" transform="translate(3555.78125 0)"/>
     <use xlink:href="#DejaVuSans-Bold-56" transform="translate(3597.28125 0)"/>
     <use xlink:href="#DejaVuSans-Bold-46" transform="translate(3656.796875 0)"/>
     <use xlink:href="#DejaVuSans-Bold-52" transform="translate(3716.078125 0)"/>
     <use xlink:href="#DejaVuSans-Bold-55" transform="translate(3784.78125 0)"/>
     <use xlink:href="#DejaVuSans-Bold-48" transform="translate(3834.09375 0)"/>
     <use xlink:href="#DejaVuSans-Bold-47" transform="translate(3901.921875 0)"/>
     <use xlink:href="#DejaVuSans-Bold-3" transform="translate(3973.5 0)"/>
     <use xlink:href="#DejaVuSans-Bold-55" transform="translate(4008.3125 0)"/>
     <use xlink:href="#DejaVuSans-Bold-48" transform="translate(4057.625 0)"/>
     <use xlink:href="#DejaVuSans-Bold-44" transform="translate(4125.453125 0)"/>
     <use xlink:href="#DejaVuSans-Bold-56" transform="translate(4192.9375 0)"/>
     <use xlink:href="#DejaVuSans-Bold-52" transform="translate(4252.453125 0)"/>
     <use xlink:href="#DejaVuSans-Bold-51" transform="translate(4321.15625 0)"/>
     <use xlink:href="#DejaVuSans-Bold-4c" transform="translate(4392.34375 0)"/>
     <use xlink:href="#DejaVuSans-Bold-51" transform="translate(4426.625 0)"/>
     <use xlink:href="#DejaVuSans-Bold-4a" transform="translate(4497.8125 0)"/>
    </g>
   </g>
   <g id="PathCollection_10">
    <defs>
     <path id="m94a7c98d31" d="M 0 5.477226 
C 1.452577 5.477226 2.845856 4.900111 3.872983 3.872983 
C 4.900111 2.845856 5.477226 1.452577 5.477226 0 
C 5.477226 -1.452577 4.900111 -2.845856 3.872983 -3.872983 
C 2.845856 -4.900111 1.452577 -5.477226 0 -5.477226 
C -1.452577 -5.477226 -2.845856 -4.900111 -3.872983 -3.872983 
C -4.900111 -2.845856 -5.477226 -1.452577 -5.477226 0 
C -5.477226 1.452577 -4.900111 2.845856 -3.872983 3.872983 
C -2.845856 4.900111 -1.452577 5.477226 0 5.477226 
z
" style="stroke: #000000"/>
    </defs>
    <g clip-path="url(#pdf9d78d85d)">
     <use xlink:href="#m94a7c98d31" x="305.544793" y="43.017047" style="fill: #e69f00; stroke: #000000"/>
    </g>
   </g>
   <g id="PathCollection_11">
    <g clip-path="url(#pdf9d78d85d)">
     <use xlink:href="#m94a7c98d31" x="224.354368" y="94.559873" style="fill: #e69f00; stroke: #000000"/>
    </g>
   </g>
   <g id="PathCollection_12">
    <defs>
     <path id="m7aa424d853" d="M 0 -5.477226 
L -5.477226 5.477226 
L 5.477226 5.477226 
z
" style="stroke: #000000"/>
    </defs>
    <g clip-path="url(#pdf9d78d85d)">
     <use xlink:href="#m7aa424d853" x="366.452839" y="111.053577" style="fill: #888888; stroke: #000000"/>
    </g>
   </g>
   <g id="PathCollection_13">
    <g clip-path="url(#pdf9d78d85d)">
     <use xlink:href="#m94a7c98d31" x="193.900345" y="146.102699" style="fill: #e69f00; stroke: #000000"/>
    </g>
   </g>
   <g id="PathCollection_14">
    <g clip-path="url(#pdf9d78d85d)">
     <use xlink:href="#m7aa424d853" x="244.636747" y="162.596403" style="fill: #888888; stroke: #000000"/>
    </g>
   </g>
   <g id="PathCollection_15">
    <g clip-path="url(#pdf9d78d85d)">
     <use xlink:href="#m94a7c98d31" x="183.728702" y="197.645525" style="fill: #e69f00; stroke: #000000"/>
    </g>
   </g>
   <g id="PathCollection_16">
    <g clip-path="url(#pdf9d78d85d)">
     <use xlink:href="#m7aa424d853" x="244.636747" y="214.139229" style="fill: #888888; stroke: #000000"/>
    </g>
   </g>
   <g id="PathCollection_17">
    <g clip-path="url(#pdf9d78d85d)">
     <use xlink:href="#m94a7c98d31" x="262.543713" y="249.188351" style="fill: #e69f00; stroke: #000000"/>
    </g>
   </g>
   <g id="PathCollection_18">
    <g clip-path="url(#pdf9d78d85d)">
     <use xlink:href="#m7aa424d853" x="305.544793" y="265.682055" style="fill: #888888; stroke: #000000"/>
    </g>
   </g>
   <g id="legend_1">
    <g id="line2d_13">
     <defs>
      <path id="mf140236bf7" d="M 0 5 
C 1.326016 5 2.597899 4.473168 3.535534 3.535534 
C 4.473168 2.597899 5 1.326016 5 0 
C 5 -1.326016 4.473168 -2.597899 3.535534 -3.535534 
C 2.597899 -4.473168 1.326016 -5 0 -5 
C -1.326016 -5 -2.597899 -4.473168 -3.535534 -3.535534 
C -4.473168 -2.597899 -5 -1.326016 -5 0 
C -5 1.326016 -4.473168 2.597899 -3.535534 3.535534 
C -2.597899 4.473168 -1.326016 5 0 5 
z
" style="stroke: #000000"/>
     </defs>
     <g>
      <use xlink:href="#mf140236bf7" x="453.932109" y="243.432383" style="fill: #e69f00; stroke: #000000"/>
     </g>
    </g>
    <g id="text_14">
     <!-- CS-harness panel (mean) -->
     <g transform="translate(467.432109 246.057383) scale(0.075 -0.075)">
      <defs>
       <path id="DejaVuSans-10" d="M 313 2009 
L 1997 2009 
L 1997 1497 
L 313 1497 
L 313 2009 
z
" transform="scale(0.015625)"/>
      </defs>
      <use xlink:href="#DejaVuSans-26"/>
      <use xlink:href="#DejaVuSans-36" transform="translate(69.828125 0)"/>
      <use xlink:href="#DejaVuSans-10" transform="translate(133.3125 0)"/>
      <use xlink:href="#DejaVuSans-4b" transform="translate(169.390625 0)"/>
      <use xlink:href="#DejaVuSans-44" transform="translate(232.765625 0)"/>
      <use xlink:href="#DejaVuSans-55" transform="translate(294.046875 0)"/>
      <use xlink:href="#DejaVuSans-51" transform="translate(333.40625 0)"/>
      <use xlink:href="#DejaVuSans-48" transform="translate(396.78125 0)"/>
      <use xlink:href="#DejaVuSans-56" transform="translate(458.3125 0)"/>
      <use xlink:href="#DejaVuSans-56" transform="translate(510.40625 0)"/>
      <use xlink:href="#DejaVuSans-3" transform="translate(562.5 0)"/>
      <use xlink:href="#DejaVuSans-53" transform="translate(594.28125 0)"/>
      <use xlink:href="#DejaVuSans-44" transform="translate(657.765625 0)"/>
      <use xlink:href="#DejaVuSans-51" transform="translate(719.046875 0)"/>
      <use xlink:href="#DejaVuSans-48" transform="translate(782.421875 0)"/>
      <use xlink:href="#DejaVuSans-4f" transform="translate(843.953125 0)"/>
      <use xlink:href="#DejaVuSans-3" transform="translate(871.734375 0)"/>
      <use xlink:href="#DejaVuSans-b" transform="translate(903.515625 0)"/>
      <use xlink:href="#DejaVuSans-50" transform="translate(942.53125 0)"/>
      <use xlink:href="#DejaVuSans-48" transform="translate(1039.9375 0)"/>
      <use xlink:href="#DejaVuSans-44" transform="translate(1101.46875 0)"/>
      <use xlink:href="#DejaVuSans-51" transform="translate(1162.75 0)"/>
      <use xlink:href="#DejaVuSans-c" transform="translate(1226.125 0)"/>
     </g>
    </g>
    <g id="line2d_14">
     <defs>
      <path id="m7a66bd496b" d="M 0 3 
C 0.795609 3 1.55874 2.683901 2.12132 2.12132 
C 2.683901 1.55874 3 0.795609 3 0 
C 3 -0.795609 2.683901 -1.55874 2.12132 -2.12132 
C 1.55874 -2.683901 0.795609 -3 0 -3 
C -0.795609 -3 -1.55874 -2.683901 -2.12132 -2.12132 
C -2.683901 -1.55874 -3 -0.795609 -3 0 
C -3 0.795609 -2.683901 1.55874 -2.12132 2.12132 
C -1.55874 2.683901 -0.795609 3 0 3 
z
" style="stroke: #e69f00"/>
     </defs>
     <g>
      <use xlink:href="#m7a66bd496b" x="453.932109" y="254.682969" style="fill: #ffffff; stroke: #e69f00"/>
     </g>
    </g>
    <g id="text_15">
     <!-- CS-harness, per question (n=3) -->
     <g transform="translate(467.432109 257.307969) scale(0.075 -0.075)">
      <defs>
       <path id="DejaVuSans-f" d="M 750 794 
L 1409 794 
L 1409 256 
L 897 -744 
L 494 -744 
L 750 256 
L 750 794 
z
" transform="scale(0.015625)"/>
       <path id="DejaVuSans-54" d="M 947 1747 
Q 947 1113 1208 752 
Q 1469 391 1925 391 
Q 2381 391 2643 752 
Q 2906 1113 2906 1747 
Q 2906 2381 2643 2742 
Q 2381 3103 1925 3103 
Q 1469 3103 1208 2742 
Q 947 2381 947 1747 
z
M 2906 525 
Q 2725 213 2448 61 
Q 2172 -91 1784 -91 
Q 1150 -91 751 415 
Q 353 922 353 1747 
Q 353 2572 751 3078 
Q 1150 3584 1784 3584 
Q 2172 3584 2448 3432 
Q 2725 3281 2906 2969 
L 2906 3500 
L 3481 3500 
L 3481 -1331 
L 2906 -1331 
L 2906 525 
z
" transform="scale(0.015625)"/>
       <path id="DejaVuSans-16" d="M 2597 2516 
Q 3050 2419 3304 2112 
Q 3559 1806 3559 1356 
Q 3559 666 3084 287 
Q 2609 -91 1734 -91 
Q 1441 -91 1130 -33 
Q 819 25 488 141 
L 488 750 
Q 750 597 1062 519 
Q 1375 441 1716 441 
Q 2309 441 2620 675 
Q 2931 909 2931 1356 
Q 2931 1769 2642 2001 
Q 2353 2234 1838 2234 
L 1294 2234 
L 1294 2753 
L 1863 2753 
Q 2328 2753 2575 2939 
Q 2822 3125 2822 3475 
Q 2822 3834 2567 4026 
Q 2313 4219 1838 4219 
Q 1578 4219 1281 4162 
Q 984 4106 628 3988 
L 628 4550 
Q 988 4650 1302 4700 
Q 1616 4750 1894 4750 
Q 2613 4750 3031 4423 
Q 3450 4097 3450 3541 
Q 3450 3153 3228 2886 
Q 3006 2619 2597 2516 
z
" transform="scale(0.015625)"/>
      </defs>
      <use xlink:href="#DejaVuSans-26"/>
      <use xlink:href="#DejaVuSans-36" transform="translate(69.828125 0)"/>
      <use xlink:href="#DejaVuSans-10" transform="translate(133.3125 0)"/>
      <use xlink:href="#DejaVuSans-4b" transform="translate(169.390625 0)"/>
      <use xlink:href="#DejaVuSans-44" transform="translate(232.765625 0)"/>
      <use xlink:href="#DejaVuSans-55" transform="translate(294.046875 0)"/>
      <use xlink:href="#DejaVuSans-51" transform="translate(333.40625 0)"/>
      <use xlink:href="#DejaVuSans-48" transform="translate(396.78125 0)"/>
      <use xlink:href="#DejaVuSans-56" transform="translate(458.3125 0)"/>
      <use xlink:href="#DejaVuSans-56" transform="translate(510.40625 0)"/>
      <use xlink:href="#DejaVuSans-f" transform="translate(562.5 0)"/>
      <use xlink:href="#DejaVuSans-3" transform="translate(594.28125 0)"/>
      <use xlink:href="#DejaVuSans-53" transform="translate(626.0625 0)"/>
      <use xlink:href="#DejaVuSans-48" transform="translate(689.546875 0)"/>
      <use xlink:href="#DejaVuSans-55" transform="translate(751.078125 0)"/>
      <use xlink:href="#DejaVuSans-3" transform="translate(792.1875 0)"/>
      <use xlink:href="#DejaVuSans-54" transform="translate(823.96875 0)"/>
      <use xlink:href="#DejaVuSans-58" transform="translate(887.453125 0)"/>
      <use xlink:href="#DejaVuSans-48" transform="translate(950.828125 0)"/>
      <use xlink:href="#DejaVuSans-56" transform="translate(1012.359375 0)"/>
      <use xlink:href="#DejaVuSans-57" transform="translate(1064.453125 0)"/>
      <use xlink:href="#DejaVuSans-4c" transform="translate(1103.65625 0)"/>
      <use xlink:href="#DejaVuSans-52" transform="translate(1131.4375 0)"/>
      <use xlink:href="#DejaVuSans-51" transform="translate(1192.625 0)"/>
      <use xlink:href="#DejaVuSans-3" transform="translate(1256 0)"/>
      <use xlink:href="#DejaVuSans-b" transform="translate(1287.78125 0)"/>
      <use xlink:href="#DejaVuSans-51" transform="translate(1326.796875 0)"/>
      <use xlink:href="#DejaVuSans-20" transform="translate(1390.171875 0)"/>
      <use xlink:href="#DejaVuSans-16" transform="translate(1473.96875 0)"/>
      <use xlink:href="#DejaVuSans-c" transform="translate(1537.59375 0)"/>
     </g>
    </g>
    <g id="line2d_15">
     <defs>
      <path id="m142fda5f5c" d="M 0 -5 
L -5 5 
L 5 5 
z
" style="stroke: #000000; stroke-linejoin: miter"/>
     </defs>
     <g>
      <use xlink:href="#m142fda5f5c" x="453.932109" y="265.933555" style="fill: #888888; stroke: #000000; stroke-linejoin: miter"/>
     </g>
    </g>
    <g id="text_16">
     <!-- Human expert (mean) -->
     <g transform="translate(467.432109 268.558555) scale(0.075 -0.075)">
      <defs>
       <path id="DejaVuSans-2b" d="M 628 4666 
L 1259 4666 
L 1259 2753 
L 3553 2753 
L 3553 4666 
L 4184 4666 
L 4184 0 
L 3553 0 
L 3553 2222 
L 1259 2222 
L 1259 0 
L 628 0 
L 628 4666 
z
" transform="scale(0.015625)"/>
       <path id="DejaVuSans-5b" d="M 3513 3500 
L 2247 1797 
L 3578 0 
L 2900 0 
L 1881 1375 
L 863 0 
L 184 0 
L 1544 1831 
L 300 3500 
L 978 3500 
L 1906 2253 
L 2834 3500 
L 3513 3500 
z
" transform="scale(0.015625)"/>
      </defs>
      <use xlink:href="#DejaVuSans-2b"/>
      <use xlink:href="#DejaVuSans-58" transform="translate(75.203125 0)"/>
      <use xlink:href="#DejaVuSans-50" transform="translate(138.578125 0)"/>
      <use xlink:href="#DejaVuSans-44" transform="translate(235.984375 0)"/>
      <use xlink:href="#DejaVuSans-51" transform="translate(297.265625 0)"/>
      <use xlink:href="#DejaVuSans-3" transform="translate(360.640625 0)"/>
      <use xlink:href="#DejaVuSans-48" transform="translate(392.421875 0)"/>
      <use xlink:href="#DejaVuSans-5b" transform="translate(452.203125 0)"/>
      <use xlink:href="#DejaVuSans-53" transform="translate(511.390625 0)"/>
      <use xlink:href="#DejaVuSans-48" transform="translate(574.875 0)"/>
      <use xlink:href="#DejaVuSans-55" transform="translate(636.40625 0)"/>
      <use xlink:href="#DejaVuSans-57" transform="translate(677.515625 0)"/>
      <use xlink:href="#DejaVuSans-3" transform="translate(716.71875 0)"/>
      <use xlink:href="#DejaVuSans-b" transform="translate(748.5 0)"/>
      <use xlink:href="#DejaVuSans-50" transform="translate(787.515625 0)"/>
      <use xlink:href="#DejaVuSans-48" transform="translate(884.921875 0)"/>
      <use xlink:href="#DejaVuSans-44" transform="translate(946.453125 0)"/>
      <use xlink:href="#DejaVuSans-51" transform="translate(1007.734375 0)"/>
      <use xlink:href="#DejaVuSans-c" transform="translate(1071.109375 0)"/>
     </g>
    </g>
    <g id="line2d_16">
     <defs>
      <path id="m952a5bcf56" d="M 0 -3 
L -3 3 
L 3 3 
z
" style="stroke: #666666; stroke-linejoin: miter"/>
     </defs>
     <g>
      <use xlink:href="#m952a5bcf56" x="453.932109" y="277.184141" style="fill: #ffffff; stroke: #666666; stroke-linejoin: miter"/>
     </g>
    </g>
    <g id="text_17">
     <!-- Human expert, per question (n=3) -->
     <g transform="translate(467.432109 279.809141) scale(0.075 -0.075)">
      <use xlink:href="#DejaVuSans-2b"/>
      <use xlink:href="#DejaVuSans-58" transform="translate(75.203125 0)"/>
      <use xlink:href="#DejaVuSans-50" transform="translate(138.578125 0)"/>
      <use xlink:href="#DejaVuSans-44" transform="translate(235.984375 0)"/>
      <use xlink:href="#DejaVuSans-51" transform="translate(297.265625 0)"/>
      <use xlink:href="#DejaVuSans-3" transform="translate(360.640625 0)"/>
      <use xlink:href="#DejaVuSans-48" transform="translate(392.421875 0)"/>
      <use xlink:href="#DejaVuSans-5b" transform="translate(452.203125 0)"/>
      <use xlink:href="#DejaVuSans-53" transform="translate(511.390625 0)"/>
      <use xlink:href="#DejaVuSans-48" transform="translate(574.875 0)"/>
      <use xlink:href="#DejaVuSans-55" transform="translate(636.40625 0)"/>
      <use xlink:href="#DejaVuSans-57" transform="translate(677.515625 0)"/>
      <use xlink:href="#DejaVuSans-f" transform="translate(716.71875 0)"/>
      <use xlink:href="#DejaVuSans-3" transform="translate(748.5 0)"/>
      <use xlink:href="#DejaVuSans-53" transform="translate(780.28125 0)"/>
      <use xlink:href="#DejaVuSans-48" transform="translate(843.765625 0)"/>
      <use xlink:href="#DejaVuSans-55" transform="translate(905.296875 0)"/>
      <use xlink:href="#DejaVuSans-3" transform="translate(946.40625 0)"/>
      <use xlink:href="#DejaVuSans-54" transform="translate(978.1875 0)"/>
      <use xlink:href="#DejaVuSans-58" transform="translate(1041.671875 0)"/>
      <use xlink:href="#DejaVuSans-48" transform="translate(1105.046875 0)"/>
      <use xlink:href="#DejaVuSans-56" transform="translate(1166.578125 0)"/>
      <use xlink:href="#DejaVuSans-57" transform="translate(1218.671875 0)"/>
      <use xlink:href="#DejaVuSans-4c" transform="translate(1257.875 0)"/>
      <use xlink:href="#DejaVuSans-52" transform="translate(1285.65625 0)"/>
      <use xlink:href="#DejaVuSans-51" transform="translate(1346.84375 0)"/>
      <use xlink:href="#DejaVuSans-3" transform="translate(1410.21875 0)"/>
      <use xlink:href="#DejaVuSans-b" transform="translate(1442 0)"/>
      <use xlink:href="#DejaVuSans-51" transform="translate(1481.015625 0)"/>
      <use xlink:href="#DejaVuSans-20" transform="translate(1544.390625 0)"/>
      <use xlink:href="#DejaVuSans-16" transform="translate(1628.1875 0)"/>
      <use xlink:href="#DejaVuSans-c" transform="translate(1691.8125 0)"/>
     </g>
    </g>
   </g>
  </g>
 </g>
 <defs>
  <clipPath id="pdf9d78d85d">
   <rect x="74.094219" y="20.338203" width="529.9" height="268.022695"/>
  </clipPath>
 </defs>
</svg>
