<?xml version="1.0" encoding="utf-8" standalone="no"?>
<!DOCTYPE svg PUBLIC "-//W3C//DTD SVG 1.1//EN"
  "http://www.w3.org/Graphics/SVG/1.1/DTD/svg11.dtd">
<svg xmlns:xlink="http://www.w3.org/1999/xlink" width="550.326953pt" height="306.576pt" viewBox="0 0 550.326953 306.576" xmlns="http://www.w3.org/2000/svg" version="1.1">
 <metadata>
  <rdf:RDF xmlns:dc="http://purl.org/dc/elements/1.1/" xmlns:cc="http://creativecommons.org/ns#" xmlns:rdf="http://www.w3.org/1999/02/22-rdf-syntax-ns#">
   <cc:Work>
    <dc:type rdf:resource="http://purl.org/dc/dcmitype/StillImage"/>
    <dc:date>2026-07-13T23:58:16.211831</dc:date>
    <dc:format>image/svg+xml</dc:format>
    <dc:creator>
     <cc:Agent>
      <dc:title>Matplotlib v3.11.0, https://matplotlib.org/</dc:title>
     </cc:Agent>
    </dc:creator>
   </cc:Work>
  </rdf:RDF>
 </metadata>
 <defs>
  <style type="text/css">*{stroke-linejoin: round; stroke-linecap: butt}</style>
 </defs>
 <g id="figure_1">
  <g id="patch_1">
   <path d="M 0 306.576 
L 550.326953 306.576 
L 550.326953 0 
L 0 0 
z
" style="fill: #ffffff"/>
  </g>
  <g id="axes_1">
   <g id="patch_2">
    <path d="M 125.173077 64.073952 
L 425.153877 64.073952 
Q 426.225237 64.073952 426.225237 63.4752 
L 426.225237 42.51888 
Q 426.225237 41.920128 425.153877 41.920128 
L 125.173077 41.920128 
Q 124.101717 41.920128 124.101717 42.51888 
L 124.101717 63.4752 
Q 124.101717 64.073952 125.173077 64.073952 
z
" clip-path="url(#pa605ee4683)" style="fill: #f2f2f2; stroke: #666666; stroke-width: 1.2; stroke-linejoin: miter"/>
   </g>
   <g id="patch_3">
    <path d="M 82.318677 111.974112 
L 221.595477 111.974112 
Q 222.666837 111.974112 222.666837 111.37536 
L 222.666837 90.41904 
Q 222.666837 89.820288 221.595477 89.820288 
L 82.318677 89.820288 
Q 81.247317 89.820288 81.247317 90.41904 
L 81.247317 111.37536 
Q 81.247317 111.974112 82.318677 111.974112 
z
" clip-path="url(#pa605ee4683)" style="stroke: #000000; stroke-width: 1.2; stroke-linejoin: miter"/>
   </g>
   <g id="patch_4">
    <path d="M 82.318677 153.886752 
L 221.595477 153.886752 
Q 222.666837 153.886752 222.666837 153.288 
L 222.666837 133.529184 
Q 222.666837 132.930432 221.595477 132.930432 
L 82.318677 132.930432 
Q 81.247317 132.930432 81.247317 133.529184 
L 81.247317 153.288 
Q 81.247317 153.886752 82.318677 153.886752 
z
" clip-path="url(#pa605ee4683)" style="fill: #ffffff; stroke: #000000; stroke-width: 1.2; stroke-linejoin: miter"/>
   </g>
   <g id="patch_5">
    <path d="M 82.318677 200.290032 
L 221.595477 200.290032 
Q 222.666837 200.290032 222.666837 199.69128 
L 222.666837 179.932464 
Q 222.666837 179.333712 221.595477 179.333712 
L 82.318677 179.333712 
Q 81.247317 179.333712 81.247317 179.932464 
L 81.247317 199.69128 
Q 81.247317 200.290032 82.318677 200.290032 
z
" clip-path="url(#pa605ee4683)" style="fill: #ffffff; stroke: #000000; stroke-width: 1.2; stroke-linejoin: miter"/>
   </g>
   <g id="patch_6">
    <path d="M 82.318677 246.693312 
L 221.595477 246.693312 
Q 222.666837 246.693312 222.666837 246.09456 
L 222.666837 226.335744 
Q 222.666837 225.736992 221.595477 225.736992 
L 82.318677 225.736992 
Q 81.247317 225.736992 81.247317 226.335744 
L 81.247317 246.09456 
Q 81.247317 246.693312 82.318677 246.693312 
z
" clip-path="url(#pa605ee4683)" style="fill: #ffffff; stroke: #000000; stroke-width: 1.2; stroke-linejoin: miter"/>
   </g>
   <g id="patch_7">
    <path d="M 328.731477 111.974112 
L 468.008277 111.974112 
Q 469.079637 111.974112 469.079637 111.37536 
L 469.079637 90.41904 
Q 469.079637 89.820288 468.008277 89.820288 
L 328.731477 89.820288 
Q 327.660117 89.820288 327.660117 90.41904 
L 327.660117 111.37536 
Q 327.660117 111.974112 328.731477 111.974112 
z
" clip-path="url(#pa605ee4683)" style="fill: #009e73; stroke: #009e73; stroke-width: 1.2; stroke-linejoin: miter"/>
   </g>
   <g id="patch_8">
    <path d="M 328.731477 153.886752 
L 468.008277 153.886752 
Q 469.079637 153.886752 469.079637 153.288 
L 469.079637 133.529184 
Q 469.079637 132.930432 468.008277 132.930432 
L 328.731477 132.930432 
Q 327.660117 132.930432 327.660117 133.529184 
L 327.660117 153.288 
Q 327.660117 153.886752 328.731477 153.886752 
z
" clip-path="url(#pa605ee4683)" style="fill: #ffffff; stroke: #009e73; stroke-width: 1.2; stroke-linejoin: miter"/>
   </g>
   <g id="patch_9">
    <path d="M 328.731477 200.290032 
L 468.008277 200.290032 
Q 469.079637 200.290032 469.079637 199.69128 
L 469.079637 179.932464 
Q 469.079637 179.333712 468.008277 179.333712 
L 328.731477 179.333712 
Q 327.660117 179.333712 327.660117 179.932464 
L 327.660117 199.69128 
Q 327.660117 200.290032 328.731477 200.290032 
z
" clip-path="url(#pa605ee4683)" style="fill: #ffffff; stroke: #009e73; stroke-width: 1.2; stroke-linejoin: miter"/>
   </g>
   <g id="patch_10">
    <path d="M 328.731477 246.693312 
L 468.008277 246.693312 
Q 469.079637 246.693312 469.079637 246.09456 
L 469.079637 226.335744 
Q 469.079637 225.736992 468.008277 225.736992 
L 328.731477 225.736992 
Q 327.660117 225.736992 327.660117 226.335744 
L 327.660117 246.09456 
Q 327.660117 246.693312 328.731477 246.693312 
z
" clip-path="url(#pa605ee4683)" style="fill: #ffffff; stroke: #009e73; stroke-width: 1.2; stroke-linejoin: miter"/>
   </g>
   <g id="line2d_1">
    <path d="M 275.163477 279.02592 
L 275.163477 129.33792 
" clip-path="url(#pa605ee4683)" style="fill: none; stroke-dasharray: 1.2,1.98; stroke-dashoffset: 0; stroke: #cccccc; stroke-width: 1.2"/>
   </g>
   <g id="patch_11">
    <path d="M 146.600277 296.090352 
L 403.726677 296.090352 
Q 404.798037 296.090352 404.798037 295.4916 
L 404.798037 277.52904 
Q 404.798037 276.930288 403.726677 276.930288 
L 146.600277 276.930288 
Q 145.528917 276.930288 145.528917 277.52904 
L 145.528917 295.4916 
Q 145.528917 296.090352 146.600277 296.090352 
z
" clip-path="url(#pa605ee4683)" style="fill: #fdf3e0; stroke: #e69f00; stroke-width: 1.2; stroke-linejoin: miter"/>
   </g>
   <g id="text_1">
    <!-- exp-003 showcase: identical data and question, two different research paths -->
    <g transform="translate(3.6 22.079327) scale(0.125 -0.125)">
     <defs>
      <path id="DejaVuSans-Bold-48" d="M 4031 1759 
L 4031 1441 
L 1416 1441 
Q 1456 1047 1700 850 
Q 1944 653 2381 653 
Q 2734 653 3104 758 
Q 3475 863 3866 1075 
L 3866 213 
Q 3469 63 3072 -14 
Q 2675 -91 2278 -91 
Q 1328 -91 801 392 
Q 275 875 275 1747 
Q 275 2603 792 3093 
Q 1309 3584 2216 3584 
Q 3041 3584 3536 3087 
Q 4031 2591 4031 1759 
z
M 2881 2131 
Q 2881 2450 2695 2645 
Q 2509 2841 2209 2841 
Q 1884 2841 1681 2658 
Q 1478 2475 1428 2131 
L 2881 2131 
z
" transform="scale(0.015625)"/>
      <path id="DejaVuSans-Bold-5b" d="M 1422 1791 
L 159 3500 
L 1344 3500 
L 2059 2463 
L 2784 3500 
L 3969 3500 
L 2706 1797 
L 4031 0 
L 2847 0 
L 2059 1106 
L 1281 0 
L 97 0 
L 1422 1791 
z
" transform="scale(0.015625)"/>
      <path id="DejaVuSans-Bold-53" d="M 1656 506 
L 1656 -1331 
L 538 -1331 
L 538 3500 
L 1656 3500 
L 1656 2988 
Q 1888 3294 2169 3439 
Q 2450 3584 2816 3584 
Q 3463 3584 3878 3070 
Q 4294 2556 4294 1747 
Q 4294 938 3878 423 
Q 3463 -91 2816 -91 
Q 2450 -91 2169 54 
Q 1888 200 1656 506 
z
M 2400 2772 
Q 2041 2772 1848 2508 
Q 1656 2244 1656 1747 
Q 1656 1250 1848 986 
Q 2041 722 2400 722 
Q 2759 722 2948 984 
Q 3138 1247 3138 1747 
Q 3138 2247 2948 2509 
Q 2759 2772 2400 2772 
z
" transform="scale(0.015625)"/>
      <path id="DejaVuSans-Bold-10" d="M 347 2297 
L 2309 2297 
L 2309 1388 
L 347 1388 
L 347 2297 
z
" transform="scale(0.015625)"/>
      <path id="DejaVuSans-Bold-13" d="M 2944 2338 
Q 2944 3213 2780 3570 
Q 2616 3928 2228 3928 
Q 1841 3928 1675 3570 
Q 1509 3213 1509 2338 
Q 1509 1453 1675 1090 
Q 1841 728 2228 728 
Q 2613 728 2778 1090 
Q 2944 1453 2944 2338 
z
M 4147 2328 
Q 4147 1169 3647 539 
Q 3147 -91 2228 -91 
Q 1306 -91 806 539 
Q 306 1169 306 2328 
Q 306 3491 806 4120 
Q 1306 4750 2228 4750 
Q 3147 4750 3647 4120 
Q 4147 3491 4147 2328 
z
" transform="scale(0.015625)"/>
      <path id="DejaVuSans-Bold-16" d="M 2981 2516 
Q 3453 2394 3698 2092 
Q 3944 1791 3944 1325 
Q 3944 631 3412 270 
Q 2881 -91 1863 -91 
Q 1503 -91 1142 -33 
Q 781 25 428 141 
L 428 1069 
Q 766 900 1098 814 
Q 1431 728 1753 728 
Q 2231 728 2486 893 
Q 2741 1059 2741 1369 
Q 2741 1688 2480 1852 
Q 2219 2016 1709 2016 
L 1228 2016 
L 1228 2791 
L 1734 2791 
Q 2188 2791 2409 2933 
Q 2631 3075 2631 3366 
Q 2631 3634 2415 3781 
Q 2200 3928 1806 3928 
Q 1516 3928 1219 3862 
Q 922 3797 628 3669 
L 628 4550 
Q 984 4650 1334 4700 
Q 1684 4750 2022 4750 
Q 2931 4750 3382 4451 
Q 3834 4153 3834 3553 
Q 3834 3144 3618 2883 
Q 3403 2622 2981 2516 
z
" transform="scale(0.015625)"/>
      <path id="DejaVuSans-Bold-3" transform="scale(0.015625)"/>
      <path id="DejaVuSans-Bold-56" d="M 3272 3391 
L 3272 2541 
Q 2913 2691 2578 2766 
Q 2244 2841 1947 2841 
Q 1628 2841 1473 2761 
Q 1319 2681 1319 2516 
Q 1319 2381 1436 2309 
Q 1553 2238 1856 2203 
L 2053 2175 
Q 2913 2066 3209 1816 
Q 3506 1566 3506 1031 
Q 3506 472 3093 190 
Q 2681 -91 1863 -91 
Q 1516 -91 1145 -36 
Q 775 19 384 128 
L 384 978 
Q 719 816 1070 734 
Q 1422 653 1784 653 
Q 2113 653 2278 743 
Q 2444 834 2444 1013 
Q 2444 1163 2330 1236 
Q 2216 1309 1875 1350 
L 1678 1375 
Q 931 1469 631 1722 
Q 331 1975 331 2491 
Q 331 3047 712 3315 
Q 1094 3584 1881 3584 
Q 2191 3584 2531 3537 
Q 2872 3491 3272 3391 
z
" transform="scale(0.015625)"/>
      <path id="DejaVuSans-Bold-4b" d="M 4056 2131 
L 4056 0 
L 2931 0 
L 2931 347 
L 2931 1625 
Q 2931 2084 2911 2256 
Q 2891 2428 2841 2509 
Q 2775 2619 2662 2680 
Q 2550 2741 2406 2741 
Q 2056 2741 1856 2470 
Q 1656 2200 1656 1722 
L 1656 0 
L 538 0 
L 538 4863 
L 1656 4863 
L 1656 2988 
Q 1909 3294 2193 3439 
Q 2478 3584 2822 3584 
Q 3428 3584 3742 3212 
Q 4056 2841 4056 2131 
z
" transform="scale(0.015625)"/>
      <path id="DejaVuSans-Bold-52" d="M 2203 2784 
Q 1831 2784 1636 2517 
Q 1441 2250 1441 1747 
Q 1441 1244 1636 976 
Q 1831 709 2203 709 
Q 2569 709 2762 976 
Q 2956 1244 2956 1747 
Q 2956 2250 2762 2517 
Q 2569 2784 2203 2784 
z
M 2203 3584 
Q 3106 3584 3614 3096 
Q 4122 2609 4122 1747 
Q 4122 884 3614 396 
Q 3106 -91 2203 -91 
Q 1297 -91 786 396 
Q 275 884 275 1747 
Q 275 2609 786 3096 
Q 1297 3584 2203 3584 
z
" transform="scale(0.015625)"/>
      <path id="DejaVuSans-Bold-5a" d="M 225 3500 
L 1313 3500 
L 1900 1088 
L 2491 3500 
L 3425 3500 
L 4013 1113 
L 4603 3500 
L 5691 3500 
L 4769 0 
L 3547 0 
L 2956 2406 
L 2369 0 
L 1147 0 
L 225 3500 
z
" transform="scale(0.015625)"/>
      <path id="DejaVuSans-Bold-46" d="M 3366 3391 
L 3366 2478 
Q 3138 2634 2908 2709 
Q 2678 2784 2431 2784 
Q 1963 2784 1702 2511 
Q 1441 2238 1441 1747 
Q 1441 1256 1702 982 
Q 1963 709 2431 709 
Q 2694 709 2930 787 
Q 3166 866 3366 1019 
L 3366 103 
Q 3103 6 2833 -42 
Q 2563 -91 2291 -91 
Q 1344 -91 809 395 
Q 275 881 275 1747 
Q 275 2613 809 3098 
Q 1344 3584 2291 3584 
Q 2566 3584 2833 3536 
Q 3100 3488 3366 3391 
z
" transform="scale(0.015625)"/>
      <path id="DejaVuSans-Bold-44" d="M 2106 1575 
Q 1756 1575 1579 1456 
Q 1403 1338 1403 1106 
Q 1403 894 1545 773 
Q 1688 653 1941 653 
Q 2256 653 2472 879 
Q 2688 1106 2688 1447 
L 2688 1575 
L 2106 1575 
z
M 3816 1997 
L 3816 0 
L 2688 0 
L 2688 519 
Q 2463 200 2181 54 
Q 1900 -91 1497 -91 
Q 953 -91 614 226 
Q 275 544 275 1050 
Q 275 1666 698 1953 
Q 1122 2241 2028 2241 
L 2688 2241 
L 2688 2328 
Q 2688 2594 2478 2717 
Q 2269 2841 1825 2841 
Q 1466 2841 1156 2769 
Q 847 2697 581 2553 
L 581 3406 
Q 941 3494 1303 3539 
Q 1666 3584 2028 3584 
Q 2975 3584 3395 3211 
Q 3816 2838 3816 1997 
z
" transform="scale(0.015625)"/>
      <path id="DejaVuSans-Bold-1d" d="M 716 3500 
L 1844 3500 
L 1844 2291 
L 716 2291 
L 716 3500 
z
M 716 1209 
L 1844 1209 
L 1844 0 
L 716 0 
L 716 1209 
z
" transform="scale(0.015625)"/>
      <path id="DejaVuSans-Bold-4c" d="M 538 3500 
L 1656 3500 
L 1656 0 
L 538 0 
L 538 3500 
z
M 538 4863 
L 1656 4863 
L 1656 3950 
L 538 3950 
L 538 4863 
z
" transform="scale(0.015625)"/>
      <path id="DejaVuSans-Bold-47" d="M 2919 2988 
L 2919 4863 
L 4044 4863 
L 4044 0 
L 2919 0 
L 2919 506 
Q 2688 197 2409 53 
Q 2131 -91 1766 -91 
Q 1119 -91 703 423 
Q 288 938 288 1747 
Q 288 2556 703 3070 
Q 1119 3584 1766 3584 
Q 2128 3584 2408 3439 
Q 2688 3294 2919 2988 
z
M 2181 722 
Q 2541 722 2730 984 
Q 2919 1247 2919 1747 
Q 2919 2247 2730 2509 
Q 2541 2772 2181 2772 
Q 1825 2772 1636 2509 
Q 1447 2247 1447 1747 
Q 1447 1247 1636 984 
Q 1825 722 2181 722 
z
" transform="scale(0.015625)"/>
      <path id="DejaVuSans-Bold-51" d="M 4056 2131 
L 4056 0 
L 2931 0 
L 2931 347 
L 2931 1631 
Q 2931 2084 2911 2256 
Q 2891 2428 2841 2509 
Q 2775 2619 2662 2680 
Q 2550 2741 2406 2741 
Q 2056 2741 1856 2470 
Q 1656 2200 1656 1722 
L 1656 0 
L 538 0 
L 538 3500 
L 1656 3500 
L 1656 2988 
Q 1909 3294 2193 3439 
Q 2478 3584 2822 3584 
Q 3428 3584 3742 3212 
Q 4056 2841 4056 2131 
z
" transform="scale(0.015625)"/>
      <path id="DejaVuSans-Bold-57" d="M 1759 4494 
L 1759 3500 
L 2913 3500 
L 2913 2700 
L 1759 2700 
L 1759 1216 
Q 1759 972 1856 886 
Q 1953 800 2241 800 
L 2816 800 
L 2816 0 
L 1856 0 
Q 1194 0 917 276 
Q 641 553 641 1216 
L 641 2700 
L 84 2700 
L 84 3500 
L 641 3500 
L 641 4494 
L 1759 4494 
z
" transform="scale(0.015625)"/>
      <path id="DejaVuSans-Bold-4f" d="M 538 4863 
L 1656 4863 
L 1656 0 
L 538 0 
L 538 4863 
z
" transform="scale(0.015625)"/>
      <path id="DejaVuSans-Bold-54" d="M 2181 2772 
Q 1825 2772 1636 2509 
Q 1447 2247 1447 1747 
Q 1447 1247 1636 984 
Q 1825 722 2181 722 
Q 2541 722 2730 984 
Q 2919 1247 2919 1747 
Q 2919 2247 2730 2509 
Q 2541 2772 2181 2772 
z
M 2919 506 
Q 2688 197 2409 53 
Q 2131 -91 1766 -91 
Q 1119 -91 703 423 
Q 288 938 288 1747 
Q 288 2556 703 3067 
Q 1119 3578 1766 3578 
Q 2131 3578 2409 3434 
Q 2688 3291 2919 2981 
L 2919 3500 
L 4044 3500 
L 4044 -1331 
L 2919 -1331 
L 2919 506 
z
" transform="scale(0.015625)"/>
      <path id="DejaVuSans-Bold-58" d="M 500 1363 
L 500 3500 
L 1625 3500 
L 1625 3150 
Q 1625 2866 1622 2436 
Q 1619 2006 1619 1863 
Q 1619 1441 1641 1255 
Q 1663 1069 1716 984 
Q 1784 875 1895 815 
Q 2006 756 2150 756 
Q 2500 756 2700 1025 
Q 2900 1294 2900 1772 
L 2900 3500 
L 4019 3500 
L 4019 0 
L 2900 0 
L 2900 506 
Q 2647 200 2364 54 
Q 2081 -91 1741 -91 
Q 1134 -91 817 281 
Q 500 653 500 1363 
z
" transform="scale(0.015625)"/>
      <path id="DejaVuSans-Bold-f" d="M 653 1209 
L 1778 1209 
L 1778 256 
L 1006 -909 
L 341 -909 
L 653 256 
L 653 1209 
z
" transform="scale(0.015625)"/>
      <path id="DejaVuSans-Bold-13aa" d="M 2841 4863 
L 2841 4128 
L 2222 4128 
Q 1984 4128 1891 4044 
Q 1797 3956 1797 3744 
L 1797 3500 
L 3078 3500 
L 3078 3744 
Q 3078 4316 3397 4588 
Q 3716 4863 4384 4863 
L 5241 4863 
L 5241 4128 
L 4622 4128 
Q 4384 4128 4291 4044 
Q 4197 3956 4197 3744 
L 4197 3500 
L 5153 3500 
L 5153 2700 
L 4197 2700 
L 4197 0 
L 3078 0 
L 3078 2700 
L 1797 2700 
L 1797 0 
L 678 0 
L 678 2700 
L 122 2700 
L 122 3500 
L 678 3500 
L 678 3744 
Q 678 4316 997 4588 
Q 1316 4863 1984 4863 
L 2841 4863 
z
" transform="scale(0.015625)"/>
      <path id="DejaVuSans-Bold-55" d="M 3138 2547 
Q 2991 2616 2845 2648 
Q 2700 2681 2553 2681 
Q 2122 2681 1889 2404 
Q 1656 2128 1656 1613 
L 1656 0 
L 538 0 
L 538 3500 
L 1656 3500 
L 1656 2925 
Q 1872 3269 2151 3426 
Q 2431 3584 2822 3584 
Q 2878 3584 2943 3579 
Q 3009 3575 3134 3559 
L 3138 2547 
z
" transform="scale(0.015625)"/>
     </defs>
     <use xlink:href="#DejaVuSans-Bold-48"/>
     <use xlink:href="#DejaVuSans-Bold-5b" transform="translate(67.828125 0)"/>
     <use xlink:href="#DejaVuSans-Bold-53" transform="translate(132.328125 0)"/>
     <use xlink:href="#DejaVuSans-Bold-10" transform="translate(203.90625 0)"/>
     <use xlink:href="#DejaVuSans-Bold-13" transform="translate(245.40625 0)"/>
     <use xlink:href="#DejaVuSans-Bold-13" transform="translate(314.984375 0)"/>
     <use xlink:href="#DejaVuSans-Bold-16" transform="translate(384.5625 0)"/>
     <use xlink:href="#DejaVuSans-Bold-3" transform="translate(454.140625 0)"/>
     <use xlink:href="#DejaVuSans-Bold-56" transform="translate(488.953125 0)"/>
     <use xlink:href="#DejaVuSans-Bold-4b" transform="translate(548.46875 0)"/>
     <use xlink:href="#DejaVuSans-Bold-52" transform="translate(619.65625 0)"/>
     <use xlink:href="#DejaVuSans-Bold-5a" transform="translate(688.359375 0)"/>
     <use xlink:href="#DejaVuSans-Bold-46" transform="translate(780.75 0)"/>
     <use xlink:href="#DejaVuSans-Bold-44" transform="translate(840.03125 0)"/>
     <use xlink:href="#DejaVuSans-Bold-56" transform="translate(907.515625 0)"/>
     <use xlink:href="#DejaVuSans-Bold-48" transform="translate(967.03125 0)"/>
     <use xlink:href="#DejaVuSans-Bold-1d" transform="translate(1034.859375 0)"/>
     <use xlink:href="#DejaVuSans-Bold-3" transform="translate(1074.84375 0)"/>
     <use xlink:href="#DejaVuSans-Bold-4c" transform="translate(1109.65625 0)"/>
     <use xlink:href="#DejaVuSans-Bold-47" transform="translate(1143.9375 0)"/>
     <use xlink:href="#DejaVuSans-Bold-48" transform="translate(1215.515625 0)"/>
     <use xlink:href="#DejaVuSans-Bold-51" transform="translate(1283.34375 0)"/>
     <use xlink:href="#DejaVuSans-Bold-57" transform="translate(1354.53125 0)"/>
     <use xlink:href="#DejaVuSans-Bold-4c" transform="translate(1402.328125 0)"/>
     <use xlink:href="#DejaVuSans-Bold-46" transform="translate(1436.609375 0)"/>
     <use xlink:href="#DejaVuSans-Bold-44" transform="translate(1495.890625 0)"/>
     <use xlink:href="#DejaVuSans-Bold-4f" transform="translate(1563.375 0)"/>
     <use xlink:href="#DejaVuSans-Bold-3" transform="translate(1597.65625 0)"/>
     <use xlink:href="#DejaVuSans-Bold-47" transform="translate(1632.46875 0)"/>
     <use xlink:href="#DejaVuSans-Bold-44" transform="translate(1704.046875 0)"/>
     <use xlink:href="#DejaVuSans-Bold-57" transform="translate(1771.53125 0)"/>
     <use xlink:href="#DejaVuSans-Bold-44" transform="translate(1819.328125 0)"/>
     <use xlink:href="#DejaVuSans-Bold-3" transform="translate(1886.8125 0)"/>
     <use xlink:href="#DejaVuSans-Bold-44" transform="translate(1921.625 0)"/>
     <use xlink:href="#DejaVuSans-Bold-51" transform="translate(1989.109375 0)"/>
     <use xlink:href="#DejaVuSans-Bold-47" transform="translate(2060.296875 0)"/>
     <use xlink:href="#DejaVuSans-Bold-3" transform="translate(2131.875 0)"/>
     <use xlink:href="#DejaVuSans-Bold-54" transform="translate(2166.6875 0)"/>
     <use xlink:href="#DejaVuSans-Bold-58" transform="translate(2238.265625 0)"/>
     <use xlink:href="#DejaVuSans-Bold-48" transform="translate(2309.453125 0)"/>
     <use xlink:href="#DejaVuSans-Bold-56" transform="translate(2377.28125 0)"/>
     <use xlink:href="#DejaVuSans-Bold-57" transform="translate(2436.796875 0)"/>
     <use xlink:href="#DejaVuSans-Bold-4c" transform="translate(2484.59375 0)"/>
     <use xlink:href="#DejaVuSans-Bold-52" transform="translate(2518.875 0)"/>
     <use xlink:href="#DejaVuSans-Bold-51" transform="translate(2587.578125 0)"/>
     <use xlink:href="#DejaVuSans-Bold-f" transform="translate(2658.765625 0)"/>
     <use xlink:href="#DejaVuSans-Bold-3" transform="translate(2696.75 0)"/>
     <use xlink:href="#DejaVuSans-Bold-57" transform="translate(2731.5625 0)"/>
     <use xlink:href="#DejaVuSans-Bold-5a" transform="translate(2779.359375 0)"/>
     <use xlink:href="#DejaVuSans-Bold-52" transform="translate(2871.75 0)"/>
     <use xlink:href="#DejaVuSans-Bold-3" transform="translate(2940.453125 0)"/>
     <use xlink:href="#DejaVuSans-Bold-47" transform="translate(2975.265625 0)"/>
     <use xlink:href="#DejaVuSans-Bold-4c" transform="translate(3046.84375 0)"/>
     <use xlink:href="#DejaVuSans-Bold-13aa" transform="translate(3081.125 0)"/>
     <use xlink:href="#DejaVuSans-Bold-48" transform="translate(3162.125 0)"/>
     <use xlink:href="#DejaVuSans-Bold-55" transform="translate(3229.953125 0)"/>
     <use xlink:href="#DejaVuSans-Bold-48" transform="translate(3279.265625 0)"/>
     <use xlink:href="#DejaVuSans-Bold-51" transform="translate(3347.09375 0)"/>
     <use xlink:href="#DejaVuSans-Bold-57" transform="translate(3418.28125 0)"/>
     <use xlink:href="#DejaVuSans-Bold-3" transform="translate(3466.078125 0)"/>
     <use xlink:href="#DejaVuSans-Bold-55" transform="translate(3500.890625 0)"/>
     <use xlink:href="#DejaVuSans-Bold-48" transform="translate(3550.203125 0)"/>
     <use xlink:href="#DejaVuSans-Bold-56" transform="translate(3618.03125 0)"/>
     <use xlink:href="#DejaVuSans-Bold-48" transform="translate(3677.546875 0)"/>
     <use xlink:href="#DejaVuSans-Bold-44" transform="translate(3745.375 0)"/>
     <use xlink:href="#DejaVuSans-Bold-55" transform="translate(3812.859375 0)"/>
     <use xlink:href="#DejaVuSans-Bold-46" transform="translate(3862.171875 0)"/>
     <use xlink:href="#DejaVuSans-Bold-4b" transform="translate(3921.453125 0)"/>
     <use xlink:href="#DejaVuSans-Bold-3" transform="translate(3992.640625 0)"/>
     <use xlink:href="#DejaVuSans-Bold-53" transform="translate(4027.453125 0)"/>
     <use xlink:href="#DejaVuSans-Bold-44" transform="translate(4099.03125 0)"/>
     <use xlink:href="#DejaVuSans-Bold-57" transform="translate(4166.515625 0)"/>
     <use xlink:href="#DejaVuSans-Bold-4b" transform="translate(4214.3125 0)"/>
     <use xlink:href="#DejaVuSans-Bold-56" transform="translate(4285.5 0)"/>
    </g>
   </g>
   <g id="text_2">
    <!-- an open comparison — no score, no winner declared -->
    <g style="fill: #555555" transform="translate(143.24707 35.148517) scale(0.1 -0.1)">
     <defs>
      <path id="DejaVuSans-Oblique-44" d="M 3438 1997 
L 3047 0 
L 2472 0 
L 2578 531 
Q 2325 219 2001 64 
Q 1678 -91 1281 -91 
Q 834 -91 548 182 
Q 263 456 263 884 
Q 263 1497 752 1853 
Q 1241 2209 2100 2209 
L 2900 2209 
L 2931 2363 
Q 2938 2388 2941 2417 
Q 2944 2447 2944 2509 
Q 2944 2788 2717 2942 
Q 2491 3097 2081 3097 
Q 1800 3097 1504 3025 
Q 1209 2953 897 2809 
L 997 3341 
Q 1322 3463 1633 3523 
Q 1944 3584 2234 3584 
Q 2853 3584 3176 3315 
Q 3500 3047 3500 2534 
Q 3500 2431 3484 2292 
Q 3469 2153 3438 1997 
z
M 2816 1759 
L 2241 1759 
Q 1534 1759 1195 1570 
Q 856 1381 856 984 
Q 856 709 1029 553 
Q 1203 397 1509 397 
Q 1978 397 2328 733 
Q 2678 1069 2791 1631 
L 2816 1759 
z
" transform="scale(0.015625)"/>
      <path id="DejaVuSans-Oblique-51" d="M 3566 2113 
L 3156 0 
L 2578 0 
L 2988 2091 
Q 3016 2238 3031 2350 
Q 3047 2463 3047 2528 
Q 3047 2791 2881 2937 
Q 2716 3084 2419 3084 
Q 1956 3084 1622 2776 
Q 1288 2469 1184 1941 
L 800 0 
L 225 0 
L 903 3500 
L 1478 3500 
L 1363 2950 
Q 1603 3253 1940 3418 
Q 2278 3584 2650 3584 
Q 3113 3584 3367 3334 
Q 3622 3084 3622 2631 
Q 3622 2519 3608 2391 
Q 3594 2263 3566 2113 
z
" transform="scale(0.015625)"/>
      <path id="DejaVuSans-Oblique-3" transform="scale(0.015625)"/>
      <path id="DejaVuSans-Oblique-52" d="M 1625 -91 
Q 1009 -91 651 289 
Q 294 669 294 1325 
Q 294 1706 417 2101 
Q 541 2497 738 2766 
Q 1047 3184 1428 3384 
Q 1809 3584 2291 3584 
Q 2888 3584 3255 3212 
Q 3622 2841 3622 2241 
Q 3622 1825 3500 1412 
Q 3378 1000 3181 728 
Q 2875 309 2494 109 
Q 2113 -91 1625 -91 
z
M 891 1344 
Q 891 869 1089 633 
Q 1288 397 1691 397 
Q 2269 397 2648 901 
Q 3028 1406 3028 2181 
Q 3028 2634 2825 2865 
Q 2622 3097 2228 3097 
Q 1903 3097 1650 2945 
Q 1397 2794 1197 2484 
Q 1050 2253 970 1956 
Q 891 1659 891 1344 
z
" transform="scale(0.015625)"/>
      <path id="DejaVuSans-Oblique-53" d="M 3175 2156 
Q 3175 2616 2975 2859 
Q 2775 3103 2400 3103 
Q 2144 3103 1911 2972 
Q 1678 2841 1497 2591 
Q 1319 2344 1212 1994 
Q 1106 1644 1106 1300 
Q 1106 863 1306 627 
Q 1506 391 1875 391 
Q 2147 391 2380 519 
Q 2613 647 2778 891 
Q 2956 1147 3065 1494 
Q 3175 1841 3175 2156 
z
M 1394 2969 
Q 1625 3272 1939 3428 
Q 2253 3584 2638 3584 
Q 3175 3584 3472 3232 
Q 3769 2881 3769 2247 
Q 3769 1728 3584 1258 
Q 3400 788 3053 416 
Q 2822 169 2531 39 
Q 2241 -91 1919 -91 
Q 1547 -91 1294 64 
Q 1041 219 916 525 
L 556 -1331 
L -19 -1331 
L 922 3500 
L 1497 3500 
L 1394 2969 
z
" transform="scale(0.015625)"/>
      <path id="DejaVuSans-Oblique-48" d="M 3078 2063 
Q 3088 2113 3092 2166 
Q 3097 2219 3097 2272 
Q 3097 2653 2873 2875 
Q 2650 3097 2266 3097 
Q 1838 3097 1509 2826 
Q 1181 2556 1013 2059 
L 3078 2063 
z
M 3578 1613 
L 903 1613 
Q 884 1494 878 1425 
Q 872 1356 872 1306 
Q 872 872 1139 634 
Q 1406 397 1894 397 
Q 2269 397 2603 481 
Q 2938 566 3225 728 
L 3116 159 
Q 2806 34 2476 -28 
Q 2147 -91 1806 -91 
Q 1078 -91 686 257 
Q 294 606 294 1247 
Q 294 1794 489 2264 
Q 684 2734 1063 3103 
Q 1306 3334 1642 3459 
Q 1978 3584 2356 3584 
Q 2950 3584 3301 3228 
Q 3653 2872 3653 2272 
Q 3653 2128 3634 1964 
Q 3616 1800 3578 1613 
z
" transform="scale(0.015625)"/>
      <path id="DejaVuSans-Oblique-46" d="M 3431 3366 
L 3316 2797 
Q 3109 2947 2876 3022 
Q 2644 3097 2394 3097 
Q 2119 3097 1870 3000 
Q 1622 2903 1453 2725 
Q 1184 2453 1037 2087 
Q 891 1722 891 1331 
Q 891 859 1127 628 
Q 1363 397 1844 397 
Q 2081 397 2348 469 
Q 2616 541 2906 684 
L 2797 116 
Q 2547 13 2283 -39 
Q 2019 -91 1741 -91 
Q 1044 -91 669 257 
Q 294 606 294 1253 
Q 294 1797 489 2255 
Q 684 2713 1069 3078 
Q 1331 3328 1684 3456 
Q 2038 3584 2456 3584 
Q 2700 3584 2940 3529 
Q 3181 3475 3431 3366 
z
" transform="scale(0.015625)"/>
      <path id="DejaVuSans-Oblique-50" d="M 5747 2113 
L 5338 0 
L 4763 0 
L 5166 2094 
Q 5191 2228 5203 2325 
Q 5216 2422 5216 2491 
Q 5216 2772 5059 2928 
Q 4903 3084 4622 3084 
Q 4203 3084 3875 2770 
Q 3547 2456 3450 1953 
L 3066 0 
L 2491 0 
L 2900 2094 
Q 2925 2209 2937 2307 
Q 2950 2406 2950 2484 
Q 2950 2769 2794 2926 
Q 2638 3084 2363 3084 
Q 1938 3084 1609 2770 
Q 1281 2456 1184 1953 
L 800 0 
L 225 0 
L 909 3500 
L 1484 3500 
L 1375 2956 
Q 1609 3263 1923 3423 
Q 2238 3584 2597 3584 
Q 2978 3584 3223 3384 
Q 3469 3184 3519 2828 
Q 3781 3197 4126 3390 
Q 4472 3584 4856 3584 
Q 5306 3584 5551 3325 
Q 5797 3066 5797 2591 
Q 5797 2488 5784 2364 
Q 5772 2241 5747 2113 
z
" transform="scale(0.015625)"/>
      <path id="DejaVuSans-Oblique-55" d="M 2853 2969 
Q 2766 3016 2653 3041 
Q 2541 3066 2413 3066 
Q 1953 3066 1609 2717 
Q 1266 2369 1153 1784 
L 800 0 
L 225 0 
L 909 3500 
L 1484 3500 
L 1375 2956 
Q 1603 3259 1920 3421 
Q 2238 3584 2597 3584 
Q 2691 3584 2781 3573 
Q 2872 3563 2963 3538 
L 2853 2969 
z
" transform="scale(0.015625)"/>
      <path id="DejaVuSans-Oblique-4c" d="M 1172 4863 
L 1747 4863 
L 1606 4134 
L 1031 4134 
L 1172 4863 
z
M 909 3500 
L 1484 3500 
L 800 0 
L 225 0 
L 909 3500 
z
" transform="scale(0.015625)"/>
      <path id="DejaVuSans-Oblique-56" d="M 3200 3397 
L 3091 2853 
Q 2863 2978 2609 3040 
Q 2356 3103 2088 3103 
Q 1634 3103 1373 2948 
Q 1113 2794 1113 2528 
Q 1113 2219 1719 2053 
Q 1766 2041 1788 2034 
L 1972 1978 
Q 2547 1819 2739 1644 
Q 2931 1469 2931 1166 
Q 2931 609 2489 259 
Q 2047 -91 1331 -91 
Q 1053 -91 747 -37 
Q 441 16 72 128 
L 184 722 
Q 500 559 806 475 
Q 1113 391 1394 391 
Q 1816 391 2080 572 
Q 2344 753 2344 1031 
Q 2344 1331 1650 1516 
L 1591 1531 
L 1394 1581 
Q 956 1697 753 1886 
Q 550 2075 550 2369 
Q 550 2928 970 3256 
Q 1391 3584 2113 3584 
Q 2397 3584 2667 3537 
Q 2938 3491 3200 3397 
z
" transform="scale(0.015625)"/>
      <path id="DejaVuSans-Oblique-9fe" d="M 356 1978 
L 6131 1978 
L 6044 1528 
L 269 1528 
L 356 1978 
z
" transform="scale(0.015625)"/>
      <path id="DejaVuSans-Oblique-f" d="M 575 794 
L 1234 794 
L 1131 256 
L 422 -744 
L 19 -744 
L 469 256 
L 575 794 
z
" transform="scale(0.015625)"/>
      <path id="DejaVuSans-Oblique-5a" d="M 544 3500 
L 1113 3500 
L 1259 684 
L 2566 3500 
L 3231 3500 
L 3425 684 
L 4666 3500 
L 5241 3500 
L 3641 0 
L 2969 0 
L 2797 2900 
L 1459 0 
L 781 0 
L 544 3500 
z
" transform="scale(0.015625)"/>
      <path id="DejaVuSans-Oblique-47" d="M 2675 525 
Q 2444 222 2128 65 
Q 1813 -91 1428 -91 
Q 903 -91 598 267 
Q 294 625 294 1247 
Q 294 1766 478 2236 
Q 663 2706 1013 3078 
Q 1244 3325 1534 3454 
Q 1825 3584 2144 3584 
Q 2481 3584 2739 3421 
Q 2997 3259 3138 2956 
L 3513 4863 
L 4091 4863 
L 3144 0 
L 2566 0 
L 2675 525 
z
M 891 1350 
Q 891 897 1095 644 
Q 1300 391 1663 391 
Q 1931 391 2161 520 
Q 2391 650 2566 903 
Q 2750 1166 2856 1509 
Q 2963 1853 2963 2188 
Q 2963 2622 2758 2865 
Q 2553 3109 2194 3109 
Q 1922 3109 1687 2981 
Q 1453 2853 1288 2613 
Q 1106 2353 998 2009 
Q 891 1666 891 1350 
z
" transform="scale(0.015625)"/>
      <path id="DejaVuSans-Oblique-4f" d="M 1172 4863 
L 1747 4863 
L 800 0 
L 225 0 
L 1172 4863 
z
" transform="scale(0.015625)"/>
     </defs>
     <use xlink:href="#DejaVuSans-Oblique-44"/>
     <use xlink:href="#DejaVuSans-Oblique-51" transform="translate(61.28125 0)"/>
     <use xlink:href="#DejaVuSans-Oblique-3" transform="translate(124.65625 0)"/>
     <use xlink:href="#DejaVuSans-Oblique-52" transform="translate(156.4375 0)"/>
     <use xlink:href="#DejaVuSans-Oblique-53" transform="translate(217.625 0)"/>
     <use xlink:href="#DejaVuSans-Oblique-48" transform="translate(281.109375 0)"/>
     <use xlink:href="#DejaVuSans-Oblique-51" transform="translate(342.640625 0)"/>
     <use xlink:href="#DejaVuSans-Oblique-3" transform="translate(406.015625 0)"/>
     <use xlink:href="#DejaVuSans-Oblique-46" transform="translate(437.796875 0)"/>
     <use xlink:href="#DejaVuSans-Oblique-52" transform="translate(492.78125 0)"/>
     <use xlink:href="#DejaVuSans-Oblique-50" transform="translate(553.96875 0)"/>
     <use xlink:href="#DejaVuSans-Oblique-53" transform="translate(651.375 0)"/>
     <use xlink:href="#DejaVuSans-Oblique-44" transform="translate(714.859375 0)"/>
     <use xlink:href="#DejaVuSans-Oblique-55" transform="translate(776.140625 0)"/>
     <use xlink:href="#DejaVuSans-Oblique-4c" transform="translate(817.25 0)"/>
     <use xlink:href="#DejaVuSans-Oblique-56" transform="translate(845.03125 0)"/>
     <use xlink:href="#DejaVuSans-Oblique-52" transform="translate(897.125 0)"/>
     <use xlink:href="#DejaVuSans-Oblique-51" transform="translate(958.3125 0)"/>
     <use xlink:href="#DejaVuSans-Oblique-3" transform="translate(1021.6875 0)"/>
     <use xlink:href="#DejaVuSans-Oblique-9fe" transform="translate(1053.46875 0)"/>
     <use xlink:href="#DejaVuSans-Oblique-3" transform="translate(1153.46875 0)"/>
     <use xlink:href="#DejaVuSans-Oblique-51" transform="translate(1185.25 0)"/>
     <use xlink:href="#DejaVuSans-Oblique-52" transform="translate(1248.625 0)"/>
     <use xlink:href="#DejaVuSans-Oblique-3" transform="translate(1309.8125 0)"/>
     <use xlink:href="#DejaVuSans-Oblique-56" transform="translate(1341.59375 0)"/>
     <use xlink:href="#DejaVuSans-Oblique-46" transform="translate(1393.6875 0)"/>
     <use xlink:href="#DejaVuSans-Oblique-52" transform="translate(1448.671875 0)"/>
     <use xlink:href="#DejaVuSans-Oblique-55" transform="translate(1509.859375 0)"/>
     <use xlink:href="#DejaVuSans-Oblique-48" transform="translate(1550.96875 0)"/>
     <use xlink:href="#DejaVuSans-Oblique-f" transform="translate(1612.5 0)"/>
     <use xlink:href="#DejaVuSans-Oblique-3" transform="translate(1644.28125 0)"/>
     <use xlink:href="#DejaVuSans-Oblique-51" transform="translate(1676.0625 0)"/>
     <use xlink:href="#DejaVuSans-Oblique-52" transform="translate(1739.4375 0)"/>
     <use xlink:href="#DejaVuSans-Oblique-3" transform="translate(1800.625 0)"/>
     <use xlink:href="#DejaVuSans-Oblique-5a" transform="translate(1832.40625 0)"/>
     <use xlink:href="#DejaVuSans-Oblique-4c" transform="translate(1914.1875 0)"/>
     <use xlink:href="#DejaVuSans-Oblique-51" transform="translate(1941.96875 0)"/>
     <use xlink:href="#DejaVuSans-Oblique-51" transform="translate(2005.34375 0)"/>
     <use xlink:href="#DejaVuSans-Oblique-48" transform="translate(2068.71875 0)"/>
     <use xlink:href="#DejaVuSans-Oblique-55" transform="translate(2130.25 0)"/>
     <use xlink:href="#DejaVuSans-Oblique-3" transform="translate(2171.359375 0)"/>
     <use xlink:href="#DejaVuSans-Oblique-47" transform="translate(2203.140625 0)"/>
     <use xlink:href="#DejaVuSans-Oblique-48" transform="translate(2266.625 0)"/>
     <use xlink:href="#DejaVuSans-Oblique-46" transform="translate(2328.15625 0)"/>
     <use xlink:href="#DejaVuSans-Oblique-4f" transform="translate(2383.140625 0)"/>
     <use xlink:href="#DejaVuSans-Oblique-44" transform="translate(2410.921875 0)"/>
     <use xlink:href="#DejaVuSans-Oblique-55" transform="translate(2472.203125 0)"/>
     <use xlink:href="#DejaVuSans-Oblique-48" transform="translate(2513.3125 0)"/>
     <use xlink:href="#DejaVuSans-Oblique-47" transform="translate(2574.84375 0)"/>
    </g>
   </g>
   <g id="text_3">
    <!-- Shared input:  genome-scale CD4⁺ T-cell Perturb-seq dataset -->
    <g style="fill: #111111" transform="translate(129.388477 49.784306) scale(0.085 -0.085)">
     <defs>
      <path id="DejaVuSans-Bold-36" d="M 3834 4519 
L 3834 3531 
Q 3450 3703 3084 3790 
Q 2719 3878 2394 3878 
Q 1963 3878 1756 3759 
Q 1550 3641 1550 3391 
Q 1550 3203 1689 3098 
Q 1828 2994 2194 2919 
L 2706 2816 
Q 3484 2659 3812 2340 
Q 4141 2022 4141 1434 
Q 4141 663 3683 286 
Q 3225 -91 2284 -91 
Q 1841 -91 1394 -6 
Q 947 78 500 244 
L 500 1259 
Q 947 1022 1364 901 
Q 1781 781 2169 781 
Q 2563 781 2772 912 
Q 2981 1044 2981 1288 
Q 2981 1506 2839 1625 
Q 2697 1744 2272 1838 
L 1806 1941 
Q 1106 2091 782 2419 
Q 459 2747 459 3303 
Q 459 4000 909 4375 
Q 1359 4750 2203 4750 
Q 2588 4750 2994 4692 
Q 3400 4634 3834 4519 
z
" transform="scale(0.015625)"/>
      <path id="DejaVuSans-Bold-4a" d="M 2919 594 
Q 2688 288 2409 144 
Q 2131 0 1766 0 
Q 1125 0 706 504 
Q 288 1009 288 1791 
Q 288 2575 706 3076 
Q 1125 3578 1766 3578 
Q 2131 3578 2409 3434 
Q 2688 3291 2919 2981 
L 2919 3500 
L 4044 3500 
L 4044 353 
Q 4044 -491 3511 -936 
Q 2978 -1381 1966 -1381 
Q 1638 -1381 1331 -1331 
Q 1025 -1281 716 -1178 
L 716 -306 
Q 1009 -475 1290 -558 
Q 1572 -641 1856 -641 
Q 2406 -641 2662 -400 
Q 2919 -159 2919 353 
L 2919 594 
z
M 2181 2772 
Q 1834 2772 1640 2515 
Q 1447 2259 1447 1791 
Q 1447 1309 1634 1061 
Q 1822 813 2181 813 
Q 2531 813 2725 1069 
Q 2919 1325 2919 1791 
Q 2919 2259 2725 2515 
Q 2531 2772 2181 2772 
z
" transform="scale(0.015625)"/>
      <path id="DejaVuSans-Bold-50" d="M 3781 2919 
Q 3994 3244 4286 3414 
Q 4578 3584 4928 3584 
Q 5531 3584 5847 3212 
Q 6163 2841 6163 2131 
L 6163 0 
L 5038 0 
L 5038 1825 
Q 5041 1866 5042 1909 
Q 5044 1953 5044 2034 
Q 5044 2406 4934 2573 
Q 4825 2741 4581 2741 
Q 4263 2741 4089 2478 
Q 3916 2216 3909 1719 
L 3909 0 
L 2784 0 
L 2784 1825 
Q 2784 2406 2684 2573 
Q 2584 2741 2328 2741 
Q 2006 2741 1831 2477 
Q 1656 2213 1656 1722 
L 1656 0 
L 531 0 
L 531 3500 
L 1656 3500 
L 1656 2988 
Q 1863 3284 2130 3434 
Q 2397 3584 2719 3584 
Q 3081 3584 3359 3409 
Q 3638 3234 3781 2919 
z
" transform="scale(0.015625)"/>
      <path id="DejaVuSans-Bold-26" d="M 4288 256 
Q 3956 84 3597 -3 
Q 3238 -91 2847 -91 
Q 1681 -91 1000 561 
Q 319 1213 319 2328 
Q 319 3447 1000 4098 
Q 1681 4750 2847 4750 
Q 3238 4750 3597 4662 
Q 3956 4575 4288 4403 
L 4288 3438 
Q 3953 3666 3628 3772 
Q 3303 3878 2944 3878 
Q 2300 3878 1931 3465 
Q 1563 3053 1563 2328 
Q 1563 1606 1931 1193 
Q 2300 781 2944 781 
Q 3303 781 3628 887 
Q 3953 994 4288 1222 
L 4288 256 
z
" transform="scale(0.015625)"/>
      <path id="DejaVuSans-Bold-27" d="M 1791 3756 
L 1791 909 
L 2222 909 
Q 2959 909 3348 1275 
Q 3738 1641 3738 2338 
Q 3738 3031 3350 3393 
Q 2963 3756 2222 3756 
L 1791 3756 
z
M 588 4666 
L 1856 4666 
Q 2919 4666 3439 4514 
Q 3959 4363 4331 4000 
Q 4659 3684 4818 3271 
Q 4978 2859 4978 2338 
Q 4978 1809 4818 1395 
Q 4659 981 4331 666 
Q 3956 303 3431 151 
Q 2906 0 1856 0 
L 588 0 
L 588 4666 
z
" transform="scale(0.015625)"/>
      <path id="DejaVuSans-Bold-17" d="M 2356 3675 
L 1038 1722 
L 2356 1722 
L 2356 3675 
z
M 2156 4666 
L 3494 4666 
L 3494 1722 
L 4159 1722 
L 4159 850 
L 3494 850 
L 3494 0 
L 2356 0 
L 2356 850 
L 288 850 
L 288 1881 
L 2156 4666 
z
" transform="scale(0.015625)"/>
      <path id="DejaVuSans-Bold-b55" d="M 1925 4334 
L 1925 3419 
L 2950 3419 
L 2950 3003 
L 1925 3003 
L 1925 2088 
L 1456 2088 
L 1456 3003 
L 428 3003 
L 428 3419 
L 1456 3419 
L 1456 4334 
L 1925 4334 
z
" transform="scale(0.015625)"/>
      <path id="DejaVuSans-Bold-37" d="M 31 4666 
L 4331 4666 
L 4331 3756 
L 2784 3756 
L 2784 0 
L 1581 0 
L 1581 3756 
L 31 3756 
L 31 4666 
z
" transform="scale(0.015625)"/>
      <path id="DejaVuSans-Bold-33" d="M 588 4666 
L 2584 4666 
Q 3475 4666 3951 4270 
Q 4428 3875 4428 3144 
Q 4428 2409 3951 2014 
Q 3475 1619 2584 1619 
L 1791 1619 
L 1791 0 
L 588 0 
L 588 4666 
z
M 1791 3794 
L 1791 2491 
L 2456 2491 
Q 2806 2491 2997 2661 
Q 3188 2831 3188 3144 
Q 3188 3456 2997 3625 
Q 2806 3794 2456 3794 
L 1791 3794 
z
" transform="scale(0.015625)"/>
      <path id="DejaVuSans-Bold-45" d="M 2400 722 
Q 2759 722 2948 984 
Q 3138 1247 3138 1747 
Q 3138 2247 2948 2509 
Q 2759 2772 2400 2772 
Q 2041 2772 1848 2508 
Q 1656 2244 1656 1747 
Q 1656 1250 1848 986 
Q 2041 722 2400 722 
z
M 1656 2988 
Q 1888 3294 2169 3439 
Q 2450 3584 2816 3584 
Q 3463 3584 3878 3070 
Q 4294 2556 4294 1747 
Q 4294 938 3878 423 
Q 3463 -91 2816 -91 
Q 2450 -91 2169 54 
Q 1888 200 1656 506 
L 1656 0 
L 538 0 
L 538 4863 
L 1656 4863 
L 1656 2988 
z
" transform="scale(0.015625)"/>
     </defs>
     <use xlink:href="#DejaVuSans-Bold-36"/>
     <use xlink:href="#DejaVuSans-Bold-4b" transform="translate(72.015625 0)"/>
     <use xlink:href="#DejaVuSans-Bold-44" transform="translate(143.203125 0)"/>
     <use xlink:href="#DejaVuSans-Bold-55" transform="translate(210.6875 0)"/>
     <use xlink:href="#DejaVuSans-Bold-48" transform="translate(260 0)"/>
     <use xlink:href="#DejaVuSans-Bold-47" transform="translate(327.828125 0)"/>
     <use xlink:href="#DejaVuSans-Bold-3" transform="translate(399.40625 0)"/>
     <use xlink:href="#DejaVuSans-Bold-4c" transform="translate(434.21875 0)"/>
     <use xlink:href="#DejaVuSans-Bold-51" transform="translate(468.5 0)"/>
     <use xlink:href="#DejaVuSans-Bold-53" transform="translate(539.6875 0)"/>
     <use xlink:href="#DejaVuSans-Bold-58" transform="translate(611.265625 0)"/>
     <use xlink:href="#DejaVuSans-Bold-57" transform="translate(682.453125 0)"/>
     <use xlink:href="#DejaVuSans-Bold-1d" transform="translate(730.25 0)"/>
     <use xlink:href="#DejaVuSans-Bold-3" transform="translate(770.234375 0)"/>
     <use xlink:href="#DejaVuSans-Bold-3" transform="translate(805.046875 0)"/>
     <use xlink:href="#DejaVuSans-Bold-4a" transform="translate(839.859375 0)"/>
     <use xlink:href="#DejaVuSans-Bold-48" transform="translate(911.4375 0)"/>
     <use xlink:href="#DejaVuSans-Bold-51" transform="translate(979.265625 0)"/>
     <use xlink:href="#DejaVuSans-Bold-52" transform="translate(1050.453125 0)"/>
     <use xlink:href="#DejaVuSans-Bold-50" transform="translate(1119.15625 0)"/>
     <use xlink:href="#DejaVuSans-Bold-48" transform="translate(1223.359375 0)"/>
     <use xlink:href="#DejaVuSans-Bold-10" transform="translate(1291.1875 0)"/>
     <use xlink:href="#DejaVuSans-Bold-56" transform="translate(1332.6875 0)"/>
     <use xlink:href="#DejaVuSans-Bold-46" transform="translate(1392.203125 0)"/>
     <use xlink:href="#DejaVuSans-Bold-44" transform="translate(1451.484375 0)"/>
     <use xlink:href="#DejaVuSans-Bold-4f" transform="translate(1518.96875 0)"/>
     <use xlink:href="#DejaVuSans-Bold-48" transform="translate(1553.25 0)"/>
     <use xlink:href="#DejaVuSans-Bold-3" transform="translate(1621.078125 0)"/>
     <use xlink:href="#DejaVuSans-Bold-26" transform="translate(1655.890625 0)"/>
     <use xlink:href="#DejaVuSans-Bold-27" transform="translate(1729.28125 0)"/>
     <use xlink:href="#DejaVuSans-Bold-17" transform="translate(1812.296875 0)"/>
     <use xlink:href="#DejaVuSans-Bold-b55" transform="translate(1881.875 0)"/>
     <use xlink:href="#DejaVuSans-Bold-3" transform="translate(1934.65625 0)"/>
     <use xlink:href="#DejaVuSans-Bold-37" transform="translate(1969.46875 0)"/>
     <use xlink:href="#DejaVuSans-Bold-10" transform="translate(2022.984375 0)"/>
     <use xlink:href="#DejaVuSans-Bold-46" transform="translate(2064.484375 0)"/>
     <use xlink:href="#DejaVuSans-Bold-48" transform="translate(2123.765625 0)"/>
     <use xlink:href="#DejaVuSans-Bold-4f" transform="translate(2191.59375 0)"/>
     <use xlink:href="#DejaVuSans-Bold-4f" transform="translate(2225.875 0)"/>
     <use xlink:href="#DejaVuSans-Bold-3" transform="translate(2260.15625 0)"/>
     <use xlink:href="#DejaVuSans-Bold-33" transform="translate(2294.96875 0)"/>
     <use xlink:href="#DejaVuSans-Bold-48" transform="translate(2368.265625 0)"/>
     <use xlink:href="#DejaVuSans-Bold-55" transform="translate(2436.09375 0)"/>
     <use xlink:href="#DejaVuSans-Bold-57" transform="translate(2485.40625 0)"/>
     <use xlink:href="#DejaVuSans-Bold-58" transform="translate(2533.203125 0)"/>
     <use xlink:href="#DejaVuSans-Bold-55" transform="translate(2604.390625 0)"/>
     <use xlink:href="#DejaVuSans-Bold-45" transform="translate(2653.703125 0)"/>
     <use xlink:href="#DejaVuSans-Bold-10" transform="translate(2725.28125 0)"/>
     <use xlink:href="#DejaVuSans-Bold-56" transform="translate(2766.78125 0)"/>
     <use xlink:href="#DejaVuSans-Bold-48" transform="translate(2826.296875 0)"/>
     <use xlink:href="#DejaVuSans-Bold-54" transform="translate(2894.125 0)"/>
     <use xlink:href="#DejaVuSans-Bold-3" transform="translate(2965.703125 0)"/>
     <use xlink:href="#DejaVuSans-Bold-47" transform="translate(3000.515625 0)"/>
     <use xlink:href="#DejaVuSans-Bold-44" transform="translate(3072.09375 0)"/>
     <use xlink:href="#DejaVuSans-Bold-57" transform="translate(3139.578125 0)"/>
     <use xlink:href="#DejaVuSans-Bold-44" transform="translate(3187.375 0)"/>
     <use xlink:href="#DejaVuSans-Bold-56" transform="translate(3254.859375 0)"/>
     <use xlink:href="#DejaVuSans-Bold-48" transform="translate(3314.375 0)"/>
     <use xlink:href="#DejaVuSans-Bold-57" transform="translate(3382.203125 0)"/>
    </g>
    <!-- + one identical question (natural metabolite for an autoimmune disease) -->
    <g style="fill: #111111" transform="translate(99.506328 60.867509) scale(0.085 -0.085)">
     <defs>
      <path id="DejaVuSans-Bold-e" d="M 3053 4013 
L 3053 2375 
L 4684 2375 
L 4684 1638 
L 3053 1638 
L 3053 0 
L 2309 0 
L 2309 1638 
L 678 1638 
L 678 2375 
L 2309 2375 
L 2309 4013 
L 3053 4013 
z
" transform="scale(0.015625)"/>
      <path id="DejaVuSans-Bold-b" d="M 2413 -844 
L 1484 -844 
Q 1006 -72 778 623 
Q 550 1319 550 2003 
Q 550 2688 779 3389 
Q 1009 4091 1484 4856 
L 2413 4856 
Q 2013 4116 1813 3408 
Q 1613 2700 1613 2009 
Q 1613 1319 1811 609 
Q 2009 -100 2413 -844 
z
" transform="scale(0.015625)"/>
      <path id="DejaVuSans-Bold-49" d="M 2841 4863 
L 2841 4128 
L 2222 4128 
Q 1984 4128 1890 4042 
Q 1797 3956 1797 3744 
L 1797 3500 
L 2753 3500 
L 2753 2700 
L 1797 2700 
L 1797 0 
L 678 0 
L 678 2700 
L 122 2700 
L 122 3500 
L 678 3500 
L 678 3744 
Q 678 4316 997 4589 
Q 1316 4863 1984 4863 
L 2841 4863 
z
" transform="scale(0.015625)"/>
      <path id="DejaVuSans-Bold-c" d="M 513 -844 
Q 913 -100 1113 609 
Q 1313 1319 1313 2009 
Q 1313 2700 1113 3408 
Q 913 4116 513 4856 
L 1441 4856 
Q 1916 4091 2145 3389 
Q 2375 2688 2375 2003 
Q 2375 1319 2147 623 
Q 1919 -72 1441 -844 
L 513 -844 
z
" transform="scale(0.015625)"/>
     </defs>
     <use xlink:href="#DejaVuSans-Bold-e"/>
     <use xlink:href="#DejaVuSans-Bold-3" transform="translate(83.796875 0)"/>
     <use xlink:href="#DejaVuSans-Bold-52" transform="translate(118.609375 0)"/>
     <use xlink:href="#DejaVuSans-Bold-51" transform="translate(187.3125 0)"/>
     <use xlink:href="#DejaVuSans-Bold-48" transform="translate(258.5 0)"/>
     <use xlink:href="#DejaVuSans-Bold-3" transform="translate(326.328125 0)"/>
     <use xlink:href="#DejaVuSans-Bold-4c" transform="translate(361.140625 0)"/>
     <use xlink:href="#DejaVuSans-Bold-47" transform="translate(395.421875 0)"/>
     <use xlink:href="#DejaVuSans-Bold-48" transform="translate(467 0)"/>
     <use xlink:href="#DejaVuSans-Bold-51" transform="translate(534.828125 0)"/>
     <use xlink:href="#DejaVuSans-Bold-57" transform="translate(606.015625 0)"/>
     <use xlink:href="#DejaVuSans-Bold-4c" transform="translate(653.8125 0)"/>
     <use xlink:href="#DejaVuSans-Bold-46" transform="translate(688.09375 0)"/>
     <use xlink:href="#DejaVuSans-Bold-44" transform="translate(747.375 0)"/>
     <use xlink:href="#DejaVuSans-Bold-4f" transform="translate(814.859375 0)"/>
     <use xlink:href="#DejaVuSans-Bold-3" transform="translate(849.140625 0)"/>
     <use xlink:href="#DejaVuSans-Bold-54" transform="translate(883.953125 0)"/>
     <use xlink:href="#DejaVuSans-Bold-58" transform="translate(955.53125 0)"/>
     <use xlink:href="#DejaVuSans-Bold-48" transform="translate(1026.71875 0)"/>
     <use xlink:href="#DejaVuSans-Bold-56" transform="translate(1094.546875 0)"/>
     <use xlink:href="#DejaVuSans-Bold-57" transform="translate(1154.0625 0)"/>
     <use xlink:href="#DejaVuSans-Bold-4c" transform="translate(1201.859375 0)"/>
     <use xlink:href="#DejaVuSans-Bold-52" transform="translate(1236.140625 0)"/>
     <use xlink:href="#DejaVuSans-Bold-51" transform="translate(1304.84375 0)"/>
     <use xlink:href="#DejaVuSans-Bold-3" transform="translate(1376.03125 0)"/>
     <use xlink:href="#DejaVuSans-Bold-b" transform="translate(1410.84375 0)"/>
     <use xlink:href="#DejaVuSans-Bold-51" transform="translate(1456.546875 0)"/>
     <use xlink:href="#DejaVuSans-Bold-44" transform="translate(1527.734375 0)"/>
     <use xlink:href="#DejaVuSans-Bold-57" transform="translate(1595.21875 0)"/>
     <use xlink:href="#DejaVuSans-Bold-58" transform="translate(1643.015625 0)"/>
     <use xlink:href="#DejaVuSans-Bold-55" transform="translate(1714.203125 0)"/>
     <use xlink:href="#DejaVuSans-Bold-44" transform="translate(1763.515625 0)"/>
     <use xlink:href="#DejaVuSans-Bold-4f" transform="translate(1831 0)"/>
     <use xlink:href="#DejaVuSans-Bold-3" transform="translate(1865.28125 0)"/>
     <use xlink:href="#DejaVuSans-Bold-50" transform="translate(1900.09375 0)"/>
     <use xlink:href="#DejaVuSans-Bold-48" transform="translate(2004.296875 0)"/>
     <use xlink:href="#DejaVuSans-Bold-57" transform="translate(2072.125 0)"/>
     <use xlink:href="#DejaVuSans-Bold-44" transform="translate(2119.921875 0)"/>
     <use xlink:href="#DejaVuSans-Bold-45" transform="translate(2187.40625 0)"/>
     <use xlink:href="#DejaVuSans-Bold-52" transform="translate(2258.984375 0)"/>
     <use xlink:href="#DejaVuSans-Bold-4f" transform="translate(2327.6875 0)"/>
     <use xlink:href="#DejaVuSans-Bold-4c" transform="translate(2361.96875 0)"/>
     <use xlink:href="#DejaVuSans-Bold-57" transform="translate(2396.25 0)"/>
     <use xlink:href="#DejaVuSans-Bold-48" transform="translate(2444.046875 0)"/>
     <use xlink:href="#DejaVuSans-Bold-3" transform="translate(2511.875 0)"/>
     <use xlink:href="#DejaVuSans-Bold-49" transform="translate(2546.6875 0)"/>
     <use xlink:href="#DejaVuSans-Bold-52" transform="translate(2590.1875 0)"/>
     <use xlink:href="#DejaVuSans-Bold-55" transform="translate(2658.890625 0)"/>
     <use xlink:href="#DejaVuSans-Bold-3" transform="translate(2708.203125 0)"/>
     <use xlink:href="#DejaVuSans-Bold-44" transform="translate(2743.015625 0)"/>
     <use xlink:href="#DejaVuSans-Bold-51" transform="translate(2810.5 0)"/>
     <use xlink:href="#DejaVuSans-Bold-3" transform="translate(2881.6875 0)"/>
     <use xlink:href="#DejaVuSans-Bold-44" transform="translate(2916.5 0)"/>
     <use xlink:href="#DejaVuSans-Bold-58" transform="translate(2983.984375 0)"/>
     <use xlink:href="#DejaVuSans-Bold-57" transform="translate(3055.171875 0)"/>
     <use xlink:href="#DejaVuSans-Bold-52" transform="translate(3102.96875 0)"/>
     <use xlink:href="#DejaVuSans-Bold-4c" transform="translate(3171.671875 0)"/>
     <use xlink:href="#DejaVuSans-Bold-50" transform="translate(3205.953125 0)"/>
     <use xlink:href="#DejaVuSans-Bold-50" transform="translate(3310.15625 0)"/>
     <use xlink:href="#DejaVuSans-Bold-58" transform="translate(3414.359375 0)"/>
     <use xlink:href="#DejaVuSans-Bold-51" transform="translate(3485.546875 0)"/>
     <use xlink:href="#DejaVuSans-Bold-48" transform="translate(3556.734375 0)"/>
     <use xlink:href="#DejaVuSans-Bold-3" transform="translate(3624.5625 0)"/>
     <use xlink:href="#DejaVuSans-Bold-47" transform="translate(3659.375 0)"/>
     <use xlink:href="#DejaVuSans-Bold-4c" transform="translate(3730.953125 0)"/>
     <use xlink:href="#DejaVuSans-Bold-56" transform="translate(3765.234375 0)"/>
     <use xlink:href="#DejaVuSans-Bold-48" transform="translate(3824.75 0)"/>
     <use xlink:href="#DejaVuSans-Bold-44" transform="translate(3892.578125 0)"/>
     <use xlink:href="#DejaVuSans-Bold-56" transform="translate(3960.0625 0)"/>
     <use xlink:href="#DejaVuSans-Bold-48" transform="translate(4019.578125 0)"/>
     <use xlink:href="#DejaVuSans-Bold-c" transform="translate(4087.40625 0)"/>
    </g>
   </g>
   <g id="text_4">
    <!-- Baseline -->
    <g style="fill: #ffffff" transform="translate(128.025827 98.125325) scale(0.1 -0.1)">
     <defs>
      <path id="DejaVuSans-Bold-25" d="M 2456 2859 
Q 2741 2859 2887 2984 
Q 3034 3109 3034 3353 
Q 3034 3594 2887 3720 
Q 2741 3847 2456 3847 
L 1791 3847 
L 1791 2859 
L 2456 2859 
z
M 2497 819 
Q 2859 819 3042 972 
Q 3225 1125 3225 1434 
Q 3225 1738 3044 1889 
Q 2863 2041 2497 2041 
L 1791 2041 
L 1791 819 
L 2497 819 
z
M 3616 2497 
Q 4003 2384 4215 2081 
Q 4428 1778 4428 1338 
Q 4428 663 3972 331 
Q 3516 0 2584 0 
L 588 0 
L 588 4666 
L 2394 4666 
Q 3366 4666 3802 4372 
Q 4238 4078 4238 3431 
Q 4238 3091 4078 2852 
Q 3919 2613 3616 2497 
z
" transform="scale(0.015625)"/>
     </defs>
     <use xlink:href="#DejaVuSans-Bold-25"/>
     <use xlink:href="#DejaVuSans-Bold-44" transform="translate(76.21875 0)"/>
     <use xlink:href="#DejaVuSans-Bold-56" transform="translate(143.703125 0)"/>
     <use xlink:href="#DejaVuSans-Bold-48" transform="translate(203.21875 0)"/>
     <use xlink:href="#DejaVuSans-Bold-4f" transform="translate(271.046875 0)"/>
     <use xlink:href="#DejaVuSans-Bold-4c" transform="translate(305.328125 0)"/>
     <use xlink:href="#DejaVuSans-Bold-51" transform="translate(339.609375 0)"/>
     <use xlink:href="#DejaVuSans-Bold-48" transform="translate(410.796875 0)"/>
    </g>
    <!-- (blank Claude Science) -->
    <g style="fill: #ffffff" transform="translate(87.481295 110.537044) scale(0.1 -0.1)">
     <defs>
      <path id="DejaVuSans-Bold-4e" d="M 538 4863 
L 1656 4863 
L 1656 2216 
L 2944 3500 
L 4244 3500 
L 2534 1894 
L 4378 0 
L 3022 0 
L 1656 1459 
L 1656 0 
L 538 0 
L 538 4863 
z
" transform="scale(0.015625)"/>
     </defs>
     <use xlink:href="#DejaVuSans-Bold-b"/>
     <use xlink:href="#DejaVuSans-Bold-45" transform="translate(45.703125 0)"/>
     <use xlink:href="#DejaVuSans-Bold-4f" transform="translate(117.28125 0)"/>
     <use xlink:href="#DejaVuSans-Bold-44" transform="translate(151.5625 0)"/>
     <use xlink:href="#DejaVuSans-Bold-51" transform="translate(219.046875 0)"/>
     <use xlink:href="#DejaVuSans-Bold-4e" transform="translate(290.234375 0)"/>
     <use xlink:href="#DejaVuSans-Bold-3" transform="translate(356.734375 0)"/>
     <use xlink:href="#DejaVuSans-Bold-26" transform="translate(391.546875 0)"/>
     <use xlink:href="#DejaVuSans-Bold-4f" transform="translate(464.9375 0)"/>
     <use xlink:href="#DejaVuSans-Bold-44" transform="translate(499.21875 0)"/>
     <use xlink:href="#DejaVuSans-Bold-58" transform="translate(566.703125 0)"/>
     <use xlink:href="#DejaVuSans-Bold-47" transform="translate(637.890625 0)"/>
     <use xlink:href="#DejaVuSans-Bold-48" transform="translate(709.46875 0)"/>
     <use xlink:href="#DejaVuSans-Bold-3" transform="translate(777.296875 0)"/>
     <use xlink:href="#DejaVuSans-Bold-36" transform="translate(812.109375 0)"/>
     <use xlink:href="#DejaVuSans-Bold-46" transform="translate(884.125 0)"/>
     <use xlink:href="#DejaVuSans-Bold-4c" transform="translate(943.40625 0)"/>
     <use xlink:href="#DejaVuSans-Bold-48" transform="translate(977.6875 0)"/>
     <use xlink:href="#DejaVuSans-Bold-51" transform="translate(1045.515625 0)"/>
     <use xlink:href="#DejaVuSans-Bold-46" transform="translate(1116.703125 0)"/>
     <use xlink:href="#DejaVuSans-Bold-48" transform="translate(1175.984375 0)"/>
     <use xlink:href="#DejaVuSans-Bold-c" transform="translate(1243.8125 0)"/>
    </g>
   </g>
   <g id="text_5">
    <!-- TARGET -->
    <g style="fill: #999999" transform="translate(135.702584 127.541664) scale(0.075 -0.075)">
     <defs>
      <path id="DejaVuSans-Bold-24" d="M 3419 850 
L 1538 850 
L 1241 0 
L 31 0 
L 1759 4666 
L 3194 4666 
L 4922 0 
L 3713 0 
L 3419 850 
z
M 1838 1716 
L 3116 1716 
L 2478 3572 
L 1838 1716 
z
" transform="scale(0.015625)"/>
      <path id="DejaVuSans-Bold-35" d="M 2297 2597 
Q 2675 2597 2839 2737 
Q 3003 2878 3003 3200 
Q 3003 3519 2839 3656 
Q 2675 3794 2297 3794 
L 1791 3794 
L 1791 2597 
L 2297 2597 
z
M 1791 1766 
L 1791 0 
L 588 0 
L 588 4666 
L 2425 4666 
Q 3347 4666 3776 4356 
Q 4206 4047 4206 3378 
Q 4206 2916 3982 2619 
Q 3759 2322 3309 2181 
Q 3556 2125 3751 1926 
Q 3947 1728 4147 1325 
L 4800 0 
L 3519 0 
L 2950 1159 
Q 2778 1509 2601 1637 
Q 2425 1766 2131 1766 
L 1791 1766 
z
" transform="scale(0.015625)"/>
      <path id="DejaVuSans-Bold-2a" d="M 4781 347 
Q 4331 128 3847 18 
Q 3363 -91 2847 -91 
Q 1681 -91 1000 561 
Q 319 1213 319 2328 
Q 319 3456 1012 4103 
Q 1706 4750 2913 4750 
Q 3378 4750 3804 4662 
Q 4231 4575 4609 4403 
L 4609 3438 
Q 4219 3659 3833 3768 
Q 3447 3878 3059 3878 
Q 2341 3878 1952 3476 
Q 1563 3075 1563 2328 
Q 1563 1588 1938 1184 
Q 2313 781 3003 781 
Q 3191 781 3352 804 
Q 3513 828 3641 878 
L 3641 1784 
L 2906 1784 
L 2906 2591 
L 4781 2591 
L 4781 347 
z
" transform="scale(0.015625)"/>
      <path id="DejaVuSans-Bold-28" d="M 588 4666 
L 3834 4666 
L 3834 3756 
L 1791 3756 
L 1791 2888 
L 3713 2888 
L 3713 1978 
L 1791 1978 
L 1791 909 
L 3903 909 
L 3903 0 
L 588 0 
L 588 4666 
z
" transform="scale(0.015625)"/>
     </defs>
     <use xlink:href="#DejaVuSans-Bold-37"/>
     <use xlink:href="#DejaVuSans-Bold-24" transform="translate(60.453125 0)"/>
     <use xlink:href="#DejaVuSans-Bold-35" transform="translate(137.84375 0)"/>
     <use xlink:href="#DejaVuSans-Bold-2a" transform="translate(214.84375 0)"/>
     <use xlink:href="#DejaVuSans-Bold-28" transform="translate(296.921875 0)"/>
     <use xlink:href="#DejaVuSans-Bold-37" transform="translate(365.234375 0)"/>
    </g>
   </g>
   <g id="text_6">
    <!-- IMPDH2 -->
    <g transform="translate(130.757975 146.933983) scale(0.095 -0.095)">
     <defs>
      <path id="DejaVuSans-Bold-2c" d="M 588 4666 
L 1791 4666 
L 1791 0 
L 588 0 
L 588 4666 
z
" transform="scale(0.015625)"/>
      <path id="DejaVuSans-Bold-30" d="M 588 4666 
L 2119 4666 
L 3181 2169 
L 4250 4666 
L 5778 4666 
L 5778 0 
L 4641 0 
L 4641 3413 
L 3566 897 
L 2803 897 
L 1728 3413 
L 1728 0 
L 588 0 
L 588 4666 
z
" transform="scale(0.015625)"/>
      <path id="DejaVuSans-Bold-2b" d="M 588 4666 
L 1791 4666 
L 1791 2888 
L 3566 2888 
L 3566 4666 
L 4769 4666 
L 4769 0 
L 3566 0 
L 3566 1978 
L 1791 1978 
L 1791 0 
L 588 0 
L 588 4666 
z
" transform="scale(0.015625)"/>
      <path id="DejaVuSans-Bold-15" d="M 1844 884 
L 3897 884 
L 3897 0 
L 506 0 
L 506 884 
L 2209 2388 
Q 2438 2594 2547 2791 
Q 2656 2988 2656 3200 
Q 2656 3528 2436 3728 
Q 2216 3928 1850 3928 
Q 1569 3928 1234 3808 
Q 900 3688 519 3450 
L 519 4475 
Q 925 4609 1322 4679 
Q 1719 4750 2100 4750 
Q 2938 4750 3402 4381 
Q 3866 4013 3866 3353 
Q 3866 2972 3669 2642 
Q 3472 2313 2841 1759 
L 1844 884 
z
" transform="scale(0.015625)"/>
     </defs>
     <use xlink:href="#DejaVuSans-Bold-2c"/>
     <use xlink:href="#DejaVuSans-Bold-30" transform="translate(37.203125 0)"/>
     <use xlink:href="#DejaVuSans-Bold-33" transform="translate(136.71875 0)"/>
     <use xlink:href="#DejaVuSans-Bold-27" transform="translate(210.015625 0)"/>
     <use xlink:href="#DejaVuSans-Bold-2b" transform="translate(293.03125 0)"/>
     <use xlink:href="#DejaVuSans-Bold-15" transform="translate(376.71875 0)"/>
    </g>
   </g>
   <g id="text_7">
    <!-- NATURAL PRODUCT -->
    <g style="fill: #999999" transform="translate(110.827194 173.944944) scale(0.075 -0.075)">
     <defs>
      <path id="DejaVuSans-Bold-31" d="M 588 4666 
L 1931 4666 
L 3628 1466 
L 3628 4666 
L 4769 4666 
L 4769 0 
L 3425 0 
L 1728 3200 
L 1728 0 
L 588 0 
L 588 4666 
z
" transform="scale(0.015625)"/>
      <path id="DejaVuSans-Bold-38" d="M 588 4666 
L 1791 4666 
L 1791 1869 
Q 1791 1291 1980 1042 
Q 2169 794 2597 794 
Q 3028 794 3217 1042 
Q 3406 1291 3406 1869 
L 3406 4666 
L 4609 4666 
L 4609 1869 
Q 4609 878 4112 393 
Q 3616 -91 2597 -91 
Q 1581 -91 1084 393 
Q 588 878 588 1869 
L 588 4666 
z
" transform="scale(0.015625)"/>
      <path id="DejaVuSans-Bold-2f" d="M 588 4666 
L 1791 4666 
L 1791 909 
L 3903 909 
L 3903 0 
L 588 0 
L 588 4666 
z
" transform="scale(0.015625)"/>
      <path id="DejaVuSans-Bold-32" d="M 2719 3878 
Q 2169 3878 1866 3472 
Q 1563 3066 1563 2328 
Q 1563 1594 1866 1187 
Q 2169 781 2719 781 
Q 3272 781 3575 1187 
Q 3878 1594 3878 2328 
Q 3878 3066 3575 3472 
Q 3272 3878 2719 3878 
z
M 2719 4750 
Q 3844 4750 4481 4106 
Q 5119 3463 5119 2328 
Q 5119 1197 4481 553 
Q 3844 -91 2719 -91 
Q 1597 -91 958 553 
Q 319 1197 319 2328 
Q 319 3463 958 4106 
Q 1597 4750 2719 4750 
z
" transform="scale(0.015625)"/>
     </defs>
     <use xlink:href="#DejaVuSans-Bold-31"/>
     <use xlink:href="#DejaVuSans-Bold-24" transform="translate(83.6875 0)"/>
     <use xlink:href="#DejaVuSans-Bold-37" transform="translate(153.3125 0)"/>
     <use xlink:href="#DejaVuSans-Bold-38" transform="translate(221.53125 0)"/>
     <use xlink:href="#DejaVuSans-Bold-35" transform="translate(302.734375 0)"/>
     <use xlink:href="#DejaVuSans-Bold-24" transform="translate(379.734375 0)"/>
     <use xlink:href="#DejaVuSans-Bold-2f" transform="translate(457.125 0)"/>
     <use xlink:href="#DejaVuSans-Bold-3" transform="translate(520.84375 0)"/>
     <use xlink:href="#DejaVuSans-Bold-33" transform="translate(555.65625 0)"/>
     <use xlink:href="#DejaVuSans-Bold-35" transform="translate(628.953125 0)"/>
     <use xlink:href="#DejaVuSans-Bold-32" transform="translate(705.953125 0)"/>
     <use xlink:href="#DejaVuSans-Bold-27" transform="translate(790.96875 0)"/>
     <use xlink:href="#DejaVuSans-Bold-38" transform="translate(873.984375 0)"/>
     <use xlink:href="#DejaVuSans-Bold-26" transform="translate(955.1875 0)"/>
     <use xlink:href="#DejaVuSans-Bold-37" transform="translate(1028.578125 0)"/>
    </g>
   </g>
   <g id="text_8">
    <!-- Mycophenolic acid -->
    <g transform="translate(102.630553 192.396169) scale(0.095 -0.095)">
     <defs>
      <path id="DejaVuSans-Bold-5c" d="M 78 3500 
L 1197 3500 
L 2138 1125 
L 2938 3500 
L 4056 3500 
L 2584 -331 
Q 2363 -916 2067 -1148 
Q 1772 -1381 1288 -1381 
L 641 -1381 
L 641 -647 
L 991 -647 
Q 1275 -647 1404 -556 
Q 1534 -466 1606 -231 
L 1638 -134 
L 78 3500 
z
" transform="scale(0.015625)"/>
     </defs>
     <use xlink:href="#DejaVuSans-Bold-30"/>
     <use xlink:href="#DejaVuSans-Bold-5c" transform="translate(99.515625 0)"/>
     <use xlink:href="#DejaVuSans-Bold-46" transform="translate(164.703125 0)"/>
     <use xlink:href="#DejaVuSans-Bold-52" transform="translate(223.984375 0)"/>
     <use xlink:href="#DejaVuSans-Bold-53" transform="translate(292.6875 0)"/>
     <use xlink:href="#DejaVuSans-Bold-4b" transform="translate(364.265625 0)"/>
     <use xlink:href="#DejaVuSans-Bold-48" transform="translate(435.453125 0)"/>
     <use xlink:href="#DejaVuSans-Bold-51" transform="translate(503.28125 0)"/>
     <use xlink:href="#DejaVuSans-Bold-52" transform="translate(574.46875 0)"/>
     <use xlink:href="#DejaVuSans-Bold-4f" transform="translate(643.171875 0)"/>
     <use xlink:href="#DejaVuSans-Bold-4c" transform="translate(677.453125 0)"/>
     <use xlink:href="#DejaVuSans-Bold-46" transform="translate(711.734375 0)"/>
     <use xlink:href="#DejaVuSans-Bold-3" transform="translate(771.015625 0)"/>
     <use xlink:href="#DejaVuSans-Bold-44" transform="translate(805.828125 0)"/>
     <use xlink:href="#DejaVuSans-Bold-46" transform="translate(873.3125 0)"/>
     <use xlink:href="#DejaVuSans-Bold-4c" transform="translate(932.59375 0)"/>
     <use xlink:href="#DejaVuSans-Bold-47" transform="translate(966.875 0)"/>
    </g>
   </g>
   <g id="text_9">
    <!-- Penicillium metabolite (prodrug MMF) -->
    <g style="fill: #888888" transform="translate(88.00467 205.080048) scale(0.068 -0.068)">
     <defs>
      <path id="DejaVuSans-Oblique-33" d="M 1081 4666 
L 2541 4666 
Q 3178 4666 3512 4369 
Q 3847 4072 3847 3500 
Q 3847 2731 3353 2303 
Q 2859 1875 1966 1875 
L 1172 1875 
L 806 0 
L 172 0 
L 1081 4666 
z
M 1613 4147 
L 1275 2394 
L 2069 2394 
Q 2606 2394 2893 2669 
Q 3181 2944 3181 3456 
Q 3181 3784 2986 3965 
Q 2791 4147 2438 4147 
L 1613 4147 
z
" transform="scale(0.015625)"/>
      <path id="DejaVuSans-Oblique-58" d="M 428 1388 
L 838 3500 
L 1416 3500 
L 1006 1409 
Q 975 1256 961 1147 
Q 947 1038 947 966 
Q 947 700 1109 554 
Q 1272 409 1569 409 
Q 2031 409 2368 721 
Q 2706 1034 2809 1563 
L 3194 3500 
L 3769 3500 
L 3091 0 
L 2516 0 
L 2631 550 
Q 2388 244 2052 76 
Q 1716 -91 1338 -91 
Q 878 -91 622 161 
Q 366 413 366 863 
Q 366 956 381 1097 
Q 397 1238 428 1388 
z
" transform="scale(0.015625)"/>
      <path id="DejaVuSans-Oblique-57" d="M 2706 3500 
L 2619 3053 
L 1472 3053 
L 1100 1153 
Q 1081 1047 1072 975 
Q 1063 903 1063 863 
Q 1063 663 1183 572 
Q 1303 481 1569 481 
L 2150 481 
L 2053 0 
L 1503 0 
Q 991 0 739 200 
Q 488 400 488 806 
Q 488 878 497 964 
Q 506 1050 525 1153 
L 897 3053 
L 409 3053 
L 500 3500 
L 978 3500 
L 1172 4494 
L 1747 4494 
L 1556 3500 
L 2706 3500 
z
" transform="scale(0.015625)"/>
      <path id="DejaVuSans-Oblique-45" d="M 3169 2138 
Q 3169 2591 2961 2847 
Q 2753 3103 2388 3103 
Q 2122 3103 1889 2973 
Q 1656 2844 1484 2597 
Q 1303 2338 1198 1995 
Q 1094 1653 1094 1313 
Q 1094 881 1298 636 
Q 1503 391 1863 391 
Q 2134 391 2365 517 
Q 2597 644 2772 891 
Q 2950 1147 3059 1487 
Q 3169 1828 3169 2138 
z
M 1381 2969 
Q 1594 3256 1914 3420 
Q 2234 3584 2584 3584 
Q 3122 3584 3439 3221 
Q 3756 2859 3756 2241 
Q 3756 1734 3570 1259 
Q 3384 784 3041 416 
Q 2816 172 2522 40 
Q 2228 -91 1906 -91 
Q 1566 -91 1316 65 
Q 1066 222 909 531 
L 806 0 
L 231 0 
L 1178 4863 
L 1753 4863 
L 1381 2969 
z
" transform="scale(0.015625)"/>
      <path id="DejaVuSans-Oblique-b" d="M 2731 4856 
Q 1903 3822 1495 2892 
Q 1088 1963 1088 1100 
Q 1088 606 1206 120 
Q 1325 -366 1563 -844 
L 1063 -844 
Q 775 -306 634 201 
Q 494 709 494 1197 
Q 494 2125 923 3036 
Q 1353 3947 2222 4856 
L 2731 4856 
z
" transform="scale(0.015625)"/>
      <path id="DejaVuSans-Oblique-4a" d="M 3816 3500 
L 3219 434 
Q 3047 -456 2561 -893 
Q 2075 -1331 1253 -1331 
Q 950 -1331 690 -1286 
Q 431 -1241 206 -1147 
L 313 -588 
Q 525 -725 762 -790 
Q 1000 -856 1269 -856 
Q 1816 -856 2167 -557 
Q 2519 -259 2631 300 
L 2681 563 
Q 2441 288 2122 144 
Q 1803 0 1434 0 
Q 903 0 598 351 
Q 294 703 294 1319 
Q 294 1803 478 2267 
Q 663 2731 997 3091 
Q 1219 3328 1514 3456 
Q 1809 3584 2131 3584 
Q 2484 3584 2746 3420 
Q 3009 3256 3138 2956 
L 3238 3500 
L 3816 3500 
z
M 2950 2216 
Q 2950 2641 2750 2872 
Q 2550 3103 2181 3103 
Q 1953 3103 1747 3012 
Q 1541 2922 1394 2759 
Q 1156 2491 1023 2127 
Q 891 1763 891 1375 
Q 891 944 1092 712 
Q 1294 481 1672 481 
Q 2219 481 2584 976 
Q 2950 1472 2950 2216 
z
" transform="scale(0.015625)"/>
      <path id="DejaVuSans-Oblique-30" d="M 1081 4666 
L 2028 4666 
L 2572 1522 
L 4378 4666 
L 5350 4666 
L 4441 0 
L 3828 0 
L 4622 4091 
L 2791 897 
L 2175 897 
L 1581 4103 
L 788 0 
L 172 0 
L 1081 4666 
z
" transform="scale(0.015625)"/>
      <path id="DejaVuSans-Oblique-29" d="M 1081 4666 
L 3756 4666 
L 3653 4134 
L 1606 4134 
L 1338 2759 
L 3188 2759 
L 3084 2228 
L 1234 2228 
L 800 0 
L 172 0 
L 1081 4666 
z
" transform="scale(0.015625)"/>
      <path id="DejaVuSans-Oblique-c" d="M -397 -844 
Q 434 191 840 1120 
Q 1247 2050 1247 2913 
Q 1247 3406 1130 3892 
Q 1013 4378 775 4856 
L 1275 4856 
Q 1563 4316 1703 3812 
Q 1844 3309 1844 2822 
Q 1844 1891 1411 973 
Q 978 56 116 -844 
L -397 -844 
z
" transform="scale(0.015625)"/>
     </defs>
     <use xlink:href="#DejaVuSans-Oblique-33"/>
     <use xlink:href="#DejaVuSans-Oblique-48" transform="translate(60.296875 0)"/>
     <use xlink:href="#DejaVuSans-Oblique-51" transform="translate(121.828125 0)"/>
     <use xlink:href="#DejaVuSans-Oblique-4c" transform="translate(185.203125 0)"/>
     <use xlink:href="#DejaVuSans-Oblique-46" transform="translate(212.984375 0)"/>
     <use xlink:href="#DejaVuSans-Oblique-4c" transform="translate(267.96875 0)"/>
     <use xlink:href="#DejaVuSans-Oblique-4f" transform="translate(295.75 0)"/>
     <use xlink:href="#DejaVuSans-Oblique-4f" transform="translate(323.53125 0)"/>
     <use xlink:href="#DejaVuSans-Oblique-4c" transform="translate(351.3125 0)"/>
     <use xlink:href="#DejaVuSans-Oblique-58" transform="translate(379.09375 0)"/>
     <use xlink:href="#DejaVuSans-Oblique-50" transform="translate(442.46875 0)"/>
     <use xlink:href="#DejaVuSans-Oblique-3" transform="translate(539.875 0)"/>
     <use xlink:href="#DejaVuSans-Oblique-50" transform="translate(571.65625 0)"/>
     <use xlink:href="#DejaVuSans-Oblique-48" transform="translate(669.0625 0)"/>
     <use xlink:href="#DejaVuSans-Oblique-57" transform="translate(730.59375 0)"/>
     <use xlink:href="#DejaVuSans-Oblique-44" transform="translate(769.796875 0)"/>
     <use xlink:href="#DejaVuSans-Oblique-45" transform="translate(831.078125 0)"/>
     <use xlink:href="#DejaVuSans-Oblique-52" transform="translate(894.5625 0)"/>
     <use xlink:href="#DejaVuSans-Oblique-4f" transform="translate(955.75 0)"/>
     <use xlink:href="#DejaVuSans-Oblique-4c" transform="translate(983.53125 0)"/>
     <use xlink:href="#DejaVuSans-Oblique-57" transform="translate(1011.3125 0)"/>
     <use xlink:href="#DejaVuSans-Oblique-48" transform="translate(1050.515625 0)"/>
     <use xlink:href="#DejaVuSans-Oblique-3" transform="translate(1112.046875 0)"/>
     <use xlink:href="#DejaVuSans-Oblique-b" transform="translate(1143.828125 0)"/>
     <use xlink:href="#DejaVuSans-Oblique-53" transform="translate(1182.84375 0)"/>
     <use xlink:href="#DejaVuSans-Oblique-55" transform="translate(1246.328125 0)"/>
     <use xlink:href="#DejaVuSans-Oblique-52" transform="translate(1287.4375 0)"/>
     <use xlink:href="#DejaVuSans-Oblique-47" transform="translate(1348.625 0)"/>
     <use xlink:href="#DejaVuSans-Oblique-55" transform="translate(1412.109375 0)"/>
     <use xlink:href="#DejaVuSans-Oblique-58" transform="translate(1453.21875 0)"/>
     <use xlink:href="#DejaVuSans-Oblique-4a" transform="translate(1516.59375 0)"/>
     <use xlink:href="#DejaVuSans-Oblique-3" transform="translate(1580.078125 0)"/>
     <use xlink:href="#DejaVuSans-Oblique-30" transform="translate(1611.859375 0)"/>
     <use xlink:href="#DejaVuSans-Oblique-30" transform="translate(1698.140625 0)"/>
     <use xlink:href="#DejaVuSans-Oblique-29" transform="translate(1784.421875 0)"/>
     <use xlink:href="#DejaVuSans-Oblique-c" transform="translate(1841.9375 0)"/>
    </g>
   </g>
   <g id="text_10">
    <!-- DISEASE -->
    <g style="fill: #999999" transform="translate(134.022116 220.348224) scale(0.075 -0.075)">
     <use xlink:href="#DejaVuSans-Bold-27"/>
     <use xlink:href="#DejaVuSans-Bold-2c" transform="translate(83.015625 0)"/>
     <use xlink:href="#DejaVuSans-Bold-36" transform="translate(120.21875 0)"/>
     <use xlink:href="#DejaVuSans-Bold-28" transform="translate(192.234375 0)"/>
     <use xlink:href="#DejaVuSans-Bold-24" transform="translate(260.546875 0)"/>
     <use xlink:href="#DejaVuSans-Bold-36" transform="translate(337.9375 0)"/>
     <use xlink:href="#DejaVuSans-Bold-28" transform="translate(409.953125 0)"/>
    </g>
   </g>
   <g id="text_11">
    <!-- Type-2 / eosinophilic asthma -->
    <g transform="translate(75.682467 238.799449) scale(0.095 -0.095)">
     <defs>
      <path id="DejaVuSans-Bold-12" d="M 1644 4666 
L 2338 4666 
L 691 -594 
L 0 -594 
L 1644 4666 
z
" transform="scale(0.015625)"/>
     </defs>
     <use xlink:href="#DejaVuSans-Bold-37"/>
     <use xlink:href="#DejaVuSans-Bold-5c" transform="translate(56.359375 0)"/>
     <use xlink:href="#DejaVuSans-Bold-53" transform="translate(121.546875 0)"/>
     <use xlink:href="#DejaVuSans-Bold-48" transform="translate(193.125 0)"/>
     <use xlink:href="#DejaVuSans-Bold-10" transform="translate(260.953125 0)"/>
     <use xlink:href="#DejaVuSans-Bold-15" transform="translate(302.453125 0)"/>
     <use xlink:href="#DejaVuSans-Bold-3" transform="translate(372.03125 0)"/>
     <use xlink:href="#DejaVuSans-Bold-12" transform="translate(406.84375 0)"/>
     <use xlink:href="#DejaVuSans-Bold-3" transform="translate(443.375 0)"/>
     <use xlink:href="#DejaVuSans-Bold-48" transform="translate(478.1875 0)"/>
     <use xlink:href="#DejaVuSans-Bold-52" transform="translate(546.015625 0)"/>
     <use xlink:href="#DejaVuSans-Bold-56" transform="translate(614.71875 0)"/>
     <use xlink:href="#DejaVuSans-Bold-4c" transform="translate(674.234375 0)"/>
     <use xlink:href="#DejaVuSans-Bold-51" transform="translate(708.515625 0)"/>
     <use xlink:href="#DejaVuSans-Bold-52" transform="translate(779.703125 0)"/>
     <use xlink:href="#DejaVuSans-Bold-53" transform="translate(848.40625 0)"/>
     <use xlink:href="#DejaVuSans-Bold-4b" transform="translate(919.984375 0)"/>
     <use xlink:href="#DejaVuSans-Bold-4c" transform="translate(991.171875 0)"/>
     <use xlink:href="#DejaVuSans-Bold-4f" transform="translate(1025.453125 0)"/>
     <use xlink:href="#DejaVuSans-Bold-4c" transform="translate(1059.734375 0)"/>
     <use xlink:href="#DejaVuSans-Bold-46" transform="translate(1094.015625 0)"/>
     <use xlink:href="#DejaVuSans-Bold-3" transform="translate(1153.296875 0)"/>
     <use xlink:href="#DejaVuSans-Bold-44" transform="translate(1188.109375 0)"/>
     <use xlink:href="#DejaVuSans-Bold-56" transform="translate(1255.59375 0)"/>
     <use xlink:href="#DejaVuSans-Bold-57" transform="translate(1315.109375 0)"/>
     <use xlink:href="#DejaVuSans-Bold-4b" transform="translate(1362.90625 0)"/>
     <use xlink:href="#DejaVuSans-Bold-50" transform="translate(1434.09375 0)"/>
     <use xlink:href="#DejaVuSans-Bold-44" transform="translate(1538.296875 0)"/>
    </g>
   </g>
   <g id="text_12">
    <!-- v9 loop -->
    <g style="fill: #ffffff" transform="translate(377.727689 103.656575) scale(0.1 -0.1)">
     <defs>
      <path id="DejaVuSans-Bold-59" d="M 97 3500 
L 1216 3500 
L 2088 1081 
L 2956 3500 
L 4078 3500 
L 2700 0 
L 1472 0 
L 97 3500 
z
" transform="scale(0.015625)"/>
      <path id="DejaVuSans-Bold-1c" d="M 641 103 
L 641 966 
Q 928 831 1190 764 
Q 1453 697 1709 697 
Q 2247 697 2547 995 
Q 2847 1294 2900 1881 
Q 2688 1725 2447 1647 
Q 2206 1569 1925 1569 
Q 1209 1569 770 1986 
Q 331 2403 331 3084 
Q 331 3838 820 4291 
Q 1309 4744 2131 4744 
Q 3044 4744 3544 4128 
Q 4044 3513 4044 2388 
Q 4044 1231 3459 570 
Q 2875 -91 1856 -91 
Q 1528 -91 1228 -42 
Q 928 6 641 103 
z
M 2125 2350 
Q 2441 2350 2600 2554 
Q 2759 2759 2759 3169 
Q 2759 3575 2600 3781 
Q 2441 3988 2125 3988 
Q 1809 3988 1650 3781 
Q 1491 3575 1491 3169 
Q 1491 2759 1650 2554 
Q 1809 2350 2125 2350 
z
" transform="scale(0.015625)"/>
     </defs>
     <use xlink:href="#DejaVuSans-Bold-59"/>
     <use xlink:href="#DejaVuSans-Bold-1c" transform="translate(65.1875 0)"/>
     <use xlink:href="#DejaVuSans-Bold-3" transform="translate(134.765625 0)"/>
     <use xlink:href="#DejaVuSans-Bold-4f" transform="translate(169.578125 0)"/>
     <use xlink:href="#DejaVuSans-Bold-52" transform="translate(203.859375 0)"/>
     <use xlink:href="#DejaVuSans-Bold-52" transform="translate(272.5625 0)"/>
     <use xlink:href="#DejaVuSans-Bold-53" transform="translate(341.265625 0)"/>
    </g>
   </g>
   <g id="text_13">
    <!-- TARGET -->
    <g style="fill: #999999" transform="translate(382.115384 127.541664) scale(0.075 -0.075)">
     <use xlink:href="#DejaVuSans-Bold-37"/>
     <use xlink:href="#DejaVuSans-Bold-24" transform="translate(60.453125 0)"/>
     <use xlink:href="#DejaVuSans-Bold-35" transform="translate(137.84375 0)"/>
     <use xlink:href="#DejaVuSans-Bold-2a" transform="translate(214.84375 0)"/>
     <use xlink:href="#DejaVuSans-Bold-28" transform="translate(296.921875 0)"/>
     <use xlink:href="#DejaVuSans-Bold-37" transform="translate(365.234375 0)"/>
    </g>
   </g>
   <g id="text_14">
    <!-- PKM2 -->
    <g style="fill: #009e73" transform="translate(383.175814 146.933983) scale(0.095 -0.095)">
     <defs>
      <path id="DejaVuSans-Bold-2e" d="M 588 4666 
L 1791 4666 
L 1791 2963 
L 3525 4666 
L 4922 4666 
L 2675 2456 
L 5153 0 
L 3647 0 
L 1791 1838 
L 1791 0 
L 588 0 
L 588 4666 
z
" transform="scale(0.015625)"/>
     </defs>
     <use xlink:href="#DejaVuSans-Bold-33"/>
     <use xlink:href="#DejaVuSans-Bold-2e" transform="translate(73.296875 0)"/>
     <use xlink:href="#DejaVuSans-Bold-30" transform="translate(150.78125 0)"/>
     <use xlink:href="#DejaVuSans-Bold-15" transform="translate(250.296875 0)"/>
    </g>
   </g>
   <g id="text_15">
    <!-- NATURAL PRODUCT -->
    <g style="fill: #999999" transform="translate(357.239994 173.944944) scale(0.075 -0.075)">
     <use xlink:href="#DejaVuSans-Bold-31"/>
     <use xlink:href="#DejaVuSans-Bold-24" transform="translate(83.6875 0)"/>
     <use xlink:href="#DejaVuSans-Bold-37" transform="translate(153.3125 0)"/>
     <use xlink:href="#DejaVuSans-Bold-38" transform="translate(221.53125 0)"/>
     <use xlink:href="#DejaVuSans-Bold-35" transform="translate(302.734375 0)"/>
     <use xlink:href="#DejaVuSans-Bold-24" transform="translate(379.734375 0)"/>
     <use xlink:href="#DejaVuSans-Bold-2f" transform="translate(457.125 0)"/>
     <use xlink:href="#DejaVuSans-Bold-3" transform="translate(520.84375 0)"/>
     <use xlink:href="#DejaVuSans-Bold-33" transform="translate(555.65625 0)"/>
     <use xlink:href="#DejaVuSans-Bold-35" transform="translate(628.953125 0)"/>
     <use xlink:href="#DejaVuSans-Bold-32" transform="translate(705.953125 0)"/>
     <use xlink:href="#DejaVuSans-Bold-27" transform="translate(790.96875 0)"/>
     <use xlink:href="#DejaVuSans-Bold-38" transform="translate(873.984375 0)"/>
     <use xlink:href="#DejaVuSans-Bold-26" transform="translate(955.1875 0)"/>
     <use xlink:href="#DejaVuSans-Bold-37" transform="translate(1028.578125 0)"/>
    </g>
   </g>
   <g id="text_16">
    <!-- Micheliolide -->
    <g style="fill: #009e73" transform="translate(366.196791 193.353591) scale(0.095 -0.095)">
     <use xlink:href="#DejaVuSans-Bold-30"/>
     <use xlink:href="#DejaVuSans-Bold-4c" transform="translate(99.515625 0)"/>
     <use xlink:href="#DejaVuSans-Bold-46" transform="translate(133.796875 0)"/>
     <use xlink:href="#DejaVuSans-Bold-4b" transform="translate(193.078125 0)"/>
     <use xlink:href="#DejaVuSans-Bold-48" transform="translate(264.265625 0)"/>
     <use xlink:href="#DejaVuSans-Bold-4f" transform="translate(332.09375 0)"/>
     <use xlink:href="#DejaVuSans-Bold-4c" transform="translate(366.375 0)"/>
     <use xlink:href="#DejaVuSans-Bold-52" transform="translate(400.65625 0)"/>
     <use xlink:href="#DejaVuSans-Bold-4f" transform="translate(469.359375 0)"/>
     <use xlink:href="#DejaVuSans-Bold-4c" transform="translate(503.640625 0)"/>
     <use xlink:href="#DejaVuSans-Bold-47" transform="translate(537.921875 0)"/>
     <use xlink:href="#DejaVuSans-Bold-48" transform="translate(609.5 0)"/>
    </g>
   </g>
   <g id="text_17">
    <!-- feverfew guaianolide (prodrug DMAMCL/ACT001) -->
    <g style="fill: #888888" transform="translate(314.817533 205.080048) scale(0.068 -0.068)">
     <defs>
      <path id="DejaVuSans-Oblique-49" d="M 3059 4863 
L 2969 4384 
L 2419 4384 
Q 2106 4384 1964 4261 
Q 1822 4138 1753 3809 
L 1691 3500 
L 2638 3500 
L 2553 3053 
L 1606 3053 
L 1013 0 
L 434 0 
L 1031 3053 
L 481 3053 
L 563 3500 
L 1113 3500 
L 1159 3744 
Q 1278 4363 1576 4613 
Q 1875 4863 2516 4863 
L 3059 4863 
z
" transform="scale(0.015625)"/>
      <path id="DejaVuSans-Oblique-59" d="M 459 3500 
L 1069 3500 
L 1581 525 
L 3256 3500 
L 3866 3500 
L 1875 0 
L 1100 0 
L 459 3500 
z
" transform="scale(0.015625)"/>
      <path id="DejaVuSans-Oblique-27" d="M 1081 4666 
L 2438 4666 
Q 3519 4666 4070 4208 
Q 4622 3750 4622 2847 
Q 4622 2250 4412 1698 
Q 4203 1147 3834 769 
Q 3463 381 2891 190 
Q 2319 0 1538 0 
L 172 0 
L 1081 4666 
z
M 1613 4147 
L 909 519 
L 1734 519 
Q 2794 519 3375 1128 
Q 3956 1738 3956 2847 
Q 3956 3519 3581 3833 
Q 3206 4147 2406 4147 
L 1613 4147 
z
" transform="scale(0.015625)"/>
      <path id="DejaVuSans-Oblique-24" d="M 2356 4666 
L 3072 4666 
L 3938 0 
L 3278 0 
L 3084 1197 
L 984 1197 
L 325 0 
L -341 0 
L 2356 4666 
z
M 2584 4044 
L 1275 1722 
L 2988 1722 
L 2584 4044 
z
" transform="scale(0.015625)"/>
      <path id="DejaVuSans-Oblique-26" d="M 4447 4306 
L 4319 3641 
Q 4019 3944 3683 4091 
Q 3347 4238 2956 4238 
Q 2422 4238 2017 3981 
Q 1613 3725 1319 3200 
Q 1131 2863 1032 2486 
Q 934 2109 934 1728 
Q 934 1091 1264 756 
Q 1594 422 2222 422 
Q 2656 422 3056 561 
Q 3456 700 3834 978 
L 3688 231 
Q 3316 72 2936 -9 
Q 2556 -91 2175 -91 
Q 1278 -91 773 396 
Q 269 884 269 1753 
Q 269 2309 461 2846 
Q 653 3384 1013 3828 
Q 1394 4300 1883 4525 
Q 2372 4750 3022 4750 
Q 3422 4750 3780 4639 
Q 4138 4528 4447 4306 
z
" transform="scale(0.015625)"/>
      <path id="DejaVuSans-Oblique-2f" d="M 1075 4666 
L 1709 4666 
L 909 525 
L 3181 525 
L 3078 0 
L 172 0 
L 1075 4666 
z
" transform="scale(0.015625)"/>
      <path id="DejaVuSans-Oblique-12" d="M 2175 4666 
L 2731 4666 
L 84 -594 
L -469 -594 
L 2175 4666 
z
" transform="scale(0.015625)"/>
      <path id="DejaVuSans-Oblique-37" d="M 378 4666 
L 4325 4666 
L 4225 4134 
L 2559 4134 
L 1759 0 
L 1125 0 
L 1925 4134 
L 275 4134 
L 378 4666 
z
" transform="scale(0.015625)"/>
      <path id="DejaVuSans-Oblique-13" d="M 2444 4750 
Q 3078 4750 3414 4328 
Q 3750 3906 3750 3116 
Q 3750 2516 3592 1923 
Q 3434 1331 3150 863 
Q 2859 394 2467 151 
Q 2075 -91 1600 -91 
Q 988 -91 653 334 
Q 319 759 319 1544 
Q 319 2138 480 2733 
Q 641 3328 928 3794 
Q 1216 4263 1602 4506 
Q 1988 4750 2444 4750 
z
M 2406 4250 
Q 2169 4250 1955 4123 
Q 1741 3997 1569 3750 
Q 1281 3338 1111 2720 
Q 941 2103 941 1453 
Q 941 938 1123 673 
Q 1306 409 1663 409 
Q 1913 409 2125 536 
Q 2338 663 2509 909 
Q 2794 1319 2961 1936 
Q 3128 2553 3128 3206 
Q 3128 3722 2945 3986 
Q 2763 4250 2406 4250 
z
" transform="scale(0.015625)"/>
      <path id="DejaVuSans-Oblique-14" d="M 416 531 
L 1447 531 
L 2144 4122 
L 978 3897 
L 1088 4441 
L 2247 4666 
L 2881 4666 
L 2075 531 
L 3103 531 
L 3003 0 
L 313 0 
L 416 531 
z
" transform="scale(0.015625)"/>
     </defs>
     <use xlink:href="#DejaVuSans-Oblique-49"/>
     <use xlink:href="#DejaVuSans-Oblique-48" transform="translate(35.203125 0)"/>
     <use xlink:href="#DejaVuSans-Oblique-59" transform="translate(96.734375 0)"/>
     <use xlink:href="#DejaVuSans-Oblique-48" transform="translate(155.921875 0)"/>
     <use xlink:href="#DejaVuSans-Oblique-55" transform="translate(217.453125 0)"/>
     <use xlink:href="#DejaVuSans-Oblique-49" transform="translate(258.5625 0)"/>
     <use xlink:href="#DejaVuSans-Oblique-48" transform="translate(293.765625 0)"/>
     <use xlink:href="#DejaVuSans-Oblique-5a" transform="translate(355.296875 0)"/>
     <use xlink:href="#DejaVuSans-Oblique-3" transform="translate(437.078125 0)"/>
     <use xlink:href="#DejaVuSans-Oblique-4a" transform="translate(468.859375 0)"/>
     <use xlink:href="#DejaVuSans-Oblique-58" transform="translate(532.34375 0)"/>
     <use xlink:href="#DejaVuSans-Oblique-44" transform="translate(595.71875 0)"/>
     <use xlink:href="#DejaVuSans-Oblique-4c" transform="translate(657 0)"/>
     <use xlink:href="#DejaVuSans-Oblique-44" transform="translate(684.78125 0)"/>
     <use xlink:href="#DejaVuSans-Oblique-51" transform="translate(746.0625 0)"/>
     <use xlink:href="#DejaVuSans-Oblique-52" transform="translate(809.4375 0)"/>
     <use xlink:href="#DejaVuSans-Oblique-4f" transform="translate(870.625 0)"/>
     <use xlink:href="#DejaVuSans-Oblique-4c" transform="translate(898.40625 0)"/>
     <use xlink:href="#DejaVuSans-Oblique-47" transform="translate(926.1875 0)"/>
     <use xlink:href="#DejaVuSans-Oblique-48" transform="translate(989.671875 0)"/>
     <use xlink:href="#DejaVuSans-Oblique-3" transform="translate(1051.203125 0)"/>
     <use xlink:href="#DejaVuSans-Oblique-b" transform="translate(1082.984375 0)"/>
     <use xlink:href="#DejaVuSans-Oblique-53" transform="translate(1122 0)"/>
     <use xlink:href="#DejaVuSans-Oblique-55" transform="translate(1185.484375 0)"/>
     <use xlink:href="#DejaVuSans-Oblique-52" transform="translate(1226.59375 0)"/>
     <use xlink:href="#DejaVuSans-Oblique-47" transform="translate(1287.78125 0)"/>
     <use xlink:href="#DejaVuSans-Oblique-55" transform="translate(1351.265625 0)"/>
     <use xlink:href="#DejaVuSans-Oblique-58" transform="translate(1392.375 0)"/>
     <use xlink:href="#DejaVuSans-Oblique-4a" transform="translate(1455.75 0)"/>
     <use xlink:href="#DejaVuSans-Oblique-3" transform="translate(1519.234375 0)"/>
     <use xlink:href="#DejaVuSans-Oblique-27" transform="translate(1551.015625 0)"/>
     <use xlink:href="#DejaVuSans-Oblique-30" transform="translate(1628.015625 0)"/>
     <use xlink:href="#DejaVuSans-Oblique-24" transform="translate(1714.296875 0)"/>
     <use xlink:href="#DejaVuSans-Oblique-30" transform="translate(1782.703125 0)"/>
     <use xlink:href="#DejaVuSans-Oblique-26" transform="translate(1868.984375 0)"/>
     <use xlink:href="#DejaVuSans-Oblique-2f" transform="translate(1938.8125 0)"/>
     <use xlink:href="#DejaVuSans-Oblique-12" transform="translate(1994.53125 0)"/>
     <use xlink:href="#DejaVuSans-Oblique-24" transform="translate(2028.21875 0)"/>
     <use xlink:href="#DejaVuSans-Oblique-26" transform="translate(2096.625 0)"/>
     <use xlink:href="#DejaVuSans-Oblique-37" transform="translate(2166.453125 0)"/>
     <use xlink:href="#DejaVuSans-Oblique-13" transform="translate(2227.53125 0)"/>
     <use xlink:href="#DejaVuSans-Oblique-13" transform="translate(2291.15625 0)"/>
     <use xlink:href="#DejaVuSans-Oblique-14" transform="translate(2354.78125 0)"/>
     <use xlink:href="#DejaVuSans-Oblique-c" transform="translate(2418.40625 0)"/>
    </g>
   </g>
   <g id="text_18">
    <!-- DISEASE -->
    <g style="fill: #999999" transform="translate(380.434916 220.348224) scale(0.075 -0.075)">
     <use xlink:href="#DejaVuSans-Bold-27"/>
     <use xlink:href="#DejaVuSans-Bold-2c" transform="translate(83.015625 0)"/>
     <use xlink:href="#DejaVuSans-Bold-36" transform="translate(120.21875 0)"/>
     <use xlink:href="#DejaVuSans-Bold-28" transform="translate(192.234375 0)"/>
     <use xlink:href="#DejaVuSans-Bold-24" transform="translate(260.546875 0)"/>
     <use xlink:href="#DejaVuSans-Bold-36" transform="translate(337.9375 0)"/>
     <use xlink:href="#DejaVuSans-Bold-28" transform="translate(409.953125 0)"/>
    </g>
   </g>
   <g id="text_19">
    <!-- Multiple sclerosis -->
    <g style="fill: #009e73" transform="translate(351.449525 238.836558) scale(0.095 -0.095)">
     <use xlink:href="#DejaVuSans-Bold-30"/>
     <use xlink:href="#DejaVuSans-Bold-58" transform="translate(99.515625 0)"/>
     <use xlink:href="#DejaVuSans-Bold-4f" transform="translate(170.703125 0)"/>
     <use xlink:href="#DejaVuSans-Bold-57" transform="translate(204.984375 0)"/>
     <use xlink:href="#DejaVuSans-Bold-4c" transform="translate(252.78125 0)"/>
     <use xlink:href="#DejaVuSans-Bold-53" transform="translate(287.0625 0)"/>
     <use xlink:href="#DejaVuSans-Bold-4f" transform="translate(358.640625 0)"/>
     <use xlink:href="#DejaVuSans-Bold-48" transform="translate(392.921875 0)"/>
     <use xlink:href="#DejaVuSans-Bold-3" transform="translate(460.75 0)"/>
     <use xlink:href="#DejaVuSans-Bold-56" transform="translate(495.5625 0)"/>
     <use xlink:href="#DejaVuSans-Bold-46" transform="translate(555.078125 0)"/>
     <use xlink:href="#DejaVuSans-Bold-4f" transform="translate(614.359375 0)"/>
     <use xlink:href="#DejaVuSans-Bold-48" transform="translate(648.640625 0)"/>
     <use xlink:href="#DejaVuSans-Bold-55" transform="translate(716.46875 0)"/>
     <use xlink:href="#DejaVuSans-Bold-52" transform="translate(765.78125 0)"/>
     <use xlink:href="#DejaVuSans-Bold-56" transform="translate(834.484375 0)"/>
     <use xlink:href="#DejaVuSans-Bold-4c" transform="translate(894 0)"/>
     <use xlink:href="#DejaVuSans-Bold-56" transform="translate(928.28125 0)"/>
    </g>
   </g>
   <g id="text_20">
    <!-- Same data + same question → two divergent answers -->
    <g style="fill: #7a5200" transform="translate(139.00332 288.958601) scale(0.09 -0.09)">
     <defs>
      <path id="DejaVuSans-Bold-c1c" d="M 5050 2225 
L 5050 1788 
L 3822 559 
L 3369 1013 
L 3988 1631 
L 366 1631 
L 366 2381 
L 3988 2381 
L 3369 3000 
L 3822 3453 
L 5050 2225 
z
" transform="scale(0.015625)"/>
     </defs>
     <use xlink:href="#DejaVuSans-Bold-36"/>
     <use xlink:href="#DejaVuSans-Bold-44" transform="translate(72.015625 0)"/>
     <use xlink:href="#DejaVuSans-Bold-50" transform="translate(139.5 0)"/>
     <use xlink:href="#DejaVuSans-Bold-48" transform="translate(243.703125 0)"/>
     <use xlink:href="#DejaVuSans-Bold-3" transform="translate(311.53125 0)"/>
     <use xlink:href="#DejaVuSans-Bold-47" transform="translate(346.34375 0)"/>
     <use xlink:href="#DejaVuSans-Bold-44" transform="translate(417.921875 0)"/>
     <use xlink:href="#DejaVuSans-Bold-57" transform="translate(485.40625 0)"/>
     <use xlink:href="#DejaVuSans-Bold-44" transform="translate(533.203125 0)"/>
     <use xlink:href="#DejaVuSans-Bold-3" transform="translate(600.6875 0)"/>
     <use xlink:href="#DejaVuSans-Bold-e" transform="translate(635.5 0)"/>
     <use xlink:href="#DejaVuSans-Bold-3" transform="translate(719.296875 0)"/>
     <use xlink:href="#DejaVuSans-Bold-56" transform="translate(754.109375 0)"/>
     <use xlink:href="#DejaVuSans-Bold-44" transform="translate(813.625 0)"/>
     <use xlink:href="#DejaVuSans-Bold-50" transform="translate(881.109375 0)"/>
     <use xlink:href="#DejaVuSans-Bold-48" transform="translate(985.3125 0)"/>
     <use xlink:href="#DejaVuSans-Bold-3" transform="translate(1053.140625 0)"/>
     <use xlink:href="#DejaVuSans-Bold-54" transform="translate(1087.953125 0)"/>
     <use xlink:href="#DejaVuSans-Bold-58" transform="translate(1159.53125 0)"/>
     <use xlink:href="#DejaVuSans-Bold-48" transform="translate(1230.71875 0)"/>
     <use xlink:href="#DejaVuSans-Bold-56" transform="translate(1298.546875 0)"/>
     <use xlink:href="#DejaVuSans-Bold-57" transform="translate(1358.0625 0)"/>
     <use xlink:href="#DejaVuSans-Bold-4c" transform="translate(1405.859375 0)"/>
     <use xlink:href="#DejaVuSans-Bold-52" transform="translate(1440.140625 0)"/>
     <use xlink:href="#DejaVuSans-Bold-51" transform="translate(1508.84375 0)"/>
     <use xlink:href="#DejaVuSans-Bold-3" transform="translate(1580.03125 0)"/>
     <use xlink:href="#DejaVuSans-Bold-c1c" transform="translate(1614.84375 0)"/>
     <use xlink:href="#DejaVuSans-Bold-3" transform="translate(1698.640625 0)"/>
     <use xlink:href="#DejaVuSans-Bold-57" transform="translate(1733.453125 0)"/>
     <use xlink:href="#DejaVuSans-Bold-5a" transform="translate(1781.25 0)"/>
     <use xlink:href="#DejaVuSans-Bold-52" transform="translate(1873.640625 0)"/>
     <use xlink:href="#DejaVuSans-Bold-3" transform="translate(1942.34375 0)"/>
     <use xlink:href="#DejaVuSans-Bold-47" transform="translate(1977.15625 0)"/>
     <use xlink:href="#DejaVuSans-Bold-4c" transform="translate(2048.734375 0)"/>
     <use xlink:href="#DejaVuSans-Bold-59" transform="translate(2083.015625 0)"/>
     <use xlink:href="#DejaVuSans-Bold-48" transform="translate(2148.203125 0)"/>
     <use xlink:href="#DejaVuSans-Bold-55" transform="translate(2216.03125 0)"/>
     <use xlink:href="#DejaVuSans-Bold-4a" transform="translate(2265.34375 0)"/>
     <use xlink:href="#DejaVuSans-Bold-48" transform="translate(2336.921875 0)"/>
     <use xlink:href="#DejaVuSans-Bold-51" transform="translate(2404.75 0)"/>
     <use xlink:href="#DejaVuSans-Bold-57" transform="translate(2475.9375 0)"/>
     <use xlink:href="#DejaVuSans-Bold-3" transform="translate(2523.734375 0)"/>
     <use xlink:href="#DejaVuSans-Bold-44" transform="translate(2558.546875 0)"/>
     <use xlink:href="#DejaVuSans-Bold-51" transform="translate(2626.03125 0)"/>
     <use xlink:href="#DejaVuSans-Bold-56" transform="translate(2697.21875 0)"/>
     <use xlink:href="#DejaVuSans-Bold-5a" transform="translate(2756.734375 0)"/>
     <use xlink:href="#DejaVuSans-Bold-48" transform="translate(2849.125 0)"/>
     <use xlink:href="#DejaVuSans-Bold-55" transform="translate(2916.953125 0)"/>
     <use xlink:href="#DejaVuSans-Bold-56" transform="translate(2966.265625 0)"/>
    </g>
   </g>
   <g id="patch_12">
    <path d="M 219.653527 63.944006 
Q 198.378203 69.261782 181.657881 80.88704 
" clip-path="url(#pa605ee4683)" style="fill: none; stroke: #666666; stroke-width: 1.4; stroke-linecap: round"/>
    <path d="M 187.411567 80.053312 
L 181.657881 80.88704 
L 184.44311 75.783855 
z
" clip-path="url(#pa605ee4683)" style="fill: #666666; stroke: #666666; stroke-width: 1.4; stroke-linecap: round"/>
   </g>
   <g id="patch_13">
    <path d="M 330.673426 63.944006 
Q 351.94875 69.261782 368.669072 80.88704 
" clip-path="url(#pa605ee4683)" style="fill: none; stroke: #666666; stroke-width: 1.4; stroke-linecap: round"/>
    <path d="M 365.883843 75.783855 
L 368.669072 80.88704 
L 362.915387 80.053312 
z
" clip-path="url(#pa605ee4683)" style="fill: #666666; stroke: #666666; stroke-width: 1.4; stroke-linecap: round"/>
   </g>
  </g>
 </g>
 <defs>
  <clipPath id="pa605ee4683">
   <rect x="7.323477" y="3.6" width="535.68" height="299.376"/>
  </clipPath>
 </defs>
</svg>
